SplineFontDB: 3.0
FontName: AmiriText-Regular
FullName: Amiri Text Regular
FamilyName: Amiri Text
Weight: Regular
Copyright: Copyright (C) 2010  Khaled Hosny <khaledhosny@elug.org>
UComments: "2010-5-8: Created." 
Version: 000.001
ItalicAngle: 0
UnderlinePosition: -100
UnderlineWidth: 50
Ascent: 800
Descent: 200
LayerCount: 2
Layer: 0 0 "Back"  1
Layer: 1 0 "Fore"  0
XUID: [1021 862 584604386 637949]
FSType: 8
OS2Version: 0
OS2_WeightWidthSlopeOnly: 0
OS2_UseTypoMetrics: 1
CreationTime: 1273266481
ModificationTime: 1275073995
PfmFamily: 17
TTFWeight: 500
TTFWidth: 5
LineGap: 90
VLineGap: 0
OS2TypoAscent: 0
OS2TypoAOffset: 1
OS2TypoDescent: 0
OS2TypoDOffset: 1
OS2TypoLinegap: 90
OS2WinAscent: 0
OS2WinAOffset: 1
OS2WinDescent: 0
OS2WinDOffset: 1
HheadAscent: 0
HheadAOffset: 1
HheadDescent: 0
HheadDOffset: 1
OS2Vendor: 'PfEd'
Lookup: 2 0 0 "'ccmp' Glyph Decomposition"  {"'ccmp' Glyph Decomposition-1"  } ['ccmp' ('DFLT' <'dflt' > 'arab' <'dflt' > ) ]
Lookup: 1 0 0 "'init' Initial Forms in Arabic lookup 1"  {"'init' Initial Forms in Arabic lookup 1 subtable"  } ['init' ('DFLT' <'dflt' > 'arab' <'dflt' > ) ]
Lookup: 1 0 0 "'medi' Medial Forms in Arabic lookup 2"  {"'medi' Medial Forms in Arabic lookup 2 subtable"  } ['medi' ('DFLT' <'dflt' > 'arab' <'dflt' > ) ]
Lookup: 1 0 0 "'fina' Terminal Forms in Arabic lookup 3"  {"'fina' Terminal Forms in Arabic lookup 3 subtable"  } ['fina' ('DFLT' <'dflt' > 'arab' <'dflt' > ) ]
Lookup: 1 0 0 "KafLamHehIsol"  {"KafLamHehIsol subtable"  } []
Lookup: 1 0 0 "BaaBaaAltInit"  {"BaaBaaAltInit subtable"  } []
Lookup: 1 0 0 "SeenYaaFina"  {"SeenYaaFina subtable"  } []
Lookup: 1 0 0 "LamHaaHaaInit"  {"LamHaaHaaInit subtable"  } []
Lookup: 1 0 0 "LamHaaHaaInit2"  {"LamHaaHaaInit2 subtable"  } []
Lookup: 1 0 0 "AynMeemInit"  {"AynMeemInit subtable"  } []
Lookup: 1 0 0 "KafHehIsol"  {"KafHehIsol subtable"  } []
Lookup: 1 0 0 "LamDalIsol"  {"LamDalIsol subtable"  } []
Lookup: 1 0 0 "KafLamMedi"  {"KafLamMedi subtable"  } []

StartChar: alef.fina.alt
Encoding: 65536 -1 0
Width: 0
VWidth: 0
AnchorPoint: "HamzaBelow" 0 0 basechar 0
AnchorPoint: "HamzaAbove" 0 0 basechar 0
AnchorPoint: "DotBelow" 0 0 basechar 0
AnchorPoint: "DotAbove" 0 0 basechar 0
LayerCount: 2
Fore
SplineSet
149.031 799.875 m 0
 154.952 799.92 160.941 793.613 159.969 785.688 c 2
 152.312 723.469 l 2
 150.998 712.768 146.058 707.186 137.781 706.344 c 0
 118.567 704.388 100.978 700.448 89.1562 694.719 c 0
 77.335 688.989 77.3828 678.31 77.625 625.156 c 0
 78.0332 535.749 79.4805 452.982 89.0312 379.438 c 0
 94.0967 340.436 96.3887 303.798 111.906 270.5 c 0
 161.852 163.332 255.371 109.27 406.594 91.5625 c 0
 506.833 79.8252 634.711 81.8848 767.631 90.9316 c 0
 782.337 92.3193 801.819 87.3311 797.562 62.0312 c 0
 793.306 36.7314 784.613 2.75391 766.312 0 c 0
 741.218 -2.56152 639.434 -9.34473 550.25 -6.6875 c 0
 421.527 -1.65332 224.218 -4.08887 122.094 110.719 c 0
 28.3467 216.109 47.1191 487.668 44.9062 571 c 0
 42.6924 654.332 45.7979 696.498 50.25 715.062 c 0
 63.3486 769.684 90.5576 799.43 149.031 799.875 c 0
EndSplineSet
EndChar

StartChar: alef.fina
Encoding: 65537 -1 1
Width: 171
VWidth: 0
AnchorPoint: "HamzaBelow" 0 0 basechar 0
AnchorPoint: "HamzaAbove" 0 0 basechar 0
AnchorPoint: "DotBelow" 0 0 basechar 0
AnchorPoint: "DotAbove" 0 0 basechar 0
LayerCount: 2
Fore
SplineSet
34.8125 714.031 m 2
 45.501 733.684 49.5967 712.863 51.7188 700.812 c 0
 67.6807 610.186 79.2539 521.986 86.9688 436.75 c 0
 95.3291 353.27 103.699 244.573 111.281 186.156 c 0
 118.863 127.758 132.852 110.204 172.531 90.5625 c 0
 190.115 82.875 206.905 75.8887 203.358 55.3613 c 0
 199.812 34.833 197.161 0.65918 172.5 0 c 0
 86.6816 0.475586 78.9346 82.2891 72.8438 122.969 c 0
 66.7539 163.648 51.7744 360.209 49.3438 392.094 c 0
 46.9131 423.979 16.5684 601.655 4.46875 635.719 c 0
 0.935547 645.666 0.43457 650.816 6.53125 662.031 c 2
 34.8125 714.031 l 2
EndSplineSet
Substitution2: "KafAlefFina subtable" alef.fina_KafAlefFina
Substitution2: "KafMeemAlefFina subtable" alef.fina_KafMeemAlefFina
Substitution2: "KafMeemAlefIsol subtable" alef.fina_KafMeemAlefIsol
Substitution2: "KafAlefIsol subtable" alef.fina_KafAlefIsol
Substitution2: "LamAlefFina subtable" alef.fina_LamAlefFina
Substitution2: "KafLamAlefIsol subtable" alef.fina_KafLamAlefIsol
Substitution2: "LamAlefIsol subtable" alef.fina_LamAlefIsol
Substitution2: "MeemAlefFina subtable" alef.fina_MeemAlefFina
Substitution2: "KafLamAlefFina subtable" alef.fina_KafLamAlefFina
Substitution2: "LamLamAlefIsol subtable" alef.fina_LamLamAlefIsol
Substitution2: "BaaMeemAlefFina subtable" alef.fina_BaaMeemAlefFina
Colour: ffff00
EndChar

StartChar: alef.isol
Encoding: 65538 -1 2
Width: 168
VWidth: 0
AnchorPoint: "HamzaBelow" 0 0 basechar 0
AnchorPoint: "HamzaAbove" 0 0 basechar 0
AnchorPoint: "DotBelow" 0 0 basechar 0
AnchorPoint: "DotAbove" 0 0 basechar 0
LayerCount: 2
Fore
SplineSet
72.0068 683.066 m 1
 84.123 706.171 90.1826 688.922 90.2373 671.818 c 1
 94.4443 605.503 103.265 504.635 112.044 426.979 c 0
 119.901 357.477 127.898 290.627 130.495 199.365 c 0
 132.183 140.025 131.072 55.7471 107.698 6.61035 c 0
 101.376 -5.3418 90.3955 1.18262 93.2266 17.5391 c 1
 95.6426 73.1846 90.6914 164.994 87.1318 203.239 c 0
 83.5752 241.458 54.4805 464.514 43.5498 592.77 c 0
 42.1426 605.133 43.1699 614.026 49.0146 626.567 c 2
 72.0068 683.066 l 1
EndSplineSet
Substitution2: "'fina' Terminal Forms in Arabic lookup 3 subtable" alef.fina
Colour: ffff00
EndChar

StartChar: ayn.fina
Encoding: 65539 -1 3
Width: 432
VWidth: 0
AnchorPoint: "HamzaBelow" 0 0 basechar 0
AnchorPoint: "HamzaAbove" 0 0 basechar 0
AnchorPoint: "DotBelow" 0 0 basechar 0
AnchorPoint: "DotAbove" 0 0 basechar 0
LayerCount: 2
Fore
SplineSet
258.034 284.297 m 1
 258.034 284.297 l 1
 260.12 284.33 262.219 284.326 264.314 284.271 c 0
 293.768 283.494 324.546 273.638 355.803 256.656 c 0
 380.493 242.248 400.583 222.498 398.809 202.35 c 0
 395.83 168.523 359.561 139.539 332.296 126.896 c 0
 329.164 125.443 331.443 121.657 334.051 120.071 c 0
 364.151 101.773 404.479 90.6035 431.51 90.0312 c 0
 466.184 89.2969 467.623 68.7344 465.185 53.7295 c 0
 462.746 38.7246 458.912 0 432.207 0 c 0
 360.604 1.34082 308.992 47.8154 253.559 91.7461 c 0
 249.234 95.1738 245.442 94.2139 240.085 91.6631 c 0
 126.422 33.3242 50.4854 -63.5508 38.4395 -193.169 c 0
 28.0176 -305.3 107.947 -418.126 253.468 -446.307 c 0
 404.698 -475.479 519.416 -466.461 661.416 -455.483 c 0
 675.669 -454.381 679.155 -463.311 664.922 -472.768 c 0
 623.693 -500.16 502.347 -547.864 451.595 -550.863 c 0
 388.321 -554.574 287.42 -551.768 213.05 -534.873 c 0
 9.70996 -488.68 -13.4062 -309.449 7.22754 -190.947 c 0
 30.0938 -59.6201 82.9902 36.1943 156.119 102.776 c 0
 168.014 113.606 177.395 122.99 190.148 132.376 c 0
 192.546 134.141 193.838 137.263 190.859 139.824 c 0
 174.034 154.294 155.713 162.725 127.234 165.109 c 0
 120.01 165.72 101.712 167.189 105.602 182.961 c 0
 112.363 210.374 134.373 237.104 163.522 255.348 c 1
 196.45 273.424 226.744 283.799 258.034 284.297 c 1
EndSplineSet
Colour: ffff00
EndChar

StartChar: ayn.init
Encoding: 65541 -1 4
Width: 436
VWidth: 0
AnchorPoint: "HamzaBelow" 0 0 basechar 0
AnchorPoint: "HamzaAbove" 0 0 basechar 0
AnchorPoint: "DotBelow" 0 0 basechar 0
AnchorPoint: "DotAbove" 0 0 basechar 0
LayerCount: 2
Fore
SplineSet
414.262 251.637 m 1
 414.262 251.637 401.312 202.349 393.484 171.614 c 0
 391.592 164.187 383.966 160.099 376.526 157.369 c 0
 244.023 108.748 0 0 0 0 c 1
 -13.2227 0 -22.3779 0 -31.374 47.7637 c 0
 -39.9775 93.4473 -8.34082 87.5049 0.0683594 90.8066 c 0
 19.7402 96.6855 40.7842 107.018 69.1973 119.368 c 1
 50.5293 138.782 24.9053 157.104 33.917 210.28 c 0
 48.7041 297.529 117.527 372.228 192.01 396.841 c 0
 228.37 408.855 285.955 376.711 327.693 331.032 c 0
 342.152 315.208 327.506 299.147 310.732 305.938 c 0
 232.366 337.667 113.999 311.368 90.9072 255.064 c 0
 81.8047 232.87 135.56 187.184 168.946 183.123 c 0
 268.539 170.928 340.78 233.712 400.945 264.528 c 0
 410.618 269.483 415.053 261.042 414.262 251.637 c 1
EndSplineSet
Substitution2: "Finjani subtable" ayn.init_Finjani
Substitution2: "AynHaaInit subtable" ayn.init_AynHaaInit
Substitution2: "AynYaaIsol subtable" ayn.init_AynYaaIsol
Substitution2: "AynMeemInit subtable" ayn.init_AynMeemInit
Colour: ffff00
EndChar

StartChar: ayn.isol
Encoding: 65542 -1 5
Width: 572
VWidth: 0
AnchorPoint: "HamzaBelow" 0 0 basechar 0
AnchorPoint: "HamzaAbove" 0 0 basechar 0
AnchorPoint: "DotBelow" 0 0 basechar 0
AnchorPoint: "DotAbove" 0 0 basechar 0
LayerCount: 2
Fore
SplineSet
169.73 730.281 m 0
 208.981 733.194 259.855 699.176 282.554 667.903 c 0
 289.285 658.629 282.946 653.68 272.882 656.939 c 0
 228.015 671.469 130.7 666.452 56.5459 571.487 c 0
 53.1113 567.09 56.5176 561.161 58.9473 558.597 c 0
 100.447 514.798 174.304 496.056 223.452 504.259 c 0
 260.303 510.408 343.695 574.274 402.447 604.529 c 0
 410.54 608.696 415.975 603.034 413.42 594.736 c 0
 406.851 573.402 393.498 541.312 385.196 528.032 c 0
 382.379 523.52 379.226 519.481 376.521 518.248 c 0
 301.91 484.207 244.847 444.938 178.092 396.036 c 0
 77.8477 322.602 40.4033 230.197 30.0596 136.941 c 0
 18.0576 28.7295 82.8193 -74.6113 230.718 -96.9209 c 0
 384.414 -119.99 505.732 -112.338 648.439 -84.1777 c 0
 662.593 -81.3848 666.652 -91.3252 652.698 -101.457 c 0
 612.281 -130.804 505.303 -189.558 454.259 -194.711 c 0
 390.621 -201.105 288.773 -202.508 213.083 -188.593 c 0
 6.13379 -150.548 -11.5693 22.2422 4.26367 142.584 c 0
 20.876 268.853 68.9668 358.358 134.242 427.104 c 1
 67.6582 453.704 42.8672 477.105 30.96 493.119 c 0
 23.834 502.704 20.8496 511.793 21.9414 524.704 c 0
 24.8262 558.826 34.2822 583.224 46.9072 610.233 c 0
 65.3926 649.771 112.852 710.056 153.72 726.671 c 0
 158.734 728.71 164.123 729.865 169.73 730.281 c 0
EndSplineSet
Substitution2: "'fina' Terminal Forms in Arabic lookup 3 subtable" ayn.fina
Substitution2: "'medi' Medial Forms in Arabic lookup 2 subtable" ayn.medi
Substitution2: "'init' Initial Forms in Arabic lookup 1 subtable" ayn.init
Colour: ffff00
EndChar

StartChar: ayn.medi
Encoding: 65543 -1 6
Width: 358
VWidth: 0
AnchorPoint: "HamzaBelow" 0 0 basechar 0
AnchorPoint: "HamzaAbove" 0 0 basechar 0
AnchorPoint: "DotBelow" 0 0 basechar 0
AnchorPoint: "DotAbove" 0 0 basechar 0
LayerCount: 2
Fore
SplineSet
355.712 82.4395 m 0
 385.969 80.6104 389.529 62.5488 388.082 43.1123 c 0
 386.636 23.6758 379.252 -10.7266 355.878 -10.3281 c 0
 285.77 -9.13184 241.146 14.8281 179.438 87.5049 c 1
 124.564 56.3936 29.7656 7.58105 0 0 c 1
 -12.4639 0 -22.7969 2.99512 -29.8193 38.9775 c 0
 -36.7422 74.4492 -32.6133 89.2275 0.416992 91.1416 c 0
 18.1387 92.1689 67.7842 104.89 117.367 132.676 c 1
 92.8896 153.676 46.8555 169.644 13.6982 175.545 c 0
 8.08398 176.545 7.52637 180.486 8.75293 187.177 c 0
 17.8477 236.747 89.3916 305.685 162.643 303.049 c 0
 234.161 300.477 317.283 237.241 311.404 194.257 c 0
 307.157 163.205 262.052 139.129 239.349 123.465 c 1
 272.09 101.004 312.557 85.0371 355.712 82.4395 c 0
EndSplineSet
Substitution2: "AynYaaFina subtable" ayn.medi_AynYaaFina
Colour: ffff00
EndChar

StartChar: baa.fina
Encoding: 65549 -1 7
Width: 812
VWidth: 0
AnchorPoint: "HamzaBelow" 0 0 basechar 0
AnchorPoint: "HamzaAbove" 0 0 basechar 0
AnchorPoint: "DotBelow" 0 0 basechar 0
AnchorPoint: "DotAbove" 0 0 basechar 0
LayerCount: 2
Fore
SplineSet
57.0518 253.914 m 0
 67.4805 264.883 83.3545 252.592 72.6807 237.981 c 0
 54.79 213.492 38.1738 183.733 44.9844 154.387 c 0
 71.25 41.2168 218.66 17.0508 347.578 22.2617 c 0
 460.668 26.8018 548.383 46.8057 606.484 64.043 c 0
 694.433 90.1357 711.445 96.4863 723.06 148.056 c 0
 726.986 165.491 754.359 164.728 752.278 138.681 c 0
 751.739 132.767 747.672 118.294 755.234 112.466 c 0
 767.89 100.868 793.617 94.1064 810.891 90.5879 c 1
 831.428 87.7588 846.928 83.3115 843.583 58.2734 c 0
 840.248 33.3135 834.998 0 810.9 0 c 1
 785.1 9.80469 763.837 31.623 749.254 43.9219 c 0
 739.213 51.4482 738.326 48.7139 727.735 40.793 c 0
 635.546 -28.1572 467.159 -79.7871 297.329 -78.8945 c 0
 103.721 -77.877 34.4141 -22.4199 11.1416 40.668 c 0
 -18.5273 121.099 25.7568 220.999 57.0518 253.914 c 0
EndSplineSet
Substitution2: "BaaBaaIsol subtable" baa.fina_BaaBaaIsol
Colour: ffff00
EndChar

StartChar: baa.init
Encoding: 65550 -1 8
Width: 120
VWidth: 0
AnchorPoint: "HamzaBelow" 0 0 basechar 0
AnchorPoint: "HamzaAbove" 0 0 basechar 0
AnchorPoint: "DotBelow" 0 0 basechar 0
AnchorPoint: "DotAbove" 0 0 basechar 0
LayerCount: 2
Fore
SplineSet
56.333 276.213 m 0
 60.5127 282.937 68.417 280.891 72.3838 274.027 c 0
 83.1953 255.324 100.656 209.024 89.2539 114.479 c 0
 80.0371 38.04 30.2979 10.7471 0 0 c 1
 -10.2256 0 -16.9609 30.3652 -21.1572 50.9258 c 0
 -25.3535 71.4863 -23.8447 84.709 0.0175781 90.5273 c 0
 29.1035 97.6191 45.5889 110.061 54.4629 122.146 c 0
 56.3047 124.653 55.7939 126.616 55.3818 128.89 c 0
 51.2393 151.762 40.2666 169.615 28.1943 187.058 c 0
 23.4268 193.942 23.0127 205.264 25.5518 211.204 c 0
 35.9824 235.609 47.416 261.87 56.333 276.213 c 0
EndSplineSet
Substitution2: "BaaBaaAltInit subtable" baa.init_BaaBaaAltInit
Substitution2: "BaaHaaMeemInit subtable" baa.init_BaaHaaMeemInit
Substitution2: "BaaHaaInit subtable" baa.init_BaaHaaInit
Substitution2: "BaaHaaIsol subtable" baa.init_BaaHaaIsol
Substitution2: "BaaSeenAltInit subtable" baa.init_BaaSeenAltInit
Substitution2: "BaaMeemIsol subtable" baa.init_BaaMeemIsol
Substitution2: "BaaBaaMeemInit subtable" baa.init_BaaBaaMeemInit
Substitution2: "BaaBaaIsol subtable" baa.init_BaaBaaIsol
Substitution2: "BaaBaaHaaInit subtable" baa.init_BaaBaaHaaInit
Substitution2: "BaaHehInit subtable" baa.init_BaaHehInit
Substitution2: "BaaMeemInit subtable" baa.init_BaaMeemInit
Substitution2: "BaaSeenInit subtable" baa.init_BaaSeenInit
Substitution2: "BaaNoonIsol subtable" baa.init_BaaNoonIsol
Substitution2: "BaaBaaInit subtable" baa.init_BaaBaaInit
Substitution2: "BaaBaaYaaIsol subtable" baa.init_BaaBaaYaaIsol
Substitution2: "BaaMeemHaaInit subtable" baa.init_BaaMeemHaaInit
Substitution2: "BaaDalIsol subtable" baa.init_BaaDalIsol
Substitution2: "BaaYaaIsol subtable" baa.init_BaaYaaIsol
Substitution2: "BaaRaaIsol subtable" baa.init_BaaRaaIsol
Colour: ffff00
EndChar

StartChar: baa.isol
Encoding: 65551 -1 9
Width: 834
VWidth: 0
AnchorPoint: "HamzaBelow" 0 0 basechar 0
AnchorPoint: "HamzaAbove" 0 0 basechar 0
AnchorPoint: "DotBelow" 0 0 basechar 0
AnchorPoint: "DotAbove" 0 0 basechar 0
LayerCount: 2
Fore
SplineSet
757.302 381.124 m 0
 816.465 314.414 811.873 149.118 753.554 108.391 c 0
 679.066 56.375 515.746 19.8379 401.649 7.10938 c 0
 264.798 -8.15723 114.501 -0.682617 31.3389 92.7617 c 0
 0.920898 126.939 -33.374 211.766 69.1104 324.247 c 0
 82.4502 338.889 97.0186 320.519 86.251 309.399 c 0
 70.2354 292.868 48.1064 260.058 52.0303 234.054 c 0
 65.1553 147.085 168.268 100.229 347.297 102.776 c 0
 497.566 104.903 677.603 141.674 761.492 199.194 c 1
 755.751 240.193 725.614 275.888 713.853 294.474 c 0
 711.682 297.904 711.276 301.191 712.234 305.26 c 0
 718.699 332.717 727.235 357.663 738.661 381.124 c 0
 741.979 387.938 748.483 391.066 757.302 381.124 c 0
EndSplineSet
Substitution2: "'fina' Terminal Forms in Arabic lookup 3 subtable" baa.fina
Substitution2: "'medi' Medial Forms in Arabic lookup 2 subtable" baa.medi
Substitution2: "'init' Initial Forms in Arabic lookup 1 subtable" baa.init
Colour: ffff00
EndChar

StartChar: baa.medi
Encoding: 65553 -1 10
Width: 208
VWidth: 0
AnchorPoint: "HamzaBelow" 0 0 basechar 0
AnchorPoint: "HamzaAbove" 0 0 basechar 0
AnchorPoint: "DotBelow" 0 0 basechar 0
AnchorPoint: "DotAbove" 0 0 basechar 0
LayerCount: 2
Fore
SplineSet
204.151 90.8564 m 0
 226.927 85.9854 229.058 74.1611 226.421 54.959 c 0
 223.81 35.9453 217.698 0.298828 208.296 0.375977 c 0
 177.39 0.630859 146.64 4.50195 111.947 78.9424 c 0
 109.143 84.9609 102.676 91.7803 94.498 77.0537 c 0
 73.3779 42.8779 44.7295 7.22461 0 0 c 0
 -11.5273 -1.86133 -21.2158 42.4121 -25.1465 58.5059 c 0
 -29.0791 74.6006 -18.3145 88.3779 -3.95117 89.6689 c 0
 20.9277 91.9043 50.625 99.9512 75.041 117.913 c 0
 86.916 126.648 97.9482 139.335 102.42 155.52 c 0
 105.554 166.864 122.667 166.342 124.984 157.153 c 0
 136.731 110.58 151.647 102.085 204.151 90.8564 c 0
EndSplineSet
MultipleSubs2: "HehMediTooth subtable" baa.medi_BaaHehMedi
Substitution2: "HighBaa subtable" baa.medi_High
Substitution2: "BaaBaaAltInit subtable" baa.medi_BaaBaaAltInit
Substitution2: "BaaYaaFina subtable" baa.medi_BaaYaaFina
Substitution2: "BaaNoonFina subtable" baa.medi_BaaNoonFina
Substitution2: "KafBaaMedi subtable" baa.medi_KafBaaMedi
Substitution2: "BaaBaaMeemInit subtable" baa.medi_BaaBaaMeemInit
Substitution2: "SeenBaaMeemInit subtable" baa.medi_SeenBaaMeemInit
Substitution2: "BaaBaaHaaInit subtable" baa.medi_BaaBaaHaaInit
Substitution2: "BaaRaaFina subtable" baa.medi_BaaRaaFina
Substitution2: "BaaBaaInit subtable" baa.medi_BaaBaaInit
Substitution2: "KafBaaInit subtable" baa.medi_KafBaaInit
Substitution2: "BaaBaaYaaIsol subtable" baa.medi_BaaBaaYaaIsol
Substitution2: "LamBaaMeemInit subtable" baa.medi_LamBaaMeemInit
Substitution2: "BaaMeemFina subtable" baa.medi_BaaMeemFina
Substitution2: "BaaHehMedi subtable" baa.medi_BaaHehMedi
Substitution2: "BaaMeemAlefFina subtable" baa.medi_BaaMeemAlefFina
Colour: ffff00
EndChar

StartChar: colon
Encoding: 58 58 11
Width: 160
VWidth: 0
LayerCount: 2
Fore
SplineSet
137.842 474.363 m 0
 137.842 436.741 107.343 406.243 69.7217 406.243 c 0
 32.0996 406.243 1.60156 436.741 1.60156 474.363 c 0
 1.60156 511.984 32.0996 542.483 69.7217 542.483 c 0
 107.343 542.483 137.842 511.984 137.842 474.363 c 0
140.178 68.1201 m 0
 140.178 30.498 109.68 0 72.0576 0 c 0
 34.4365 0 3.9375 30.498 3.9375 68.1201 c 0
 3.9375 105.742 34.4365 136.24 72.0576 136.24 c 0
 109.68 136.24 140.178 105.742 140.178 68.1201 c 0
EndSplineSet
EndChar

StartChar: dal.fina
Encoding: 65555 -1 12
Width: 410
VWidth: 0
AnchorPoint: "HamzaBelow" 0 0 basechar 0
AnchorPoint: "HamzaAbove" 0 0 basechar 0
AnchorPoint: "DotBelow" 0 0 basechar 0
AnchorPoint: "DotAbove" 0 0 basechar 0
LayerCount: 2
Fore
SplineSet
409.583 90.4287 m 0
 442.415 82.3389 435.352 -1.37891 409.444 0 c 0
 342.322 3.57227 327.009 78.8154 312.738 143.223 c 0
 311.398 149.273 308.208 146.845 307.033 143.377 c 0
 301.03 125.664 276.715 59.3408 226.458 37.3828 c 0
 192.902 22.7207 81.166 9.26953 34.6426 24.0137 c 0
 -15.5879 39.9326 4.43066 120.151 15.9004 151.488 c 0
 23.6992 172.794 39.1523 167.543 41.8838 161.011 c 0
 48.3125 145.636 50.7783 127.557 71.8945 120.375 c 0
 123.517 102.82 207.672 115.078 246.419 131.317 c 0
 269.823 141.126 292.089 164.146 297.375 186.656 c 0
 299.422 195.376 294.07 229.965 287.854 270.734 c 0
 279.603 324.838 269.527 389.785 265.734 420.383 c 0
 263.873 435.399 265.464 441.777 269.369 451.845 c 0
 276.065 469.104 284.064 484.785 292.349 502.638 c 0
 296.529 511.649 309.549 511.203 310.987 498.817 c 0
 325.406 374.684 352.816 210.619 364.36 164.6 c 0
 371.418 136.467 381.495 97.3486 409.583 90.4287 c 0
EndSplineSet
Substitution2: "KafDalIsol subtable" dal.fina_KafDalIsol
Substitution2: "BaaDalIsol subtable" dal.fina_BaaDalIsol
Substitution2: "LamDalIsol subtable" dal.fina_LamDalIsol
Colour: ffff00
EndChar

StartChar: dal.isol
Encoding: 65556 -1 13
Width: 346
VWidth: 0
AnchorPoint: "HamzaBelow" 0 0 basechar 0
AnchorPoint: "HamzaAbove" 0 0 basechar 0
AnchorPoint: "DotBelow" 0 0 basechar 0
AnchorPoint: "DotAbove" 0 0 basechar 0
LayerCount: 2
Fore
SplineSet
129.577 417.618 m 0
 134.063 423.125 138.476 426.508 145.066 424.178 c 0
 235.757 383.685 300.502 311.365 319.46 212.719 c 1
 326.567 168.461 325.696 123.646 309.988 78.1211 c 0
 306.692 68.5703 295.975 57.1377 289.24 54.2979 c 0
 225.177 27.2803 100.271 -10.041 32.5508 4.20703 c 0
 -3.40723 11.7715 -13.4746 48.9922 22.6562 125.834 c 0
 27.7363 136.639 39.1328 134.354 43.9297 129.711 c 0
 61.1074 113.086 77.2471 114.287 123.132 120.279 c 0
 166.517 125.944 247.905 137.748 278.211 158.355 c 0
 280.187 159.699 281.268 166.434 280.395 168.83 c 0
 253.773 254.589 185.551 292.953 108.062 315.014 c 1
 100.798 319.154 96.6436 327.744 98.6191 336.182 c 0
 104.559 361.56 117.891 403.272 129.577 417.618 c 0
EndSplineSet
Substitution2: "'fina' Terminal Forms in Arabic lookup 3 subtable" dal.fina
Colour: ffff00
EndChar

StartChar: dash
Encoding: 65557 -1 14
Width: 676
VWidth: 0
AnchorPoint: "HamzaBelow" 0 0 basechar 0
AnchorPoint: "HamzaAbove" 0 0 basechar 0
AnchorPoint: "DotBelow" 0 0 basechar 0
AnchorPoint: "DotAbove" 0 0 basechar 0
LayerCount: 2
Fore
SplineSet
0 89.4297 m 1
 675.561 89.4297 l 1
 675.561 0 l 1
 0 0 l 1
 0 89.4297 l 1
EndSplineSet
EndChar

StartChar: dot.double
Encoding: 65558 -1 15
Width: 0
VWidth: 0
AnchorPoint: "HamzaBelow" 0 0 basechar 0
AnchorPoint: "HamzaAbove" 0 0 basechar 0
AnchorPoint: "DotBelow" 0 0 basechar 0
AnchorPoint: "DotAbove" 0 0 basechar 0
LayerCount: 2
Fore
SplineSet
154.883 150.997 m 0
 157.685 155.139 158.214 154.69 163.158 152.988 c 0
 188.739 144.181 212.195 130.961 234.146 111.688 c 0
 238.231 108.101 238.559 107.614 235.411 102.699 c 0
 216.928 73.832 202.314 50.6143 187.837 27.3789 c 0
 185.368 23.416 185.382 22.5107 181.404 25.8252 c 0
 163.501 40.7432 134.212 56.8154 107.861 72.7783 c 0
 104.609 74.748 103.664 74.8154 105.967 78.3975 c 0
 123.951 106.365 138.854 127.3 154.883 150.997 c 0
50.5508 128.043 m 0
 53.3516 132.186 53.8809 131.737 58.8252 130.035 c 0
 84.4072 121.228 107.862 108.008 129.813 88.7344 c 0
 133.899 85.1475 134.226 84.6611 131.078 79.7451 c 0
 112.595 50.8789 97.9814 27.6611 83.5039 4.42578 c 0
 81.0352 0.462891 81.0488 -0.442383 77.0713 2.87207 c 0
 59.168 17.79 29.8789 33.8613 3.52832 49.8252 c 0
 0.276367 51.7949 -0.668945 51.8623 1.63477 55.4434 c 0
 19.6182 83.4111 34.5215 104.347 50.5508 128.043 c 0
EndSplineSet
EndChar

StartChar: dot.single
Encoding: 65559 -1 16
Width: 0
VWidth: 0
AnchorPoint: "HamzaBelow" 0 0 basechar 0
AnchorPoint: "HamzaAbove" 0 0 basechar 0
AnchorPoint: "DotBelow" 0 0 basechar 0
AnchorPoint: "DotAbove" 0 0 basechar 0
LayerCount: 2
Fore
SplineSet
49.1875 126.763 m 0
 51.9893 130.904 52.5195 130.456 57.4639 128.754 c 0
 83.0449 119.946 106.5 106.727 128.452 87.4531 c 0
 132.537 83.8672 132.863 83.3799 129.716 78.4648 c 0
 111.233 49.5977 96.6201 26.3799 82.1416 3.14453 c 0
 79.6729 -0.817383 79.6865 -1.72266 75.71 1.5918 c 0
 57.8066 16.5098 28.5176 32.5811 2.16602 48.5439 c 0
 -1.08594 50.5137 -2.03125 50.5811 0.271484 54.1631 c 0
 18.2549 82.1309 33.1592 103.065 49.1875 126.763 c 0
EndSplineSet
EndChar

StartChar: dot.tripple
Encoding: 65560 -1 17
Width: 0
VWidth: 0
AnchorPoint: "HamzaBelow" 0 0 basechar 0
AnchorPoint: "HamzaAbove" 0 0 basechar 0
AnchorPoint: "DotBelow" 0 0 basechar 0
AnchorPoint: "DotAbove" 0 0 basechar 0
LayerCount: 2
Fore
SplineSet
145.497 150.543 m 0
 148.299 154.685 148.829 154.236 153.773 152.534 c 0
 179.354 143.727 202.811 130.507 224.761 111.233 c 0
 228.846 107.646 229.173 107.16 226.026 102.244 c 0
 207.543 73.3779 192.93 50.1602 178.452 26.9248 c 0
 175.983 22.9619 175.997 22.0566 172.02 25.3711 c 0
 154.116 40.2891 124.827 56.3613 98.4766 72.3242 c 0
 95.2246 74.2939 94.2783 74.3613 96.5811 77.9434 c 0
 114.565 105.91 129.469 126.846 145.497 150.543 c 0
51.5283 127.59 m 0
 54.3291 131.731 54.8594 131.283 59.8027 129.581 c 0
 85.3848 120.773 108.84 107.554 130.791 88.2803 c 0
 134.877 84.6934 135.203 84.207 132.056 79.291 c 0
 113.573 50.4248 98.96 27.207 84.4824 3.97168 c 0
 82.0127 0.00878906 82.0273 -0.896484 78.0488 2.41797 c 0
 60.1465 17.3359 30.8574 33.4082 4.50586 49.3711 c 0
 1.25391 51.3408 0.307617 51.4082 2.6123 54.9902 c 0
 20.5947 82.957 35.499 103.893 51.5283 127.59 c 0
57.5957 251.943 m 0
 59.9209 256.37 60.4971 255.983 65.5996 254.84 c 0
 92 248.921 116.775 238.382 140.727 221.66 c 0
 145.186 218.548 145.563 218.101 142.98 212.866 c 0
 127.81 182.129 115.859 157.435 104.046 132.738 c 0
 102.031 128.527 102.145 127.629 97.8242 130.482 c 0
 78.3789 143.324 47.4893 156.051 19.5312 168.996 c 0
 16.0811 170.594 15.1338 170.556 17.0264 174.371 c 0
 31.7998 204.159 44.292 226.616 57.5957 251.943 c 0
EndSplineSet
EndChar

StartChar: faa.fina
Encoding: 65561 -1 18
Width: 944
VWidth: 0
AnchorPoint: "HamzaBelow" 0 0 basechar 0
AnchorPoint: "HamzaAbove" 0 0 basechar 0
AnchorPoint: "DotBelow" 0 0 basechar 0
AnchorPoint: "DotAbove" 0 0 basechar 0
LayerCount: 2
Fore
SplineSet
798.193 348.295 m 0
 848.738 349.314 910.656 246.873 834.467 99.3877 c 1
 864.956 93.1973 913.192 91.4648 943.257 90.8008 c 0
 981.775 89.9502 970.757 0.542969 943.652 0 c 0
 842.95 -2.01562 805.002 13.2344 768.359 25.3203 c 1
 606.803 -87.1758 207.797 -143.068 53.9619 -31.126 c 0
 -43.1846 39.5654 14.5264 155.474 59.8076 228.804 c 0
 67.7305 241.636 87.1797 233.335 78.4375 216.888 c 0
 40.376 145.279 30.4043 111.738 120.451 49.1006 c 0
 227.203 -25.1562 610.173 25.3203 680.583 80.6445 c 1
 663.4 103.269 657.405 120.716 664.499 154.19 c 0
 681.801 235.838 755.164 347.417 798.193 348.295 c 0
777.273 248.757 m 0
 749.247 252.049 726.999 225.056 708.727 172.911 c 1
 715.14 149.916 736.738 130.024 759 122.615 c 0
 773.691 117.725 814.498 138.386 824.354 156.438 c 1
 823.855 188.142 814.036 244.439 777.273 248.757 c 0
EndSplineSet
Colour: ffff00
EndChar

StartChar: faa.init
Encoding: 65562 -1 19
Width: 258
VWidth: 0
AnchorPoint: "HamzaBelow" 0 0 basechar 0
AnchorPoint: "HamzaAbove" 0 0 basechar 0
AnchorPoint: "DotBelow" 0 0 basechar 0
AnchorPoint: "DotAbove" 0 0 basechar 0
LayerCount: 2
Fore
SplineSet
115.188 409.31 m 0
 115.188 409.31 l 1
 115.19 409.31 l 2
 145.979 408.987 238.499 319.106 231.978 195.006 c 0
 227.413 108.15 187.723 63.1562 120.881 31.793 c 0
 79.3096 12.2871 43.9746 5.21191 0 0 c 0
 -26.5156 -3.14258 -31.6631 89.7871 -0.00976562 92.8213 c 0
 77.4492 100.246 158.686 136.569 188.078 161.557 c 1
 186.615 180.228 179.482 198.479 175.223 205.844 c 0
 170.832 213.435 163.41 209.561 161.825 205.393 c 0
 141.448 151.802 85.7783 137.009 37.752 160.863 c 0
 15.4727 171.931 6.53711 202.043 9.33105 239.022 c 0
 14.5 307.439 72.3516 409.755 115.188 409.31 c 0
82.1006 300.683 m 0
 65.8838 300.307 55.4551 281.029 54.5518 262.355 c 0
 53.9463 260.319 54.4717 256.818 56.3887 256.214 c 0
 79.6514 248.881 98.3262 251.575 116.724 259.676 c 0
 118.466 260.443 123.765 264.362 123.333 265.623 c 0
 118.127 280.846 96.3555 301.013 82.1006 300.683 c 0
EndSplineSet
Substitution2: "FaaYaaIsol subtable" faa.init_FaaYaaIsol
Substitution2: "FaaHaaInit subtable" faa.init_FaaHaaInit
Substitution2: "FaaMeemInit subtable" faa.init_FaaMeemInit
Colour: ffff00
EndChar

StartChar: faa.isol
Encoding: 65563 -1 20
Width: 884
VWidth: 0
AnchorPoint: "HamzaBelow" 0 0 basechar 0
AnchorPoint: "HamzaAbove" 0 0 basechar 0
AnchorPoint: "DotBelow" 0 0 basechar 0
AnchorPoint: "DotAbove" 0 0 basechar 0
LayerCount: 2
Fore
SplineSet
734.954 513.719 m 0
 745.083 513.799 755.42 513.869 765.034 510.224 c 0
 844.688 479.396 876.549 289.444 849.293 221.775 c 0
 797.682 93.6416 492.312 5.82715 271.778 1.64355 c 0
 -72.1074 -4.84375 -13.5947 234.771 52.502 332.35 c 0
 62.4111 346.979 79.7461 333.61 70.8369 319.303 c 0
 45.1787 278.1 32.2783 231.137 37.7627 207.401 c 0
 60.415 109.367 235.129 82.0273 399.342 105.655 c 0
 484.182 117.862 811.978 195.076 830.362 285.239 c 1
 827.427 301.8 818.677 314.295 804.114 326.597 c 1
 800.026 328.707 799.715 325.103 798.627 322.131 c 0
 785.979 288.174 737.712 240.3 669.858 273.423 c 1
 625.186 302.249 629.765 346.646 651.856 401.737 c 0
 673.749 456.33 709.434 513.593 734.954 513.719 c 0
745.304 372.644 m 0
 750.519 378.038 750.208 385.924 744.053 391.166 c 0
 721.207 408.869 703.378 412.467 688.404 385.058 c 0
 685.643 379.625 684.906 375.717 689.444 371.034 c 0
 704.764 355.228 731.6 356.119 745.304 372.644 c 0
EndSplineSet
Substitution2: "'fina' Terminal Forms in Arabic lookup 3 subtable" faa.fina
Substitution2: "'medi' Medial Forms in Arabic lookup 2 subtable" faa.medi
Substitution2: "'init' Initial Forms in Arabic lookup 1 subtable" faa.init
Colour: ffff00
EndChar

StartChar: faa.medi
Encoding: 65564 -1 21
Width: 349
VWidth: 0
AnchorPoint: "HamzaBelow" 0 0 basechar 0
AnchorPoint: "HamzaAbove" 0 0 basechar 0
AnchorPoint: "DotBelow" 0 0 basechar 0
AnchorPoint: "DotAbove" 0 0 basechar 0
LayerCount: 2
Fore
SplineSet
282.763 379.065 m 0
 286.584 379.101 289.784 378.373 292.281 376.854 c 0
 344.058 345.349 327.38 226.405 306.046 179.187 c 0
 294.465 153.556 278.381 127.685 269.988 115.335 c 1
 296.656 101.384 322.672 95.0889 347.984 89.4834 c 0
 368.04 85.042 365.706 -1.04395 347.479 0.407227 c 0
 288.255 5.12305 217.327 32.8652 171.928 57.5811 c 1
 124.293 34.3799 24.0186 0.59668 0 0 c 0
 -25.917 -0.643555 -27.2969 88.3213 -0.165039 90.5469 c 0
 39.6387 93.8105 73.6797 102.569 105.998 115.654 c 1
 84.6846 245.727 232.237 378.61 282.763 379.065 c 0
237.952 273.431 m 0
 190.58 277.953 154.265 229.919 150.666 221.997 c 0
 141.021 200.771 165.485 153.893 214.919 148.62 c 0
 226.148 147.422 269.023 171.977 278.903 186.736 c 1
 287.874 214.716 265.244 270.825 237.952 273.431 c 0
EndSplineSet
Substitution2: "FaaYaaFina subtable" faa.medi_FaaYaaFina
Colour: ffff00
EndChar

StartChar: haa.fina
Encoding: 65565 -1 22
Width: 598
VWidth: 0
AnchorPoint: "HamzaBelow" 0 0 basechar 0
AnchorPoint: "HamzaAbove" 0 0 basechar 0
AnchorPoint: "DotBelow" 0 0 basechar 0
AnchorPoint: "DotAbove" 0 0 basechar 0
LayerCount: 2
Fore
SplineSet
168.017 260.418 m 0
 207.646 260.72 250.403 253.209 286.329 247.075 c 0
 379.241 231.208 458.77 227.371 569.673 246.606 c 0
 585.811 249.405 594.872 242.508 591.829 235.7 c 2
 564.61 174.763 l 2
 562.13 169.21 558.882 166.317 553.267 165.575 c 0
 512.001 160.118 470.838 154.006 431.079 146.2 c 1
 448.804 83.3193 548.54 88.9404 598.275 90.5264 c 0
 639.86 91.8506 623.891 1.55371 598.723 0 c 0
 500.078 -6.08789 367.607 -0.769531 390.517 137.482 c 1
 326.774 122.477 268.122 101.907 220.485 71.168 c 0
 111.128 0.603516 61.292 -115.903 73.8604 -218.112 c 0
 82.1094 -285.193 131.61 -361.327 213.423 -397.176 c 0
 305.958 -437.724 536.442 -417.131 690.704 -402.957 c 0
 724.438 -399.857 713.057 -424.312 697.86 -428.801 c 0
 618.688 -452.191 590.994 -485.281 560.048 -499.768 c 0
 551.316 -503.856 548.503 -506.181 539.235 -507.05 c 0
 395.243 -520.547 219.867 -528.585 114.329 -451.269 c 0
 13.9033 -377.699 10.8555 -249.328 35.0166 -139.832 c 0
 59.1826 -30.3154 115.444 77.6533 272.985 157.638 c 1
 188.229 177.917 112.996 172.729 59.8291 143.856 c 0
 52.1562 139.689 41.8574 144.426 42.0791 151.543 c 0
 44.6182 237.744 101.968 259.917 168.017 260.418 c 0
EndSplineSet
Substitution2: "BaaHaaIsol subtable" haa.fina_BaaHaaIsol
Substitution2: "SeenHaaIsol subtable" haa.fina_SeenHaaIsol
Substitution2: "SadHaaIsol subtable" haa.fina_SadHaaIsol
Colour: ffff00
EndChar

StartChar: haa.init
Encoding: 65567 -1 23
Width: 602
VWidth: 0
AnchorPoint: "HamzaBelow" 0 0 basechar 0
AnchorPoint: "HamzaAbove" 0 0 basechar 0
AnchorPoint: "DotBelow" 0 0 basechar 0
AnchorPoint: "DotAbove" 0 0 basechar 0
LayerCount: 2
Fore
SplineSet
-3.68848 218.281 m 4
 4.95996 252.145 50.043 312.001 110.759 313.021 c 4
 189.462 314.351 337.318 194.88 565.866 211.754 c 4
 589.198 213.477 581.33 199.311 579.098 194.33 c 6
 551.461 132.65 l 6
 546.692 122.007 536.209 122.387 529.774 123.45 c 4
 324.199 157.529 168.156 54.5654 0 0 c 4
 -16.9365 -5.49609 -24.5273 85.334 -0.707031 90.2949 c 4
 77.5518 106.594 175.356 126.038 255.422 162.791 c 5
 166.455 207.871 114.399 225.764 12.4346 204.321 c 4
 1.77344 202.079 -6.30859 208.02 -3.68848 218.281 c 4
EndSplineSet
Substitution2: "Finjani subtable" haa.init_Finjani
Substitution2: "HaaRaaIsol subtable" haa.init_HaaRaaIsol
Substitution2: "HaaMeemInit subtable" haa.init_HaaMeemInit
Substitution2: "HaaHaaInit subtable" haa.init_HaaHaaInit
Substitution2: "HaaYaaIsol subtable" haa.init_HaaYaaIsol
Colour: ffff00
EndChar

StartChar: haa.isol
Encoding: 65568 -1 24
Width: 666
VWidth: 0
AnchorPoint: "HamzaBelow" 0 0 basechar 0
AnchorPoint: "HamzaAbove" 0 0 basechar 0
AnchorPoint: "DotBelow" 0 0 basechar 0
AnchorPoint: "DotAbove" 0 0 basechar 0
LayerCount: 2
Fore
SplineSet
573.97 548.176 m 2
 546.736 487.23 l 2
 544.255 481.679 541.03 478.805 535.416 478.062 c 0
 411.821 461.717 289.167 436.046 200.611 383.652 c 0
 75.0068 309.337 25.9473 191.572 53.5127 86.8633 c 0
 70.7188 21.5039 116.235 -27.6113 198.048 -63.4609 c 0
 290.582 -104.009 518.564 -112.144 672.826 -97.9697 c 0
 706.559 -94.8711 695.205 -119.314 680.009 -123.804 c 0
 600.835 -147.194 573.143 -172.808 542.196 -187.297 c 0
 533.464 -191.385 530.631 -193.69 521.363 -194.56 c 0
 377.371 -208.056 200.767 -201.115 95.2295 -123.8 c 0
 -5.19629 -50.2285 -11.0176 63.1494 13.1436 172.646 c 0
 37.3096 282.161 97.5928 390.146 255.134 470.131 c 1
 170.378 490.41 105.743 492.273 52.5762 463.401 c 0
 44.9023 459.234 35.4873 460.453 35.71 467.57 c 0
 39.7705 605.492 180.34 576.769 275.549 556.914 c 1
 375.241 537.473 440.894 539.87 551.797 559.104 c 0
 567.934 561.903 577.013 554.984 573.97 548.176 c 2
EndSplineSet
Substitution2: "'fina' Terminal Forms in Arabic lookup 3 subtable" haa.fina
Substitution2: "'medi' Medial Forms in Arabic lookup 2 subtable" haa.medi
Substitution2: "'init' Initial Forms in Arabic lookup 1 subtable" haa.init
Colour: ffff00
EndChar

StartChar: haa.medi
Encoding: 65570 -1 25
Width: 586
VWidth: 0
AnchorPoint: "HamzaBelow" 0 0 basechar 0
AnchorPoint: "HamzaAbove" 0 0 basechar 0
AnchorPoint: "DotBelow" 0 0 basechar 0
AnchorPoint: "DotAbove" 0 0 basechar 0
LayerCount: 2
Fore
SplineSet
114.203 312.101 m 0
 114.203 312.101 l 1
 148.578 312.583 209.331 281.895 259.838 264.137 c 0
 300.331 249.899 345.073 235.389 389.622 228.93 c 0
 447.271 220.571 500.901 213.866 570.615 223.956 c 0
 575.836 224.712 585.146 221.75 582.239 212.392 c 0
 575.13 189.505 569.619 160.322 559.623 138.76 c 0
 557.509 134.199 551.628 132.122 547.634 132.447 c 0
 516.385 134.993 487.768 136.743 460.913 137.315 c 1
 437.188 85.3457 533.219 91.7939 583.934 90.9453 c 0
 625.263 90.2529 609.738 0.549805 585.159 0.356445 c 0
 560.456 0.163086 488.696 -1.35645 460.696 6.74609 c 0
 384.48 28.7998 408.287 80.5771 423.967 135.088 c 1
 358.025 131.079 292.984 118.751 232.497 100.279 c 0
 149.913 75.0605 62.7627 15.4746 0 0 c 0
 -26.165 -6.45117 -41.9678 80.9365 -1.69922 90.7715 c 0
 94.7295 114.321 170.14 156.642 211.608 168.847 c 0
 219.126 171.059 219.945 177.231 208.778 182.035 c 0
 107.382 225.652 58.7617 228.781 8.00586 201.361 c 0
 -1.90137 196.009 -17.2939 194.571 -12.6699 212.854 c 0
 7.26855 291.684 74.6035 311.545 114.203 312.101 c 0
EndSplineSet
Substitution2: "Finjani subtable" haa.medi_Finjani
Substitution2: "LamHaaHaaInit2 subtable" haa.medi2_LamHaaHaaInit
Substitution2: "LamHaaHaaInit subtable" haa.medi1_LamHaaHaaInit
Substitution2: "BaaHaaMeemInit subtable" haa.medi_BaaHaaMeemInit
Substitution2: "BaaHaaInit subtable" haa.medi_BaaHaaInit
Substitution2: "SadHaaInit subtable" haa.medi_SadHaaInit
Substitution2: "HehHaaInit subtable" haa.medi_HehHaaInit
Substitution2: "BaaBaaHaaInit subtable" haa.medi_BaaBaaHaaInit
Substitution2: "LamMeemHaaInit subtable" haa.medi_LamMeemHaaInit
Substitution2: "AynHaaInit subtable" haa.medi_AynHaaInit
Substitution2: "SeenHaaInit subtable" haa.medi_SeenHaaInit
Substitution2: "MeemHaaMeemInit subtable" haa.medi_MeemHaaMeemInit
Substitution2: "MeemHaaInit subtable" haa.medi_MeemHaaInit
Substitution2: "HaaHaaInit subtable" haa.medi_HaaHaaInit
Substitution2: "FaaHaaInit subtable" haa.medi_FaaHaaInit
Substitution2: "LamHaaMeemInit subtable" haa.medi_LamHaaMeemInit
Substitution2: "BaaMeemHaaInit subtable" haa.medi_BaaMeemHaaInit
Substitution2: "LamLamHaaInit subtable" haa.medi_LamLamHaaInit
Substitution2: "LamHaaInit subtable" haa.medi_LamHaaInit
Colour: ffff00
EndChar

StartChar: hamza.small
Encoding: 65571 -1 26
Width: 0
VWidth: 0
AnchorPoint: "HamzaBelow" 0 0 basechar 0
AnchorPoint: "HamzaAbove" 0 0 basechar 0
AnchorPoint: "DotBelow" 0 0 basechar 0
AnchorPoint: "DotAbove" 0 0 basechar 0
LayerCount: 2
Fore
SplineSet
183.881 55.8887 m 0
 157.806 50.6836 123.185 43.0205 100.297 35.8496 c 0
 77.4082 28.6777 51.5664 16.2031 23.1279 3.57227 c 0
 5.01074 -4.47461 -4.74316 12.3379 5.55469 25.667 c 0
 13.459 35.8955 32.5674 49.9932 43.1709 56.7695 c 1
 26.1338 65.4092 6.22754 80.6621 1.68848 98.6904 c 0
 -5.40039 126.847 15.2539 170.782 35.3818 196.685 c 0
 55.5107 222.588 87.042 254.605 124.558 250.072 c 0
 169.711 244.614 149.181 186.777 131.076 160.055 c 1
 122.228 150.229 113.667 152.323 108.852 160.055 c 0
 95.8838 180.882 65.2061 186.202 45.4141 163.451 c 0
 28.418 143.915 85.2832 107.729 146.829 107.311 c 0
 170.782 107.147 186.323 116.457 208.611 116.904 c 0
 216.208 117.057 222.392 106.249 219.09 99.3057 c 0
 212.509 85.4648 200.769 59.2598 183.881 55.8887 c 0
EndSplineSet
EndChar

StartChar: hamza
Encoding: 65572 -1 27
Width: 266
VWidth: 0
AnchorPoint: "HamzaBelow" 0 0 basechar 0
AnchorPoint: "HamzaAbove" 0 0 basechar 0
AnchorPoint: "DotBelow" 0 0 basechar 0
AnchorPoint: "DotAbove" 0 0 basechar 0
LayerCount: 2
Fore
SplineSet
245.771 124.438 m 2
 244.081 118.621 239.895 109.234 232.941 104.999 c 1
 168.524 82.6992 80.7578 28.3779 46.918 4 c 1
 32.1875 -4.36133 24.958 6.93945 27.5586 18.9824 c 1
 34.9912 37.7832 55.3936 55.5742 75.4502 72.5479 c 1
 52.3174 81.1387 17.0928 100.655 9.70605 113.576 c 0
 -6.28027 141.543 0.129883 163.966 13.8691 190.795 c 0
 27.6094 217.623 82.0098 296.553 121.147 298.108 c 0
 143.013 298.978 152.385 291.508 160.055 280.115 c 0
 174.2 259.104 167.644 225.159 154.063 202.967 c 0
 146.406 190.453 136.73 191.557 129.382 198.496 c 0
 119.679 207.659 104.442 220.616 86.2646 224.25 c 0
 68.0869 227.884 55.9814 204.238 59.873 191.173 c 0
 65.752 171.435 112.653 135.824 180.572 147.726 c 0
 206.751 152.313 217.229 169.026 242.075 173.919 c 0
 250.346 175.548 257.963 166.421 255.574 158.194 c 2
 245.771 124.438 l 2
EndSplineSet
EndChar

StartChar: heh.fina
Encoding: 65573 -1 28
Width: 318
VWidth: 0
AnchorPoint: "HamzaBelow" 0 0 basechar 0
AnchorPoint: "HamzaAbove" 0 0 basechar 0
AnchorPoint: "DotBelow" 0 0 basechar 0
AnchorPoint: "DotAbove" 0 0 basechar 0
LayerCount: 2
Fore
SplineSet
194.999 444.87 m 2
 198.674 450.701 208.08 443.607 208.601 439.261 c 0
 222.542 332.182 240.05 160.882 248.77 135.346 c 0
 260.97 99.6162 278.996 88.9434 316.188 90.4277 c 0
 354.31 91.9502 332.715 0.412109 316.076 0 c 0
 223.898 -2.28516 216.239 39.8623 195.586 147.285 c 1
 183.033 123.877 160.597 90.7832 137.768 81.7822 c 0
 111.071 71.2578 41.6689 83.3164 18.7686 101.59 c 0
 10.1885 108.436 -0.655273 117.831 1.16504 136.205 c 1
 6.66602 168.055 35.4209 223.645 46.7373 235.189 c 0
 67.5693 256.441 129.367 303.186 172.972 325.268 c 1
 170.997 353.334 168.888 370.082 169.577 392.759 c 1
 168.782 400.66 174.004 411.551 178.508 418.698 c 2
 194.999 444.87 l 2
179.654 264.37 m 1
 139.195 254.139 86.9316 226.351 67.7568 196.789 c 1
 63.8496 193.427 66.0566 189.303 70.3428 186.765 c 0
 87.7373 176.467 139.288 170.509 178.877 180.972 c 0
 183.845 182.284 187.401 185.402 189.721 187.92 c 1
 185.841 212.074 183.137 236.132 179.654 264.37 c 1
EndSplineSet
Substitution2: "KafLamHehIsol subtable" heh.fina_KafLamHehIsol
Substitution2: "Lellah subtable" heh.fina_Lellah
Substitution2: "KafHehFina subtable" heh.fina_KafHehFina
Substitution2: "LamHehFina subtable" heh.fina_LamHehFina
Substitution2: "LamHehIsol subtable" heh.fina_LamHehIsol
Substitution2: "KafHehIsol subtable" heh.fina_KafHehIsol
Colour: ffff00
EndChar

StartChar: heh.init
Encoding: 65574 -1 29
Width: 420
VWidth: 0
AnchorPoint: "HamzaBelow" 0 0 basechar 0
AnchorPoint: "HamzaAbove" 0 0 basechar 0
AnchorPoint: "DotBelow" 0 0 basechar 0
AnchorPoint: "DotAbove" 0 0 basechar 0
LayerCount: 2
Fore
SplineSet
86.1055 321.582 m 0
 94.5166 347.406 106.173 406.894 153.352 409.932 c 0
 182.178 411.76 244.723 361.049 279.13 327.433 c 0
 322.397 285.163 380.468 220.973 387.419 180.641 c 0
 395.229 135.327 370.156 35.2607 303.742 42.2109 c 0
 265.949 46.166 206.75 57.3193 132.863 85.6016 c 1
 85.6914 44.6133 35.9629 17.0195 0 0 c 0
 -15.3467 -7.2627 -44.3408 76.3037 -0.00976562 90.0791 c 0
 31.6865 99.9287 51.6445 108.396 69.5303 118.118 c 1
 49.8604 134.398 46.3105 156.306 53.9414 179.417 c 0
 63.2764 209.508 85.2168 253.395 127.427 290.263 c 1
 128.995 297.149 105.502 308.959 92.3428 309.763 c 0
 86.3486 310.128 84.6924 317.192 86.1055 321.582 c 0
160.688 248.933 m 0
 133.888 256.008 99.374 232.917 86.0439 214.279 c 1
 74.5596 195.128 96.8027 183.575 158.577 164.604 c 1
 169.29 169.971 180.994 176.414 189.117 184.689 c 0
 191.569 187.188 191.938 188.066 191.652 191.625 c 0
 189.244 221.612 185.288 241.6 160.688 248.933 c 0
234.107 236.917 m 0
 231.609 238.494 229.45 238.201 230.527 235.165 c 0
 235.109 208.29 204.667 160.858 195.881 152.146 c 1
 239.989 138.278 314.364 116.519 332.918 128.155 c 0
 337.5 131.029 340.04 130.599 337.786 136.242 c 0
 320.838 178.678 271.569 213.261 234.107 236.917 c 0
EndSplineSet
Substitution2: "HehHaaInit subtable" heh.init_HehHaaInit
Substitution2: "HehMeemInit subtable" heh.init_HehMeemInit
Colour: ffff00
EndChar

StartChar: heh.isol
Encoding: 65575 -1 30
Width: 266
VWidth: 0
AnchorPoint: "HamzaBelow" 0 0 basechar 0
AnchorPoint: "HamzaAbove" 0 0 basechar 0
AnchorPoint: "DotBelow" 0 0 basechar 0
AnchorPoint: "DotAbove" 0 0 basechar 0
LayerCount: 2
Fore
SplineSet
96.8682 349.992 m 0
 106.149 356.396 124.754 353.774 137.206 347.712 c 0
 172.771 330.397 212.75 286.437 230.922 245.233 c 0
 245.912 211.244 248.134 157.784 239.753 121.735 c 0
 224.005 53.9932 172.022 1.30859 103.124 0.545898 c 0
 8.43652 -0.510742 -13.1992 77.2129 11.5859 174.521 c 0
 25.1914 227.94 58.9805 288.284 89.4004 323.271 c 0
 94.5352 329.178 87.5869 343.589 96.8682 349.992 c 0
191.564 135.357 m 0
 214.112 152.255 136.672 224.355 97.8232 221.286 c 0
 69.1182 219.434 45.6631 168.668 50.3633 147.038 c 0
 55.2012 124.774 84.4668 109.926 114.718 110.129 c 0
 156.438 110.407 176.529 124.089 191.564 135.357 c 0
EndSplineSet
Substitution2: "'fina' Terminal Forms in Arabic lookup 3 subtable" heh.fina
Substitution2: "'medi' Medial Forms in Arabic lookup 2 subtable" heh.medi
Substitution2: "'init' Initial Forms in Arabic lookup 1 subtable" heh.init
Colour: ffff00
EndChar

StartChar: heh.medi
Encoding: 65576 -1 31
Width: 392
VWidth: 0
AnchorPoint: "HamzaBelow" 0 0 basechar 0
AnchorPoint: "HamzaAbove" 0 0 basechar 0
AnchorPoint: "DotBelow" 0 0 basechar 0
AnchorPoint: "DotAbove" 0 0 basechar 0
LayerCount: 2
Fore
SplineSet
281.414 350.529 m 1
 281.418 350.529 l 1
 281.418 350.529 l 1
 282.33 350.53 283.165 350.382 283.914 350.08 c 0
 329.423 331.74 317.18 144.644 212.1 66.0762 c 1
 273.956 62.7471 337.312 78.8809 391.229 92.4072 c 0
 413.16 97.9092 414.962 6.41504 391.229 1.21582 c 0
 358.945 -5.85645 326.444 -9.61523 295.803 -8.6543 c 1
 336.58 -46.4004 345.435 -211.814 235.121 -230.042 c 0
 192.005 -237.208 121.943 -195.009 105.654 -27.0498 c 1
 76.8555 -23.0117 l 1
 77.0107 25.0146 l 1
 55.2637 13.9824 33.8105 2.09277 0 0 c 0
 -26.0488 -1.6123 -49.5713 90.124 -0.0498047 89.7432 c 0
 25.4824 89.5459 78.7109 98.5635 117.325 114.093 c 1
 149.718 210.071 253.143 350.506 281.414 350.529 c 1
235.931 233.988 m 0
 231.067 233.91 226.283 232.923 221.966 231.017 c 0
 176.508 210.939 147.11 146.528 141.852 120.757 c 1
 185.355 140.72 231.515 155.256 266.553 200.676 c 0
 269.048 203.911 270.284 212.258 267.899 216.519 c 0
 261.244 228.404 248.36 234.189 235.931 233.988 c 0
146.142 -31.5645 m 1
 149.045 -45.5195 163.012 -111.134 211.367 -132.093 c 0
 232.129 -141.093 269.979 -140.247 291.649 -121.185 c 0
 296.466 -117.885 294.057 -110.177 291.229 -105.397 c 0
 273.303 -75.0977 206.362 -41.1982 146.142 -31.5645 c 1
EndSplineSet
MultipleSubs2: "HehMediTooth subtable" heh.medi_BaaHehMedi
Substitution2: "BaaHehInit subtable" heh.medi_BaaHehInit
Substitution2: "LamHehInit subtable" heh.medi_LamHehInit
Substitution2: "BaaHehMedi subtable" heh.medi_BaaHehMedi
Colour: ffff00
EndChar

StartChar: kaf.fina
Encoding: 65577 -1 32
Width: 760
VWidth: 0
AnchorPoint: "HamzaBelow" 0 0 basechar 0
AnchorPoint: "HamzaAbove" 0 0 basechar 0
AnchorPoint: "DotBelow" 0 0 basechar 0
AnchorPoint: "DotAbove" 0 0 basechar 0
LayerCount: 2
Fore
SplineSet
639.377 707.211 m 0
 653.598 547.686 661.598 393.073 681.013 235.681 c 0
 695.408 119.814 749.983 96.8242 760.014 94.0098 c 0
 804.161 81.6211 778.374 -1.6416 760.338 0 c 0
 718.36 3.82129 660.47 15.9561 643.381 174.624 c 1
 622.31 124.903 574.43 60.666 525.442 35.5713 c 0
 443.464 -6.42578 361.234 -24.8096 271.058 -27.7764 c 0
 113.244 -32.9688 42.7373 7.71484 13.6406 62.292 c 0
 -31.6826 147.305 46.2949 268.107 62.4424 286.224 c 0
 72.6348 297.658 92.7324 289.562 77.8271 269.423 c 0
 50.5215 232.529 37.9678 192.009 40.4648 172.246 c 0
 50.3047 93.8457 166.569 67.335 255.049 66.5215 c 0
 292.395 66.1758 536.026 79.4639 602.012 177.532 c 0
 627.339 215.174 594.706 410.375 585.464 636.904 c 0
 585.262 641.869 585.446 645.48 587.065 648.005 c 2
 626.565 709.59 l 2
 632.464 718.784 638.954 711.926 639.377 707.211 c 0
379.13 575.767 m 1
 384.928 575.625 387.033 569.933 385.388 565.339 c 2
 363.913 512.173 l 2
 359.953 502.369 356.304 499.15 352.966 498.459 c 0
 340.21 495.818 320.412 486.548 313.558 477.473 c 0
 307.17 469.016 331.682 455.792 378.886 448.864 c 0
 426.184 441.922 410.987 404.669 408.129 396.684 c 0
 397.506 367.01 363.016 311.683 336.75 304.975 c 0
 308.091 297.655 225.071 306.018 184.526 321.024 c 0
 169.806 326.473 171.243 342.637 183.417 343.443 c 0
 257.759 348.388 325.348 344.126 349.326 356.907 c 0
 355.415 360.153 351.583 367.758 342.803 369.315 c 2
 313.752 375.928 l 2
 282.555 383.029 261.041 405.277 266.55 428.43 c 0
 284.174 502.5 316.291 559.165 379.13 575.767 c 1
EndSplineSet
Substitution2: "LamKafFina subtable" kaf.fina_LamKafFina
Substitution2: "KafKafFina subtable" kaf.fina_KafKafFina
Substitution2: "LamKafIsol subtable" kaf.fina_LamKafIsol
Colour: ffff00
EndChar

StartChar: kaf.init.alt
Encoding: 65578 -1 33
Width: 0
VWidth: 0
AnchorPoint: "HamzaBelow" 0 0 basechar 0
AnchorPoint: "HamzaAbove" 0 0 basechar 0
AnchorPoint: "DotBelow" 0 0 basechar 0
AnchorPoint: "DotAbove" 0 0 basechar 0
LayerCount: 2
Fore
SplineSet
-34.5771 389.416 m 0
 53.8027 480.299 255.888 607.248 426.968 642.303 c 0
 436.658 644.288 441.869 643.959 441.146 633.366 c 0
 439.53 609.85 432.348 581.527 426.471 562.189 c 0
 424.324 555.127 418.586 551.432 413.285 549.989 c 0
 250.657 505.732 53.2988 413.183 -23.4531 338.116 c 0
 -25.9414 335.683 -28.0166 330.963 -24.7871 328.601 c 0
 31.8154 287.189 376.161 291.536 522.886 298.407 c 1
 858.428 319.58 1023.94 355.055 1235.58 352.067 c 0
 1328.11 350.762 1387.78 290.883 1393.66 212.015 c 0
 1394.53 200.362 1389.93 190.52 1386.29 184.299 c 0
 1369.77 156.089 1342.91 114.144 1323.69 99.6436 c 0
 1318.32 95.5957 1309.54 91.9238 1302.55 91.4404 c 0
 1092.89 76.9561 741.057 39.7627 514.42 21.3818 c 0
 306.425 4.5127 -26.6572 2.11914 -177.82 4.06641 c 0
 -214.938 4.54492 -215.745 96.2393 -177.669 94.7725 c 0
 16.5889 87.2852 346.504 87.0293 548.177 108.801 c 0
 748.293 130.405 1266.19 178.772 1320.86 183.581 c 0
 1328.13 184.221 1327.48 189.956 1324.78 196.018 c 0
 1307.19 235.458 1264.14 267.558 1229.77 268.777 c 0
 1003.54 276.804 802.386 235.199 539.817 224.331 c 0
 341.583 215.279 232.808 211.647 36.998 220.215 c 0
 -6.52344 222.119 -74.748 235.88 -93.1211 270.436 c 0
 -98.0811 279.766 -96.9053 291.374 -92.6797 300.703 c 0
 -76.7246 335.935 -62.71 360.487 -34.5771 389.416 c 0
EndSplineSet
EndChar

StartChar: kaf.init
Encoding: 65579 -1 34
Width: 198
VWidth: 0
AnchorPoint: "HamzaBelow" 0 0 basechar 0
AnchorPoint: "HamzaAbove" 0 0 basechar 0
AnchorPoint: "DotBelow" 0 0 basechar 0
AnchorPoint: "DotAbove" 0 0 basechar 0
LayerCount: 2
Fore
SplineSet
514.216 766.593 m 2
 494.876 721.414 l 2
 491.921 714.513 489.909 708.862 483.272 706.993 c 0
 318.144 660.491 171.574 610.045 22.8037 527.676 c 0
 19.4131 525.798 17.3096 521.816 20.6777 516.983 c 0
 99.3848 404.024 190.098 290.235 152.129 122.172 c 0
 132.883 36.9844 38.0645 1.27148 0 0 c 0
 -22.1494 -0.739258 -48.7451 89.0566 -0.136719 89.6865 c 0
 32.502 90.1094 115.601 112.312 131.897 127.428 c 1
 151.826 182.968 73.0791 325.222 43.0469 362.518 c 0
 35.5625 371.812 31.5225 376.446 24.2119 374.189 c 2
 6.18945 368.627 l 2
 -1.26465 366.326 -8.35059 372.668 -12.1074 378.145 c 2
 -55.3555 441.213 l 2
 -61.9502 450.832 -61.1533 461.514 -60.0713 467.484 c 0
 -53.7002 502.633 -33.5146 540.583 -19.626 557.987 c 0
 42.2451 635.513 319.473 746.258 496.395 791.492 c 0
 517.609 796.916 520.717 781.78 514.216 766.593 c 2
EndSplineSet
Substitution2: "KafLamHehIsol subtable" kaf.init_KafLamHehIsol
Substitution2: "KafMeemAlefIsol subtable" kaf.init_KafMeemAlefIsol
Substitution2: "KafDalIsol subtable" kaf.init_KafDalIsol
Substitution2: "KafAlefIsol subtable" kaf.init_KafAlefIsol
Substitution2: "KafRaaIsol subtable" kaf.init_KafRaaIsol
Substitution2: "KafLamInit subtable" kaf.init_KafLamInit
Substitution2: "KafLamAlefIsol subtable" kaf.init_KafLamAlefIsol
Substitution2: "KafMeemIsol subtable" kaf.init_KafMeemIsol
Substitution2: "KafBaaInit subtable" kaf.init_KafBaaInit
Substitution2: "KafLamIsol subtable" kaf.init_KafLamIsol
Substitution2: "KafYaaIsol subtable" kaf.init_KafYaaIsol
Substitution2: "KafMeemInit subtable" kaf.init_KafMeemInit
Substitution2: "KafMeemLamInit subtable" kaf.init_KafMeemLamInit
Substitution2: "KafHehIsol subtable" kaf.init_KafHehIsol
Colour: ffff00
EndChar

StartChar: kaf.isol
Encoding: 65580 -1 35
Width: 556
VWidth: 0
AnchorPoint: "HamzaBelow" 0 0 basechar 0
AnchorPoint: "HamzaAbove" 0 0 basechar 0
AnchorPoint: "DotBelow" 0 0 basechar 0
AnchorPoint: "DotAbove" 0 0 basechar 0
LayerCount: 2
Fore
SplineSet
430.038 782.261 m 0
 436.039 765.536 460.581 731.073 483.168 712.311 c 0
 488.222 708.113 487.184 699.232 483.797 692.814 c 0
 478.188 682.181 460.866 658.796 462.011 652.931 c 0
 488.937 514.976 531.288 319.909 532.607 223.71 c 0
 533.13 185.701 535.986 120.798 503.825 49.377 c 0
 473.137 -18.7734 86.1816 0.439453 11.3408 11.9238 c 0
 6.51953 12.6641 4.64062 17.7314 4.44824 21.0312 c 0
 2.77246 49.8086 -0.192383 78.5654 2.25293 107.409 c 0
 2.52637 110.625 4.81055 113.594 7.27344 112.591 c 0
 68.1631 87.8027 430.792 80.8271 494.489 132.185 c 1
 498.214 151.352 478.752 287.854 466.279 355.083 c 0
 442.551 482.988 412.004 664.131 394.114 717.057 c 0
 391.187 725.721 389.087 733.233 396.545 747.694 c 0
 403.133 760.466 415.206 785.459 415.206 785.459 c 2
 419.151 793.108 426.269 792.762 430.038 782.261 c 0
229.224 573.139 m 1
 235.022 572.996 237.128 567.304 235.482 562.711 c 2
 214.008 509.544 l 2
 210.048 499.741 206.398 496.522 203.061 495.831 c 0
 190.305 493.189 170.506 483.919 163.652 474.845 c 0
 157.264 466.387 181.775 453.164 228.979 446.235 c 0
 276.277 439.293 261.081 402.041 258.223 394.056 c 0
 247.6 364.381 213.109 309.055 186.844 302.347 c 0
 158.185 295.027 75.165 303.389 34.6201 318.396 c 0
 19.8994 323.845 21.3369 340.008 33.5107 340.814 c 0
 107.853 345.76 175.441 341.498 199.42 354.279 c 0
 205.509 357.524 201.677 365.13 192.896 366.687 c 2
 163.845 373.3 l 2
 132.647 380.401 111.134 402.648 116.643 425.801 c 0
 134.267 499.871 166.385 556.537 229.224 573.139 c 1
EndSplineSet
Substitution2: "'fina' Terminal Forms in Arabic lookup 3 subtable" kaf.fina
Substitution2: "'medi' Medial Forms in Arabic lookup 2 subtable" kaf.medi
Substitution2: "'init' Initial Forms in Arabic lookup 1 subtable" kaf.init
Colour: ffff00
EndChar

StartChar: kaf.medi
Encoding: 65581 -1 36
Width: 371
VWidth: 0
AnchorPoint: "HamzaBelow" 0 0 basechar 0
AnchorPoint: "HamzaAbove" 0 0 basechar 0
AnchorPoint: "DotBelow" 0 0 basechar 0
AnchorPoint: "DotAbove" 0 0 basechar 0
LayerCount: 2
Fore
SplineSet
71.4658 587.317 m 0
 139.384 638.746 393.669 741.484 630.396 764.387 c 0
 645.194 765.818 655.698 754.043 650.09 744.599 c 0
 640.08 727.742 620.057 694.031 620.057 694.031 c 2
 617.196 689.212 612.779 687.92 608.644 687.503 c 0
 427.338 669.185 83.4297 560.558 40.9053 515.168 c 1
 144.932 392.985 214.289 167.379 372.009 90.9062 c 0
 409.656 72.6514 390.76 -8.27051 369.966 0 c 0
 256.65 45.0703 186.969 185.546 137.442 253.429 c 1
 133.46 107.446 47.0254 14.7676 1.7959 -1.75 c 0
 -26.7061 -12.1582 -26.1416 87.333 4.93066 88.4023 c 0
 24.3398 89.0713 78.9004 108.183 93.3848 131.838 c 1
 134.253 232.643 82.585 330.145 8.32227 438.662 c 1
 5.58398 447.567 2.18164 456.215 4.29004 467.001 c 0
 17.7734 514.098 39.0107 562.743 71.4658 587.317 c 0
EndSplineSet
Substitution2: "KafAlefFina subtable" kaf.medi_KafAlefFina
Substitution2: "KafMeemAlefFina subtable" kaf.medi_KafMeemAlefFina
Substitution2: "KafBaaMedi subtable" kaf.medi_KafBaaMedi
Substitution2: "KafYaaFina subtable" kaf.medi_KafYaaFina
Substitution2: "KafRaaFina subtable" kaf.medi_KafRaaFina
Substitution2: "KafMeemFina subtable" kaf.medi_KafMeemFina
Substitution2: "KafMeemLamFina subtable" kaf.medi_KafMeemLamFina
Substitution2: "KafKafFina subtable" kaf.medi_KafKafFina
Substitution2: "KafLamMeemMedi subtable" kaf.medi_KafLamMeemMedi
Substitution2: "KafHehFina subtable" kaf.medi_KafHehFina
Substitution2: "KafLamAlefFina subtable" kaf.medi_KafLamAlefFina
Substitution2: "KafMeemMedi subtable" kaf.medi_KafMeemMedi
Substitution2: "KafLamMedi subtable" kaf.medi_KafLamMedi
Colour: ffff00
EndChar

StartChar: lam.fina
Encoding: 65583 -1 37
Width: 582
VWidth: 0
AnchorPoint: "HamzaBelow" 0 0 basechar 0
AnchorPoint: "HamzaAbove" 0 0 basechar 0
AnchorPoint: "DotBelow" 0 0 basechar 0
AnchorPoint: "DotAbove" 0 0 basechar 0
LayerCount: 2
Fore
SplineSet
361.415 573.082 m 1
 368.896 592.666 372.516 619.403 379.321 632.674 c 1
 394.698 653.646 399.567 612.355 403.52 589.117 c 0
 427.012 450.97 451.622 238.777 484.878 182.147 c 0
 504.975 147.926 541.492 103.643 581.031 91.0068 c 0
 614.996 80.1533 597.458 -4.24414 580.831 0 c 0
 517.624 16.1318 466.199 72.1123 453.151 94.4961 c 1
 461.418 6.69727 477.257 -83.8545 462.293 -173.297 c 0
 454.555 -216.236 438.7 -250.503 408.859 -276.402 c 0
 354.307 -323.748 261.565 -357.729 194.34 -359.956 c 0
 138.335 -361.812 76.5068 -339.373 46.0674 -305.699 c 0
 11.4023 -267.35 -6.21973 -221.553 2.59473 -156.089 c 0
 8.32617 -113.521 27.1377 -43.1055 90.5225 42.6123 c 0
 99.0479 54.1426 120.122 45.7646 107.986 26.8232 c 0
 58.8184 -49.917 31.2002 -101.072 57.208 -171.835 c 0
 74.5459 -219.009 130.409 -261.251 236.443 -253.617 c 0
 320.542 -247.563 388.911 -209.731 442.396 -156.627 c 1
 359.264 523.609 l 2
 356.028 544.442 357.854 559.909 361.415 573.082 c 1
EndSplineSet
Substitution2: "KafMeemLamFina subtable" lam.fina_KafMeemLamFina
Substitution2: "KafLamIsol subtable" lam.fina_KafLamIsol
Colour: ffff00
EndChar

StartChar: lam.init
Encoding: 65584 -1 38
Width: 152
VWidth: 0
AnchorPoint: "HamzaBelow" 0 0 basechar 0
AnchorPoint: "HamzaAbove" 0 0 basechar 0
AnchorPoint: "DotBelow" 0 0 basechar 0
AnchorPoint: "DotAbove" 0 0 basechar 0
LayerCount: 2
Fore
SplineSet
1.06445 660.119 m 0
 6.53125 675.082 12.4355 687.784 18.6787 704.626 c 0
 23.1611 716.721 35.501 716.519 39.9453 703.584 c 0
 45.791 686.57 61.9502 652.339 83.4854 630.865 c 0
 89.2725 625.096 89.2871 616.51 82.2207 607.903 c 0
 75.8496 600.146 65.9521 585.02 59.8613 577.188 c 1
 70.3633 498.412 93.0586 296.782 95.9424 273.691 c 0
 104.526 179.455 89.8916 46.2998 0 0 c 0
 -8.14453 -4.19531 -26.9072 84.1621 -4.58789 90.9668 c 0
 24.6201 99.8691 47.5732 114.666 61.0693 135.43 c 1
 58.0283 229.144 24.3408 461.315 10.2197 585.57 c 0
 6.57031 617.69 -4.11035 645.96 1.06445 660.119 c 0
EndSplineSet
Substitution2: "LamHaaHaaInit subtable" lam.init_LamHaaHaaInit
Substitution2: "LamRaaIsol subtable" lam.init_LamRaaIsol
Substitution2: "Lellah subtable" lam.init_Lellah
Substitution2: "LamMeemHaaInit subtable" lam.init_LamMeemHaaInit
Substitution2: "LamYaaIsol subtable" lam.init_LamYaaIsol
Substitution2: "LamMeemIsol subtable" lam.init_LamMeemIsol
Substitution2: "LamHehInit subtable" lam.init_LamHehInit
Substitution2: "LamKafIsol subtable" lam.init_LamKafIsol
Substitution2: "LamHaaMeemInit subtable" lam.init_LamHaaMeemInit
Substitution2: "LamAlefIsol subtable" lam.init_LamAlefIsol
Substitution2: "LamMeemInit subtable" lam.init_LamMeemInit
Substitution2: "LamLamInit subtable" lam.init_LamLamInit
Substitution2: "LamBaaMeemInit subtable" lam.init_LamBaaMeemInit
Substitution2: "LamLamHaaInit subtable" lam.init_LamLamHaaInit
Substitution2: "LamHaaInit subtable" lam.init_LamHaaInit
Substitution2: "LamLamAlefIsol subtable" lam.init_LamLamAlefIsol
Substitution2: "LamHehIsol subtable" lam.init_LamHehIsol
Substitution2: "LamDalIsol subtable" lam.init_LamDalIsol
Colour: ffff00
EndChar

StartChar: lam.isol
Encoding: 65585 -1 39
Width: 502
VWidth: 0
AnchorPoint: "HamzaBelow" 0 0 basechar 0
AnchorPoint: "HamzaAbove" 0 0 basechar 0
AnchorPoint: "DotBelow" 0 0 basechar 0
AnchorPoint: "DotAbove" 0 0 basechar 0
LayerCount: 2
Fore
SplineSet
389.322 705.212 m 0
 393.55 714.455 405.835 715.421 409.562 702.396 c 0
 414.73 684.475 435.316 644.692 450.908 629.89 c 0
 458.436 622.743 456.085 614.598 452.825 609.739 c 0
 447.299 601.504 439.506 590.016 432.032 581.575 c 0
 425.711 574.438 426.93 570.591 427.381 562.618 c 0
 432.336 475.053 444.688 395.727 454.344 312.927 c 0
 459.43 269.315 464.456 230.74 466.33 201.632 c 0
 467.611 181.732 465.944 160.257 465.506 141.939 c 0
 463.08 101.223 453.555 54.3965 437.786 18.4463 c 0
 408.429 -52.9102 276.578 -99.8096 183.077 -103.431 c 0
 107.168 -106.369 28.9062 -79.4854 0.416992 -3.37695 c 0
 -13.252 33.1377 -13.5908 94.5098 -1.42285 139.343 c 0
 10.2031 182.178 45.71 251.979 64.7793 274.14 c 0
 76.6035 287.88 90.5264 274.385 81.8496 259.219 c 0
 70.8232 239.948 30.2725 168.881 33.8984 119.81 c 0
 40.9883 23.8633 129.65 0.987305 215.646 2.38281 c 0
 332.084 4.27246 400.797 55.7686 424.642 90 c 1
 421.027 183.232 403.004 303.244 395.878 359.184 c 0
 384.254 450.433 378.324 517.301 371.645 613.075 c 0
 370.7 626.626 364.098 648.71 370.139 660.959 c 0
 379.67 680.286 385.107 695.997 389.322 705.212 c 0
EndSplineSet
Substitution2: "'fina' Terminal Forms in Arabic lookup 3 subtable" lam.fina
Substitution2: "'medi' Medial Forms in Arabic lookup 2 subtable" lam.medi
Substitution2: "'init' Initial Forms in Arabic lookup 1 subtable" lam.init
Colour: ffff00
EndChar

StartChar: lam.medi
Encoding: 65586 -1 40
Width: 178
VWidth: 0
AnchorPoint: "HamzaBelow" 0 0 basechar 0
AnchorPoint: "HamzaAbove" 0 0 basechar 0
AnchorPoint: "DotBelow" 0 0 basechar 0
AnchorPoint: "DotAbove" 0 0 basechar 0
LayerCount: 2
Back
SplineSet
176.703 77.2402 m 4
 205.085 62.2988 184.793 -14.3828 176.537 -12.8496 c 4
 152.593 -8.40039 111.525 13.8066 83.5576 109.837 c 4
 80.9385 118.833 78.957 121.331 76.7695 121.205 c 4
 73.25 121.003 71.7783 111.782 71.1328 107.501 c 4
 63.8008 58.9014 17.7686 5.21875 0 0 c 4
 -18.0918 -5.31348 -19.8086 84.4336 -0.149414 90.417 c 4
 43.7803 103.786 63.0303 144.161 63.2168 172.104 c 4
 63.5889 227.526 42.9736 478.803 35.5459 647.532 c 4
 34.8389 663.6 40.8232 689.771 56.0479 691.209 c 4
 69.2324 692.455 80.8301 659.612 81.6201 650.258 c 4
 82.5625 639.102 102.068 250.206 110.692 196.645 c 4
 117.905 151.841 138.897 97.1416 176.703 77.2402 c 4
EndSplineSet
Fore
SplineSet
171.317 88.5459 m 0
 200.609 75.4785 185.337 -2.3584 176.999 -1.36426 c 0
 152.816 1.52148 113.394 21.0156 79.2529 115.028 c 0
 76.0547 123.836 73.916 126.2 71.7412 125.932 c 0
 68.2422 125.502 67.3721 116.205 67.0059 111.891 c 0
 62.8438 62.918 17.3926 6.36133 0 0 c 0
 -17.709 -6.47656 -25.2471 82.9697 -6.01758 90.2168 c 0
 36.9521 106.408 57.541 147.948 55.9131 175.844 c 0
 52.6875 231.174 40 480 32.4443 648.474 c 0
 31.7237 664.541 34.9688 690.966 50.0674 693.39 c 0
 63.1436 695.488 76.8486 663.468 78.2441 654.185 c 0
 79.9082 643.113 89.6133 256.303 101.695 203.415 c 0
 111.802 159.173 132.299 105.952 171.317 88.5459 c 0
EndSplineSet
Substitution2: "KafLamHehIsol subtable" lam.medi_KafLamHehIsol
Substitution2: "LamKafFina subtable" lam.medi_LamKafFina
Substitution2: "Lellah subtable" lam.medi_Lellah
Substitution2: "LamMeemMedi subtable" lam.medi_LamMeemMedi
Substitution2: "LamAlefFina subtable" lam.medi_LamAlefFina
Substitution2: "KafLamInit subtable" lam.medi_KafLamInit
Substitution2: "KafLamAlefIsol subtable" lam.medi_KafLamAlefIsol
Substitution2: "LamQafFina subtable" lam.medi_LamQafFina
Substitution2: "LamYaaFina subtable" lam.medi_LamYaaFina
Substitution2: "LamLamInit subtable" lam.medi_LamLamInit
Substitution2: "KafLamMeemMedi subtable" lam.medi_KafLamMeemMedi
Substitution2: "KafLamAlefFina subtable" lam.medi_KafLamAlefFina
Substitution2: "LamHehFina subtable" lam.medi_LamHehFina
Substitution2: "LamLamHaaInit subtable" lam.medi_LamLamHaaInit
Substitution2: "LamWawFina subtable" lam.medi_LamWawFina
Substitution2: "LamLamAlefIsol subtable" lam.medi_LamLamAlefIsol
Substitution2: "KafMeemLamInit subtable" lam.medi_KafMeemLamInit
Substitution2: "LamMeemFina subtable" lam.medi_LamMeemFina
Substitution2: "KafLamMedi subtable" lam.medi_KafLamMedi
Colour: ffff00
EndChar

StartChar: madda
Encoding: 65587 -1 41
Width: 0
VWidth: 0
AnchorPoint: "HamzaBelow" 0 0 basechar 0
AnchorPoint: "HamzaAbove" 0 0 basechar 0
AnchorPoint: "DotBelow" 0 0 basechar 0
AnchorPoint: "DotAbove" 0 0 basechar 0
LayerCount: 2
Fore
SplineSet
417.201 135.542 m 0
 442.455 142.083 450.409 115.143 432.474 100.179 c 0
 361.942 41.3311 171.256 33.8818 83.4736 36.6475 c 1
 78.9697 26.3555 74.1016 16.0342 66.1885 7.13867 c 0
 62.2051 2.66113 55.3398 -1.00879 50.8418 3.06836 c 0
 32.6543 19.5547 21.6768 33.29 4.27637 50.5312 c 0
 -1.79102 56.541 0.71582 66.2383 3.59375 71.1279 c 0
 13.4941 87.9414 16.8379 93.1904 35.6689 114.7 c 0
 44.0625 124.287 56.7002 122.937 63.6016 120.467 c 1
 181.72 101.686 292.988 103.366 417.201 135.542 c 0
EndSplineSet
EndChar

StartChar: meem.fina.alt
Encoding: 65588 -1 42
Width: 0
VWidth: 0
AnchorPoint: "HamzaBelow" 0 0 basechar 0
AnchorPoint: "HamzaAbove" 0 0 basechar 0
AnchorPoint: "DotBelow" 0 0 basechar 0
AnchorPoint: "DotAbove" 0 0 basechar 0
LayerCount: 2
Fore
SplineSet
269.925 90.6309 m 0
 282.412 92.8672 288.956 77.9268 287.282 52.999 c 0
 285.608 28.0713 284.791 1.67188 269.604 0 c 0
 209.876 -6.57422 187.805 -29.0693 187.805 -29.0693 c 1
 235.547 -53.7852 295.92 -88.3916 326.303 -111.471 c 0
 338.559 -120.78 341.799 -129.301 335.928 -147.283 c 0
 327.397 -173.418 312.953 -199.96 309.873 -207.306 c 0
 306.793 -214.651 297.613 -232.896 283.529 -228.618 c 1
 245.939 -205.866 190.779 -206.812 158.525 -207.873 c 0
 107.15 -209.564 38.2393 -220.146 33.0137 -257.658 c 0
 27.7363 -296.417 70.2617 -487.214 88.2715 -569.326 c 0
 98.2354 -614.759 104.558 -660.423 102.354 -708.254 c 0
 100.553 -747.37 72.0039 -751.541 70.3467 -702.184 c 0
 67.5654 -619.39 24.3379 -503.922 7.46582 -401.487 c 1
 -9.07031 -307.762 10.5762 -240.425 10.5762 -240.425 c 1
 32.6953 -149.357 78.0879 -129.068 135.418 -119.972 c 1
 130.352 -117.181 97.9824 -98.9619 85.1084 -93.043 c 0
 79.1865 -90.3203 75.0898 -84.2314 78.2334 -74.7617 c 0
 81.6807 -64.3799 86.1826 -33.8711 97.0342 -23.9443 c 0
 127.041 3.50684 204.33 78.8828 269.925 90.6309 c 0
EndSplineSet
EndChar

StartChar: meem.fina
Encoding: 65589 -1 43
Width: 460
VWidth: 0
AnchorPoint: "HamzaBelow" 0 0 basechar 0
AnchorPoint: "HamzaAbove" 0 0 basechar 0
AnchorPoint: "DotBelow" 0 0 basechar 0
AnchorPoint: "DotAbove" 0 0 basechar 0
LayerCount: 2
Fore
SplineSet
188.002 209.113 m 0
 191.392 209.255 194.875 206.638 199.199 201.548 c 0
 271.921 115.934 387.053 92.9766 459.358 90.4141 c 0
 477.499 89.7715 488.988 77.4736 484.365 49.6016 c 0
 479.743 21.7295 471.47 0.0537109 459.525 0 c 0
 410.519 -0.220703 347.733 12.5879 294.912 39.7139 c 0
 291.417 41.5098 289.706 40.1562 289.829 37.1416 c 0
 291.688 -9.01074 287.949 -74.2119 252.245 -103.57 c 0
 245.491 -109.124 237.784 -112.611 223.922 -102.662 c 0
 198.396 -84.3428 157.798 -18.0371 153.656 57.2656 c 1
 118.063 61.8506 57.4834 17.6875 43.3857 -1.80371 c 0
 21.1807 -32.5059 113.108 -459.031 91.5928 -548.684 c 0
 79.79 -597.868 56.0322 -579.719 54.7939 -542.877 c 0
 51.4287 -442.754 32.4307 -342.818 15.2744 -232.692 c 0
 -4.25781 -107.317 -7.00195 -27.8926 20.6611 42.1953 c 0
 47.8535 111.09 106.485 146.698 162.765 169.714 c 1
 166.426 180.791 171.203 191.063 177.32 200.126 c 0
 181.327 206.062 184.614 208.971 188.002 209.113 c 0
EndSplineSet
Substitution2: "BaaMeemIsol subtable" meem.fina_BaaMeemIsol
Substitution2: "LamMeemIsol subtable" meem.fina_LamMeemIsol
Substitution2: "KafMeemFina subtable" meem.fina_KafMeemFina
Substitution2: "KafMeemIsol subtable" meem.fina_KafMeemIsol
Substitution2: "BaaMeemFina subtable" meem.fina_BaaMeemFina
Substitution2: "LamMeemFina subtable" meem.fina_LamMeemFina
Colour: ffff00
EndChar

StartChar: meem.init
Encoding: 65590 -1 44
Width: 350
VWidth: 0
AnchorPoint: "HamzaBelow" 0 0 basechar 0
AnchorPoint: "HamzaAbove" 0 0 basechar 0
AnchorPoint: "DotBelow" 0 0 basechar 0
AnchorPoint: "DotAbove" 0 0 basechar 0
LayerCount: 2
Fore
SplineSet
232.845 318.326 m 0
 295.938 318.424 317.188 206.621 325.682 151.931 c 0
 326.372 146.416 326.87 140.388 322.911 135.363 c 2
 268.299 66.0215 l 2
 264.896 61.7041 259.77 56.1709 249.202 59.2441 c 0
 204.075 72.3662 155.519 95.3076 113.26 130.694 c 1
 96.4697 91.7354 69.3691 10.8213 0 0 c 0
 -13.8916 -2.16699 -39.8223 85.2568 0 90.7168 c 0
 32.7158 95.2012 61.6504 112.127 88.3193 146.545 c 0
 136.304 208.477 163.171 318.219 232.845 318.326 c 0
201.849 236.846 m 0
 186.567 237.125 170.586 229.414 160.974 220.248 c 1
 179.835 202.118 212.722 182.293 250.768 173.92 c 1
 251.609 196.861 244.198 218.642 219.049 232.447 c 0
 213.699 235.385 207.829 236.736 201.849 236.846 c 0
EndSplineSet
Substitution2: "MeemHaaMeemInit subtable" meem.init_MeemHaaMeemInit
Substitution2: "MeemHaaInit subtable" meem.init_MeemHaaInit
Substitution2: "MeemRaaIsol subtable" meem.init_MeemRaaIsol
Substitution2: "MeemYaaIsol subtable" meem.init_MeemYaaIsol
Substitution2: "MeemMeemInit subtable" meem.init_MeemMeemInit
Colour: ffff00
EndChar

StartChar: meem.isol
Encoding: 65591 -1 45
Width: 352
VWidth: 0
AnchorPoint: "HamzaBelow" 0 0 basechar 0
AnchorPoint: "HamzaAbove" 0 0 basechar 0
AnchorPoint: "DotBelow" 0 0 basechar 0
AnchorPoint: "DotAbove" 0 0 basechar 0
LayerCount: 2
Fore
SplineSet
92.9404 236.244 m 1
 117.459 246.791 147.304 254.291 180.188 258.43 c 1
 162.033 273.719 140.108 287.413 124.396 283.066 c 0
 104.08 277.446 95.417 257.7 92.9404 236.244 c 1
40.5273 199.737 m 1
 51.1934 281.101 92.4873 378.228 139.285 394.531 c 0
 146.454 397.028 157.345 399.158 168.196 399.075 c 0
 174.71 399.025 181.214 398.156 186.916 396.115 c 0
 228.571 381.201 280.058 336.777 318.564 286.949 c 0
 321.012 283.781 327.184 274.546 325.739 266.178 c 0
 322.386 246.783 312.883 185.396 307.679 170.167 c 0
 304.612 161.198 296.023 157.953 290.28 159.313 c 0
 227.58 174.154 115.205 187.706 40.5273 99.1865 c 0
 34.876 92.4854 33.6328 88.1201 35.8936 79.7812 c 0
 74.7754 -63.1309 135.339 -336.402 125.744 -416.575 c 0
 121.953 -448.25 98.0918 -454.031 94.4902 -416.396 c 0
 90.1016 -370.526 72.2002 -280.012 53.2061 -193.228 c 0
 31.4668 -93.9053 -7.99219 26.6348 1.87012 93.0869 c 0
 8.58594 138.355 19.4766 174.527 40.5273 199.737 c 1
EndSplineSet
Substitution2: "'fina' Terminal Forms in Arabic lookup 3 subtable" meem.fina
Substitution2: "'medi' Medial Forms in Arabic lookup 2 subtable" meem.medi
Substitution2: "'init' Initial Forms in Arabic lookup 1 subtable" meem.init
Colour: ffff00
EndChar

StartChar: meem.medi
Encoding: 65592 -1 46
Width: 464
VWidth: 0
AnchorPoint: "HamzaBelow" 0 0 basechar 0
AnchorPoint: "HamzaAbove" 0 0 basechar 0
AnchorPoint: "DotBelow" 0 0 basechar 0
AnchorPoint: "DotAbove" 0 0 basechar 0
LayerCount: 2
Fore
SplineSet
222.706 249.399 m 0
 225.742 250.062 229.414 249.975 231.773 247.735 c 0
 255.695 211.921 287.663 176.57 323.847 149.477 c 0
 364.852 118.847 408.296 100.401 461.091 90.7676 c 0
 487.547 85.9404 481.17 -0.912109 465.222 0.306641 c 0
 414.16 4.20996 365.096 20.5293 323.098 49.6533 c 1
 321.026 22.9062 318.779 -22.084 292.287 -21.0879 c 0
 218.04 -18.3008 141.3 31.8047 104.931 77.9102 c 0
 101.078 81.1895 102.105 80.5605 97.8945 77.0117 c 0
 68.7002 46.1309 35.458 18.7627 0 0 c 0
 -19.9619 -10.5625 -27.7725 89.5127 -3.00977 90.3682 c 0
 39.2979 91.8301 70.7842 99.7715 97.3555 115.269 c 0
 121.635 129.43 137.057 219.288 222.706 249.399 c 0
218.531 175.853 m 0
 217.134 178.862 215.542 178.622 211.884 177.697 c 0
 194.273 173.245 177.622 164.799 169.025 152.696 c 0
 166.114 148.598 166.1 145.075 170.066 141.77 c 0
 195.901 120.235 222.354 106.758 255.741 95.9814 c 0
 259.98 94.6133 264.926 98.0322 262.044 101.653 c 0
 248.561 118.593 232.892 144.902 218.531 175.853 c 0
EndSplineSet
Substitution2: "BaaHaaMeemInit subtable" meem.medi_BaaHaaMeemInit
Substitution2: "KafMeemAlefFina subtable" meem.medi_KafMeemAlefFina
Substitution2: "KafMeemAlefIsol subtable" meem.medi_KafMeemAlefIsol
Substitution2: "BaaBaaMeemInit subtable" meem.medi_BaaBaaMeemInit
Substitution2: "SeenBaaMeemInit subtable" meem.medi_SeenBaaMeemInit
Substitution2: "HaaMeemInit subtable" meem.medi_HaaMeemInit
Substitution2: "LamMeemMedi subtable" meem.medi_LamMeemMedi
Substitution2: "LamMeemHaaInit subtable" meem.medi_LamMeemHaaInit
Substitution2: "SadMeemInit subtable" meem.medi_SadMeemInit
Substitution2: "BaaMeemInit subtable" meem.medi_BaaMeemInit
Substitution2: "MeemHaaMeemInit subtable" meem.medi_MeemHaaMeemInit
Substitution2: "KafMeemLamFina subtable" meem.medi_KafMeemLamFina
Substitution2: "LamHaaMeemInit subtable" meem.medi_LamHaaMeemInit
Substitution2: "LamMeemInit subtable" meem.medi_LamMeemInit
Substitution2: "MeemAlefFina subtable" meem.medi_MeemAlefFina
Substitution2: "BaaMeemHaaInit subtable" meem.medi_BaaMeemHaaInit
Substitution2: "KafLamMeemMedi subtable" meem.medi_KafLamMeemMedi
Substitution2: "LamBaaMeemInit subtable" meem.medi_LamBaaMeemInit
Substitution2: "HehMeemInit subtable" meem.medi_HehMeemInit
Substitution2: "MeemMeemInit subtable" meem.medi_MeemMeemInit
Substitution2: "KafMeemInit subtable" meem.medi_KafMeemInit
Substitution2: "BaaMeemAlefFina subtable" meem.medi_BaaMeemAlefFina
Substitution2: "FaaMeemInit subtable" meem.medi_FaaMeemInit
Substitution2: "KafMeemMedi subtable" meem.medi_KafMeemMedi
Substitution2: "SeenMeemInit subtable" meem.medi_SeenMeemInit
Substitution2: "KafMeemLamInit subtable" meem.medi_KafMeemLamInit
Substitution2: "AynMeemInit subtable" meem.medi_AynMeemInit
Colour: ffff00
EndChar

StartChar: noon.fina.alt
Encoding: 65593 -1 47
Width: 0
VWidth: 0
AnchorPoint: "HamzaBelow" 0 0 basechar 0
AnchorPoint: "HamzaAbove" 0 0 basechar 0
AnchorPoint: "DotBelow" 0 0 basechar 0
AnchorPoint: "DotAbove" 0 0 basechar 0
LayerCount: 2
Fore
SplineSet
932.345 322.12 m 2
 937.113 331.959 945.807 327.816 949.237 321.77 c 0
 962.352 298.658 972.918 273.605 1002.61 269.583 c 0
 1023.76 266.718 1023.92 179.388 1002.73 178.414 c 0
 991.801 177.912 978.684 178.335 972.189 177.875 c 1
 970.364 168.257 963.209 137.438 956.703 120.181 c 0
 944.732 88.4209 922.247 56.792 908.313 38.0322 c 0
 775.93 -140.207 433.243 -195.715 198.692 -198.021 c 0
 -83.5137 -200.795 -235.175 -140.831 -327.542 -85.5947 c 0
 -386.055 -50.6045 -468.099 35.0449 -526.481 91.1855 c 0
 -538.415 102.661 -528.547 120.516 -514.159 109.941 c 0
 -277.861 -63.7344 -8.09961 -100.56 216.592 -98.4697 c 0
 483.181 -95.9893 822.478 -5.41016 919.558 134.291 c 0
 921.44 137 923.812 140.611 923.745 144.129 c 0
 922.912 187.201 912.445 213.774 899.826 242.26 c 0
 897.842 246.74 897.783 250.818 899.754 254.883 c 2
 932.345 322.12 l 2
EndSplineSet
EndChar

StartChar: noon.fina
Encoding: 65594 -1 48
Width: 553
VWidth: 0
AnchorPoint: "HamzaBelow" 0 0 basechar 0
AnchorPoint: "HamzaAbove" 0 0 basechar 0
AnchorPoint: "DotBelow" 0 0 basechar 0
AnchorPoint: "DotAbove" 0 0 basechar 0
LayerCount: 2
Fore
SplineSet
463.714 147.812 m 2
 467.373 156.34 473.843 158.323 480.776 151.156 c 0
 489.721 141.911 501.548 123.11 510.651 109.5 c 1
 518.293 95.9541 536.78 90.9561 551.12 91.4062 c 0
 564.598 91.8301 568.862 2.0127 551.339 1.09375 c 0
 535.465 0.260742 521.433 0 521.433 0 c 1
 508.168 -75.8789 490.899 -148.673 459.62 -215.688 c 1
 417.148 -284.424 323.109 -337.327 195.839 -336.625 c 0
 65.334 -335.905 -3.71777 -254.08 0.276367 -163.031 c 0
 3.02637 -100.339 46.1309 2.5127 76.8076 49.4375 c 0
 82.9424 60.1182 101.683 54.2227 94.4639 38.2812 c 0
 78.8379 3.77832 48.3975 -46.5234 48.4014 -93.0625 c 0
 48.4014 -157.89 86.5068 -225.419 208.151 -227.812 c 0
 322.229 -230.057 430.051 -180.224 459.62 -136.781 c 1
 469.426 -66.957 462.758 9.11426 439.901 63.9062 c 0
 437.509 69.2188 431.98 73.8633 434.964 80.8125 c 2
 463.714 147.812 l 2
EndSplineSet
Substitution2: "BaaNoonFina subtable" noon.fina_BaaNoonFina
Substitution2: "BaaNoonIsol subtable" noon.fina_BaaNoonIsol
Colour: ffff00
EndChar

StartChar: noon.isol.alt
Encoding: 65595 -1 49
Width: 0
VWidth: 0
AnchorPoint: "HamzaBelow" 0 0 basechar 0
AnchorPoint: "HamzaAbove" 0 0 basechar 0
AnchorPoint: "DotBelow" 0 0 basechar 0
AnchorPoint: "DotAbove" 0 0 basechar 0
LayerCount: 2
Fore
SplineSet
944.232 518.814 m 0
 981.754 448.646 999.081 338.034 982.119 266.351 c 0
 973.184 228.588 947.844 178.688 931.27 159.851 c 0
 795.552 5.58398 418.007 -45.6484 166.153 -43.4961 c 0
 -21.0615 -41.8984 -311.161 15.4668 -399.002 69.9668 c 0
 -461.208 108.561 -551.131 191.77 -612.904 252.99 c 0
 -625.531 265.503 -615.454 283.365 -599.371 272.927 c 0
 -378.485 129.59 -54.2549 66.6367 187.017 65.2422 c 0
 473.275 63.5889 838.409 114.598 944.9 263.015 c 0
 946.965 265.892 947.643 269.771 947.407 273.543 c 0
 943.381 337.999 911.457 396.539 895.098 427.968 c 0
 892.668 432.635 893.18 437.123 895.223 441.521 c 2
 931.691 520.001 l 2
 935.062 527.255 940.779 525.273 944.232 518.814 c 0
EndSplineSet
EndChar

StartChar: noon.isol
Encoding: 65596 -1 50
Width: 462
VWidth: 0
AnchorPoint: "HamzaBelow" 0 0 basechar 0
AnchorPoint: "HamzaAbove" 0 0 basechar 0
AnchorPoint: "DotBelow" 0 0 basechar 0
AnchorPoint: "DotAbove" 0 0 basechar 0
LayerCount: 2
Fore
SplineSet
373.633 325.811 m 0
 414.26 252.476 460.723 111.199 440.646 -14.2705 c 0
 420.274 -141.931 311.164 -193.759 208.078 -200.656 c 0
 142.535 -205.041 83.0439 -190.58 46.8877 -157.12 c 0
 -21.6377 -93.7051 -13.8213 39.7588 61.9785 148.043 c 0
 72.5156 163.096 89.1279 151.109 75.0889 134.671 c 0
 54.0615 110.052 19.7949 28.6191 49.9932 -31.0664 c 0
 67.0283 -64.7344 126.911 -103.786 202.599 -99.3506 c 0
 275.012 -95.1074 357.296 -78.6592 413.382 -11.3857 c 0
 414.987 -9.46094 415.078 -5.6377 415.135 -2.98926 c 0
 416.596 64.9824 362.066 193.761 333.529 235.322 c 0
 330.888 239.17 325.99 243.195 329.514 251.84 c 2
 360.07 326.82 l 2
 362.778 333.465 368.451 335.163 373.633 325.811 c 0
EndSplineSet
Substitution2: "'medi' Medial Forms in Arabic lookup 2 subtable" baa.medi
Substitution2: "'init' Initial Forms in Arabic lookup 1 subtable" baa.init
Substitution2: "'fina' Terminal Forms in Arabic lookup 3 subtable" noon.fina
Colour: ffff00
EndChar

StartChar: qaf.fina
Encoding: 65597 -1 51
Width: 546
VWidth: 0
AnchorPoint: "HamzaBelow" 0 0 basechar 0
AnchorPoint: "HamzaAbove" 0 0 basechar 0
AnchorPoint: "DotBelow" 0 0 basechar 0
AnchorPoint: "DotAbove" 0 0 basechar 0
LayerCount: 2
Fore
SplineSet
425.379 215.966 m 0
 464.927 216.572 506.618 134.839 509.376 89.8047 c 1
 521.93 89.9434 531.341 90.2178 545.391 90.165 c 0
 574.963 90.0537 573.921 -0.193359 545.391 -0.499023 c 0
 533.701 -0.624023 520.861 0 507.236 0 c 1
 504.43 -17.0283 500.661 -32.748 494.573 -49.2021 c 1
 459.104 -204.708 295.931 -249.681 225.773 -254.86 c 0
 84.9014 -265.164 27.0664 -205.615 9.6084 -146.101 c 0
 -20.3945 -43.8125 30.4473 37.0605 77.875 115.862 c 0
 87.0586 131.118 102.351 116.926 94.9365 105.141 c 0
 55.8594 43.0244 13.0254 -26.1279 64.5898 -107.151 c 0
 80.9893 -132.916 125.076 -160.062 174.139 -164.085 c 0
 304.576 -174.777 426.64 -131.711 472.127 -42.54 c 1
 475.228 -33.9053 471.487 -10.5195 468.124 0.495117 c 1
 417.413 0.75 370.785 11.7959 351.887 28.2197 c 0
 322.601 53.6699 342.293 104.241 367.781 147.706 c 0
 388.935 183.776 411.682 215.756 425.379 215.966 c 0
436.129 102.479 m 0
 431.489 115.384 418.487 130.599 399.249 128.573 c 0
 394.579 128.081 385.666 123.416 389.282 114.906 c 0
 395.172 101.043 407.409 93.3223 431.484 95.3467 c 0
 436.682 95.7842 438.203 98.1465 436.129 102.479 c 0
EndSplineSet
Substitution2: "LamQafFina subtable" qaf.fina_LamQafFina
Colour: ffff00
EndChar

StartChar: qaf.isol
Encoding: 65598 -1 52
Width: 580
VWidth: 0
AnchorPoint: "HamzaBelow" 0 0 basechar 0
AnchorPoint: "HamzaAbove" 0 0 basechar 0
AnchorPoint: "DotBelow" 0 0 basechar 0
AnchorPoint: "DotAbove" 0 0 basechar 0
LayerCount: 2
Fore
SplineSet
447.092 358.265 m 0
 495.849 358.803 586.734 191.3 556.516 38.9443 c 0
 530.206 -94.1084 396.836 -185.457 243.468 -197.638 c 0
 138.204 -205.997 -21.9658 -154.554 5.74609 19.1865 c 0
 18.1592 97.0127 54.3066 172.906 98.6357 237.188 c 0
 107.36 249.839 126.954 237.399 116.995 222.896 c 0
 85.9717 177.719 51.1104 121.533 49.1963 61.0117 c 0
 46.7627 -15.9551 97.5342 -94.3838 244.779 -93.1455 c 0
 360.85 -92.1699 524.894 3.64453 534.392 73.1289 c 0
 537.472 95.6592 519.88 133.959 508.646 139.359 c 1
 483.697 105.047 422.895 81.3008 382.229 96.5645 c 0
 351.03 108.275 303.562 138.357 343.284 237.437 c 0
 367.213 297.123 399.666 357.741 447.092 358.265 c 0
413.421 245.419 m 0
 403.85 245.282 394.168 239.461 384.539 224.92 c 1
 402.061 205.153 432.384 203.63 451.824 221.67 c 1
 439.467 235.125 426.536 245.607 413.421 245.419 c 0
EndSplineSet
Substitution2: "'medi' Medial Forms in Arabic lookup 2 subtable" faa.medi
Substitution2: "'init' Initial Forms in Arabic lookup 1 subtable" faa.init
Substitution2: "'fina' Terminal Forms in Arabic lookup 3 subtable" qaf.fina
Colour: ffff00
EndChar

StartChar: question-mark
Encoding: 65599 -1 53
Width: 0
VWidth: 0
AnchorPoint: "HamzaBelow" 0 0 basechar 0
AnchorPoint: "HamzaAbove" 0 0 basechar 0
AnchorPoint: "DotBelow" 0 0 basechar 0
AnchorPoint: "DotAbove" 0 0 basechar 0
LayerCount: 2
Fore
SplineSet
34.6055 426.989 m 1
 56.6963 449.464 101.172 448.592 121.588 420.704 c 0
 134.837 402.607 139.191 366.976 117.846 343.649 c 0
 108.296 333.213 93.1816 323.695 72.1348 323.355 c 0
 44.3174 322.907 23.9229 339.81 12.0029 366.939 c 0
 3.64844 385.955 -3.33789 443.747 7.38965 476.298 c 0
 15.1982 499.991 28.0801 531.451 60.04 551.579 c 0
 86.2324 568.074 119.833 576.012 155.947 574.719 c 0
 179.701 573.869 203.941 566.485 227.746 552.716 c 0
 251.877 538.758 271.801 518.301 285.002 500.828 c 0
 323.502 449.866 331.92 387.95 310.543 328.659 c 0
 284.51 256.452 192.44 201.363 169.04 163.868 c 0
 158.363 146.76 154.793 90.7393 170.43 31.2012 c 0
 174.389 16.127 163.454 13.3057 157.749 23.9277 c 0
 126.324 82.4336 137.02 221.352 181.279 328.584 c 0
 202.576 380.184 240.34 429.903 233.578 483.47 c 0
 226.867 536.626 186.013 555.801 153.145 558.983 c 0
 115.75 562.604 84.6152 549.847 72.6875 543.426 c 0
 37.4375 524.45 11.3525 461.655 34.6055 426.989 c 1
237.504 -64.8174 m 0
 237.504 -100.614 208.483 -129.634 172.687 -129.634 c 0
 136.89 -129.634 107.869 -100.614 107.869 -64.8174 c 0
 107.869 -29.0195 136.89 0 172.687 0 c 0
 208.483 0 237.504 -29.0195 237.504 -64.8174 c 0
EndSplineSet
EndChar

StartChar: raa.fina.alt2
Encoding: 65601 -1 54
Width: 0
VWidth: 0
AnchorPoint: "HamzaBelow" 0 0 basechar 0
AnchorPoint: "HamzaAbove" 0 0 basechar 0
AnchorPoint: "DotBelow" 0 0 basechar 0
AnchorPoint: "DotAbove" 0 0 basechar 0
LayerCount: 2
Fore
SplineSet
460.46 230.725 m 0
 488.401 245.048 484.024 142.238 461.122 131.402 c 0
 438.22 120.566 417.162 109.059 399.297 96.6367 c 0
 350.147 62.4629 290.589 -7.81445 254.067 -61.1543 c 0
 202.176 -136.942 165.008 -213.291 86.2744 -197.081 c 0
 30.709 -185.641 -7.00293 -138.331 0.655273 -56.0723 c 0
 5.12793 -8.03809 24.418 50.2637 63.292 123.062 c 0
 71.6074 138.635 87.8818 131.275 81.0947 116.115 c 0
 68.123 87.1357 37.167 35.0566 32.04 -10.1533 c 0
 27.915 -46.5254 40.9854 -90.54 88.29 -104.398 c 0
 151.277 -122.853 185.06 -86.3711 215.951 -33.2686 c 1
 251.056 30.5518 324.414 137.736 376.097 177.495 c 0
 404.496 199.343 432.519 216.401 460.46 230.725 c 0
EndSplineSet
EndChar

StartChar: raa.fina
Encoding: 65602 -1 55
Width: 318
VWidth: -60
AnchorPoint: "HamzaBelow" 0 0 basechar 0
AnchorPoint: "HamzaAbove" 0 0 basechar 0
AnchorPoint: "DotBelow" 0 0 basechar 0
AnchorPoint: "DotAbove" 0 0 basechar 0
LayerCount: 2
Fore
SplineSet
203.747 62.4316 m 0
 213.833 90.2051 223.425 114.771 234.172 142.302 c 0
 238.127 152.723 244.157 152.988 247.43 148.023 c 0
 276.522 103.875 280.936 90.3164 317.301 89.9209 c 0
 325.876 89.8281 341.169 78.1963 341.472 45.6406 c 0
 341.774 13.085 328.293 1.07617 317.26 0 c 0
 316.916 -0.0332031 293.959 -0.489258 283.967 -1.04785 c 0
 281.914 -1.16211 280.017 -2.44531 279.901 -6.03223 c 0
 277.693 -74.6504 252.834 -134.003 208.825 -191.011 c 0
 171.311 -239.606 129.604 -273.371 86.4043 -278.154 c 0
 15.1689 -286.043 -37.8799 -271.879 -100.755 -237.135 c 0
 -115.729 -229.782 -110.276 -214.609 -97 -218.599 c 0
 -13.0586 -239.719 50.5908 -226.674 123.309 -178.601 c 1
 174.408 -143.505 235.411 -86.2275 247.891 -27.3613 c 1
 249.275 -14.3789 245.663 0.908203 206.825 40.3301 c 0
 204.074 43.1221 199.364 50.8242 203.747 62.4316 c 0
EndSplineSet
Substitution2: "SeenYaaFina subtable" raa.fina_PostTooth
Substitution2: "BaaSeenAltInit subtable" raa.fina_PostTooth
Substitution2: "LamRaaIsol subtable" raa.fina_LamRaaIsol
Substitution2: "HaaRaaIsol subtable" raa.fina_HaaRaaIsol
Substitution2: "KafRaaIsol subtable" raa.fina_KafRaaIsol
Substitution2: "KafRaaFina subtable" raa.fina_KafRaaFina
Substitution2: "BaaRaaFina subtable" raa.fina_BaaRaaFina
Substitution2: "MeemRaaIsol subtable" raa.fina_MeemRaaIsol
Substitution2: "BaaRaaIsol subtable" raa.fina_BaaRaaIsol
Colour: ffff00
EndChar

StartChar: raa.isol
Encoding: 65603 -1 56
Width: 338
VWidth: 0
AnchorPoint: "HamzaBelow" 0 0 basechar 0
AnchorPoint: "HamzaAbove" 0 0 basechar 0
AnchorPoint: "DotBelow" 0 0 basechar 0
AnchorPoint: "DotAbove" 0 0 basechar 0
LayerCount: 2
Fore
SplineSet
224.838 308.326 m 2
 226.843 316.394 234.708 313.971 236.914 311.694 c 0
 297.957 248.712 321.569 147.446 313.743 64.1396 c 0
 309.431 18.249 280.12 -50.0801 247.424 -92.668 c 0
 205.777 -146.916 139.282 -184.921 92.1406 -196.323 c 0
 80.8848 -198.547 60.1338 -200.108 44.3047 -195.482 c 0
 -16.749 -177.643 -89.3486 -145.76 -100.745 -138.298 c 1
 -109.207 -134.217 -102.816 -120.484 -93.2734 -123.4 c 0
 -52.1172 -135.977 -14.2549 -142.873 21.2236 -138.494 c 0
 55.5371 -134.26 100.492 -115.279 139.006 -90.3486 c 0
 190.595 -56.9561 251.033 -0.125 278.402 53.7529 c 0
 281.165 59.1904 282.315 63.4629 280.24 69.4775 c 0
 269.252 101.333 250.791 142.432 202.169 200.645 c 0
 199.933 203.314 198.954 204.189 199.882 207.924 c 2
 224.838 308.326 l 2
EndSplineSet
Substitution2: "'fina' Terminal Forms in Arabic lookup 3 subtable" raa.fina
Colour: ffff00
EndChar

StartChar: sad.fina
Encoding: 65604 -1 57
Width: 1130
VWidth: 0
AnchorPoint: "HamzaBelow" 0 0 basechar 0
AnchorPoint: "HamzaAbove" 0 0 basechar 0
AnchorPoint: "DotBelow" 0 0 basechar 0
AnchorPoint: "DotAbove" 0 0 basechar 0
LayerCount: 2
Back
SplineSet
979.674 351.903 m 1
 1034.23 352.754 1071.58 301.719 1088.89 255.274 c 0
 1090.53 249.612 1091.19 244.482 1090.5 238.734 c 0
 1085.86 200.441 1046.03 141.389 1031.54 125.308 c 0
 1014.88 106.805 975.945 81.0508 947.62 67.9131 c 1
 996.22 62.2949 1092.29 79.4512 1130.07 90.1465 c 0
 1158.05 98.0674 1154.97 4.8584 1129.75 0 c 0
 1026.47 -19.8916 886.818 7.50879 818.229 31.5898 c 1
 804.909 29.8857 791.543 28.5273 778.229 27.5117 c 0
 699.906 21.5371 613.9 31.1406 565.261 42.4648 c 1
 554.011 -44.334 538.475 -127.245 507.19 -163.607 c 0
 433.373 -249.523 275.744 -276.996 240.82 -276.967 c 0
 152.039 -275.894 111.369 -267.782 62.2598 -214.966 c 0
 -47.334 -97.1035 47.2812 81.2012 91.4951 131.288 c 0
 108.61 150.677 118.278 130.943 107.611 118.008 c 0
 81.1816 85.9551 47.3818 34.9688 48.2383 -21.4961 c 0
 49.3438 -94.3184 107.992 -173.631 230.415 -178.881 c 0
 310.491 -182.283 489.174 -143.982 529.002 -45.2949 c 0
 531.514 -39.4209 530.95 -36.458 530.345 -31.0283 c 0
 519.826 39.7031 503.454 82.7539 479.435 116.426 c 0
 475.681 121.687 470.881 126.035 473.996 134.16 c 2
 505.479 216.367 l 2
 510.862 230.414 519.58 224.933 523.282 218.609 c 2
 560.114 155.705 l 1
 585.464 139.908 622.617 134.015 668.896 129.882 c 1
 758.53 230.22 910.183 352.522 979.674 351.903 c 1
926.236 233.787 m 0
 815.15 232.951 755.033 163.714 714.986 126.486 c 1
 792.115 123.717 945.991 143.822 1000.85 194.035 c 1
 986.836 211.071 962.377 234.059 926.236 233.787 c 0
EndSplineSet
Fore
SplineSet
979.674 351.903 m 1
 1034.23 352.754 1071.58 301.719 1088.89 255.274 c 0
 1090.53 249.612 1091.19 244.482 1090.5 238.734 c 0
 1085.86 200.441 1046.03 141.389 1031.54 125.308 c 0
 1014.88 106.805 992.325 91.1377 964 78 c 1
 1012.6 72.3818 1092.29 79.4512 1130.07 90.1465 c 0
 1158.05 98.0674 1154.97 4.8584 1129.75 0 c 0
 1026.47 -19.8916 886.818 7.50879 818.229 31.5898 c 1
 804.909 29.8857 791.543 28.5273 778.229 27.5117 c 0
 699.906 21.5371 613.9 31.1406 565.261 42.4648 c 1
 554.011 -44.334 538.475 -127.245 507.19 -163.607 c 0
 433.373 -249.523 275.744 -276.996 240.82 -276.967 c 0
 152.039 -275.894 111.369 -267.782 62.2598 -214.966 c 0
 -47.334 -97.1035 47.2812 81.2012 91.4951 131.288 c 0
 108.61 150.677 118.278 130.943 107.611 118.008 c 0
 81.1816 85.9551 47.3818 34.9688 48.2383 -21.4961 c 0
 49.3438 -94.3184 107.992 -173.631 230.415 -178.881 c 0
 310.491 -182.283 489.174 -143.982 529.002 -45.2949 c 0
 531.514 -39.4209 530.95 -36.458 530.345 -31.0283 c 0
 519.826 39.7031 503.454 82.7539 479.435 116.426 c 0
 475.681 121.687 470.881 126.035 473.996 134.16 c 2
 505.479 216.367 l 2
 510.862 230.414 519.58 224.933 523.282 218.609 c 2
 560.114 155.705 l 1
 585.464 139.908 622.617 134.015 668.896 129.882 c 1
 758.53 230.22 910.183 352.522 979.674 351.903 c 1
926.236 233.787 m 0
 815.15 232.951 755.033 163.714 714.986 126.486 c 1
 792.115 123.717 945.991 143.822 1000.85 194.035 c 1
 986.836 211.071 962.377 234.059 926.236 233.787 c 0
EndSplineSet
Colour: ffff00
EndChar

StartChar: sad.init
Encoding: 65606 -1 58
Width: 665
VWidth: 0
AnchorPoint: "HamzaBelow" 0 0 basechar 0
AnchorPoint: "HamzaAbove" 0 0 basechar 0
AnchorPoint: "DotBelow" 0 0 basechar 0
AnchorPoint: "DotAbove" 0 0 basechar 0
LayerCount: 2
Fore
SplineSet
523.28 285.317 m 0
 553.769 283.827 644.12 238.186 634.438 182.686 c 0
 626.685 138.041 579.286 61.6416 566.445 51.3447 c 0
 473.605 -23.1074 306.879 -26.4873 215.345 -0.905273 c 1
 207.737 -10.4277 193.138 -57.3311 188.168 -82.5801 c 1
 178.735 -100.989 149.603 -90.835 154.494 -69.8809 c 1
 158.152 -36.9561 169.824 -9.82324 179.061 12.6943 c 1
 145.279 27.0605 117.913 45.6709 97.2344 70.9453 c 0
 82.8154 88.5693 78.3896 87.25 68.3877 69.7598 c 0
 48.6318 35.2129 20.7402 6.85254 0 0 c 0
 -14.5 -4.79004 -36.541 82.0674 -0.666992 90.7402 c 0
 39.585 100.472 68.3398 134.063 86.7715 167.102 c 0
 96.8965 185.251 119.01 185.826 131.609 164.671 c 0
 147.628 137.772 183.604 107.742 237.635 93.4043 c 1
 303.118 166.133 436.25 289.571 523.28 285.317 c 0
566.688 132.799 m 0
 533.608 169.289 479.104 183.664 438.753 179.324 c 0
 396.348 174.763 299.21 103.521 279.354 82.9248 c 1
 346.157 72.8086 536.107 86.3154 566.571 122.997 c 1
 570.658 126.141 570.239 128.881 566.688 132.799 c 0
EndSplineSet
Substitution2: "SeenYaaFina subtable" sad.init_PreYaa
Substitution2: "SadHaaInit subtable" sad.init_SadHaaInit
Substitution2: "SadMeemInit subtable" sad.init_SadMeemInit
Substitution2: "SadHaaIsol subtable" sad.init_SadHaaIsol
Colour: ffff00
EndChar

StartChar: sad.isol
Encoding: 65607 -1 59
Width: 1115
VWidth: 0
AnchorPoint: "HamzaBelow" 0 0 basechar 0
AnchorPoint: "HamzaAbove" 0 0 basechar 0
AnchorPoint: "DotBelow" 0 0 basechar 0
AnchorPoint: "DotAbove" 0 0 basechar 0
LayerCount: 2
Fore
SplineSet
973.521 300.073 m 1
 1027.34 301.782 1065.42 257.949 1082.61 212.436 c 0
 1084.27 206.823 1084.96 201.704 1084.3 195.99 c 0
 1079.91 157.936 1046.67 99.9971 1032.38 83.9424 c 0
 983.307 28.832 871.332 -2.73145 763.464 -11.584 c 0
 685.72 -17.9648 610.096 -10.9658 561.727 -0 c 1
 551.052 -86.2617 528.252 -170.64 497.394 -206.93 c 0
 424.579 -292.675 268.198 -320.887 233.514 -321.056 c 0
 145.343 -320.498 99.8262 -313.408 48.4277 -263.483 c 0
 -61.623 -156.575 40.6025 58.1328 88.4492 117.239 c 0
 98.7822 130.003 114.535 115.362 105.43 103.207 c 0
 45.5732 23.2959 -5.88574 -204.531 222.6 -219.707 c 0
 283.002 -223.719 475.323 -196.938 518.408 -89.3398 c 0
 520.868 -83.4932 520.264 -80.5244 519.632 -75.1367 c 0
 508.779 -4.95312 492.248 37.6758 468.199 70.9785 c 0
 464.443 76.1807 459.682 80.4717 462.728 88.5576 c 2
 493.522 170.377 l 2
 498.79 184.358 507.478 178.994 511.19 172.735 c 2
 548.127 110.446 l 1
 573.391 94.9053 618.634 87.4951 660.709 85.9688 c 1
 766.752 193.49 904.508 300.291 973.521 300.073 c 1
921.648 194.141 m 0
 909.185 193.936 897.187 192.046 885.818 189.105 c 0
 824.805 173.318 758.995 124.521 708.24 85.6611 c 1
 820.683 79.1465 943.409 92.1562 1023.49 152.344 c 1
 988.384 184.225 953.502 194.662 921.648 194.141 c 0
EndSplineSet
Substitution2: "'fina' Terminal Forms in Arabic lookup 3 subtable" sad.fina
Substitution2: "'medi' Medial Forms in Arabic lookup 2 subtable" sad.medi
Substitution2: "'init' Initial Forms in Arabic lookup 1 subtable" sad.init
Colour: ffff00
EndChar

StartChar: sad.medi
Encoding: 65608 -1 60
Width: 724
VWidth: 0
AnchorPoint: "HamzaBelow" 0 0 basechar 0
AnchorPoint: "HamzaAbove" 0 0 basechar 0
AnchorPoint: "DotBelow" 0 0 basechar 0
AnchorPoint: "DotAbove" 0 0 basechar 0
LayerCount: 2
Back
SplineSet
536.326 331.92 m 0
 536.326 331.92 l 1
 589.533 343.063 662.931 297.29 674.645 248.34 c 1
 666.065 208.32 647.747 161.052 632.662 137.37 c 0
 614.636 109.074 577.589 86.9111 550.555 64.9219 c 5
 612.583 66.4414 665.24 79.7217 722.4 90.1406 c 0
 752.726 95.6689 748.713 -0.00292969 724.148 -0.420898 c 0
 641.27 -1.83496 556.211 -2.92383 468.154 4.79395 c 1
 399.998 -4.65723 304.873 -3.9707 234.485 10.6084 c 1
 221.499 -25.9014 217.955 -38.4385 214.539 -60.8662 c 0
 210.386 -88.1338 173.64 -88.46 177.833 -55.8545 c 0
 182.554 -19.1475 191.493 0.272461 199.152 22.3115 c 1
 156.766 34.623 132.795 52.6572 107.016 86.2959 c 1
 87.291 77.3477 57.708 20.123 0 0 c 0
 -24.915 -8.68848 -30.373 91.3252 -1.0957 89.6377 c 0
 48.5684 86.7764 85.0352 138.63 106.762 156.835 c 0
 120.293 168.172 126.098 162.615 138.281 149.15 c 0
 157.33 128.094 190.793 98.1641 247.438 93.5166 c 1
 328.726 216.37 466.536 315.455 536.326 331.92 c 0
598.756 192.142 m 0
 572.992 216.395 537.781 228.8 503.079 226.95 c 0
 442.753 222.97 337.946 153.467 293.378 87.6523 c 1
 424.36 83.4336 564.936 149.121 599.24 181.134 c 0
 601.564 183.301 600.547 190.703 598.756 192.142 c 0
EndSplineSet
Fore
SplineSet
536.326 331.92 m 0
 536.326 331.92 l 1
 589.533 343.063 662.931 297.29 674.645 248.34 c 1
 666.065 208.32 647.747 161.052 632.662 137.37 c 0
 614.636 109.074 586 86 562 73 c 1
 624.028 74.5195 665.24 79.7217 722.4 90.1406 c 0
 752.726 95.6689 748.32 3.97602 724.148 -0.420898 c 0
 644 -15 564 -12 468.154 4.79395 c 1
 399.998 -4.65723 304.873 -3.9707 234.485 10.6084 c 1
 221.499 -25.9014 217.955 -38.4385 214.539 -60.8662 c 0
 210.386 -88.1338 173.64 -88.46 177.833 -55.8545 c 0
 182.554 -19.1475 191.493 0.272461 199.152 22.3115 c 1
 156.766 34.623 132.795 52.6572 107.016 86.2959 c 1
 87.291 77.3477 57.708 20.123 0 0 c 0
 -24.915 -8.68848 -30.373 91.3252 -1.0957 89.6377 c 0
 48.5684 86.7764 85.0352 138.63 106.762 156.835 c 0
 120.293 168.172 126.098 162.615 138.281 149.15 c 0
 157.33 128.094 190.793 98.1641 247.438 93.5166 c 1
 328.726 216.37 466.536 315.455 536.326 331.92 c 0
598.756 192.142 m 0
 572.992 216.395 537.781 228.8 503.079 226.95 c 0
 442.753 222.97 337.946 153.467 293.378 87.6523 c 1
 424.36 83.4336 564.936 149.121 599.24 181.134 c 0
 601.564 183.301 600.547 190.703 598.756 192.142 c 0
EndSplineSet
Substitution2: "SeenYaaFina subtable" sad.medi_PreYaa
Colour: ffff00
EndChar

StartChar: seen.fina
Encoding: 65609 -1 61
Width: 1002
VWidth: 0
AnchorPoint: "HamzaBelow" 0 0 basechar 0
AnchorPoint: "HamzaAbove" 0 0 basechar 0
AnchorPoint: "DotBelow" 0 0 basechar 0
AnchorPoint: "DotAbove" 0 0 basechar 0
LayerCount: 2
Fore
SplineSet
877.477 182.766 m 0
 882.144 198.082 897.165 206.426 908.084 189.847 c 0
 931.524 154.256 959.073 109.166 998.895 89.9053 c 0
 1036.19 71.8682 1023.14 -7.47656 998.363 -0.205078 c 0
 927.307 20.6504 905.753 90.832 893.957 112.905 c 0
 892.217 116.162 886.372 116.642 885.145 112.28 c 0
 859.806 22.2207 845.745 -16.1553 811.409 -16.7822 c 0
 774.06 -17.4648 734.986 -1.68359 702.906 28.2783 c 1
 651.36 -28.1367 589.965 -23.0361 561.676 -19.6885 c 1
 559.305 -91.7002 549.832 -142.408 529.77 -189.096 c 1
 529.53 -188.976 529.316 -188.87 529.082 -188.751 c 1
 517.082 -216.74 498.954 -242.596 470.551 -264.096 c 0
 408.962 -310.715 325.8 -349.562 217.426 -349.596 c 0
 136.106 -349.619 91.7217 -326.898 47.3008 -283.502 c 0
 -41.1934 -197.046 11.8672 -42.2637 70.8633 62.8105 c 0
 78.4912 76.3975 96.5293 68.6025 89.7383 54.0928 c 0
 66.6631 4.78906 30.4395 -60.7334 38.9883 -108.814 c 0
 52.2959 -180.474 121.886 -235.902 227.207 -243.314 c 1
 323.704 -245.945 454.549 -211.123 517.363 -119.127 c 1
 533.315 -61.0576 512.529 -2.65527 481.359 46.6426 c 0
 478.921 50.6699 476.925 63.6641 477.684 66.3154 c 0
 485.599 93.9688 501.427 149.275 501.427 149.275 c 2
 504.933 161.522 512.715 159.58 516.484 154.714 c 0
 529.49 137.921 535.44 117.512 542.226 98.4307 c 0
 551.127 73.3994 600.201 74.4717 622.77 76.1855 c 0
 702.038 82.209 719.104 122.479 737.141 172.709 c 0
 744.17 192.285 767.501 182.496 763.567 166.227 c 0
 759.784 150.58 743.456 122.878 764.158 110.265 c 0
 787.349 96.1357 819.216 86.7822 844.613 98.4355 c 0
 857.49 104.345 870.501 159.871 877.477 182.766 c 0
EndSplineSet
Colour: ffff00
EndChar

StartChar: seen.init
Encoding: 65611 -1 62
Width: 524
VWidth: 0
AnchorPoint: "HamzaBelow" 0 0 basechar 0
AnchorPoint: "HamzaAbove" 0 0 basechar 0
AnchorPoint: "DotBelow" 0 0 basechar 0
AnchorPoint: "DotAbove" 0 0 basechar 0
LayerCount: 2
Fore
SplineSet
485.133 285.37 m 0
 488.242 289.755 491.759 286.191 493.789 282.486 c 0
 511.095 253.031 511.236 139.766 468.799 85.9824 c 1
 464.068 78.1973 454.427 72.8047 445.797 71.4082 c 0
 422.363 67.6172 355.79 79.4355 321.487 121.424 c 1
 303.846 75.3721 267.803 35.5684 223.143 22.4785 c 0
 175.429 8.49414 123.572 46.1973 99.7949 74.4648 c 1
 65.002 31.6553 27.3516 6.26855 0 0 c 0
 -20.7217 -4.74902 -36.1895 93.8418 0 98.1211 c 0
 66.7979 106.019 111.702 133.332 149.907 191.42 c 0
 157.6 203.118 168.639 191.396 166.332 185.633 c 0
 161.521 173.618 155.672 158.869 150.383 148.563 c 1
 161.946 127.684 190.967 115.758 231.534 117.228 c 0
 308.453 120.015 328.805 195.33 349.566 252.626 c 0
 353.796 264.3 369.419 257.222 367.264 245.357 c 0
 364.895 232.313 361.082 222.294 356.929 202.461 c 1
 387.353 170.822 454.137 155.581 464.94 171.402 c 0
 470.085 178.936 463.097 214.388 456.248 230.334 c 0
 454.497 234.414 455.845 235.864 458.197 240.188 c 0
 466.092 254.712 475.5 269.977 485.133 285.37 c 0
EndSplineSet
MultipleSubs2: "HehMediTooth subtable" seen.init_PreYaa baa.medi_BaaHehMedi
Substitution2: "SeenYaaFina subtable" seen.init_PreYaa
Substitution2: "SeenBaaMeemInit subtable" seen.init_SeenBaaMeemInit
Substitution2: "SeenHaaInit subtable" seen.init_SeenHaaInit
Substitution2: "SeenHaaIsol subtable" seen.init_SeenHaaIsol
Substitution2: "SeenMeemInit subtable" seen.init_SeenMeemInit
Colour: ffff00
EndChar

StartChar: seen.isol
Encoding: 65612 -1 63
Width: 887
VWidth: 0
AnchorPoint: "HamzaBelow" 0 0 basechar 0
AnchorPoint: "HamzaAbove" 0 0 basechar 0
AnchorPoint: "DotBelow" 0 0 basechar 0
AnchorPoint: "DotAbove" 0 0 basechar 0
LayerCount: 2
Fore
SplineSet
832.259 394.219 m 2
 835.8 408.1 848.556 406.535 854.745 395.97 c 0
 872.329 365.954 871.873 292.906 856.394 251.609 c 0
 837.617 201.515 831.915 186.844 808.835 178.99 c 0
 781.036 169.531 721.415 191.324 700.08 207.283 c 1
 666.617 152.93 636.568 133.341 570.822 138.978 c 1
 565.172 42.2988 550.125 -47.4805 471.364 -113.52 c 1
 409.774 -160.139 326.605 -198.998 218.231 -199.03 c 0
 136.913 -199.055 92.542 -176.325 48.1211 -132.928 c 0
 -40.373 -46.4727 20.9268 122.939 71.6826 213.365 c 0
 79.3096 226.952 97.9619 218.859 90.5547 204.654 c 0
 69.6904 164.637 31.2998 87.8262 39.7939 41.7402 c 0
 53.0049 -29.9365 122.604 -87.5283 228.031 -92.7578 c 0
 325.866 -97.6104 459.294 -59.5195 520.958 35.5977 c 0
 536.296 59.2559 509.254 176.795 485.082 214.339 c 0
 482.03 219.078 479.67 225.567 482.255 231.185 c 0
 493.218 254.998 504.973 276.784 518.261 298.2 c 0
 520.66 302.068 524.386 302.105 527.603 299.11 c 0
 540.381 287.208 558.593 241.322 573.265 237.94 c 0
 598.145 232.206 644.438 237.674 676.561 269.031 c 0
 700.864 292.757 704.373 321.018 714.312 360.208 c 0
 718.936 378.434 737.138 372.419 737.678 362.3 c 0
 738.666 343.704 736.859 330.282 733.912 312.97 c 1
 754.312 295.463 799.447 282.336 822.667 288.704 c 1
 822.848 294.134 819.625 307.157 815.231 312.784 c 0
 812.842 315.846 812.674 317.449 813.759 321.702 c 2
 832.259 394.219 l 2
EndSplineSet
Substitution2: "'fina' Terminal Forms in Arabic lookup 3 subtable" seen.fina
Substitution2: "'medi' Medial Forms in Arabic lookup 2 subtable" seen.medi
Substitution2: "'init' Initial Forms in Arabic lookup 1 subtable" seen.init
Colour: ffff00
EndChar

StartChar: seen.medi
Encoding: 65614 -1 64
Width: 516
VWidth: 0
AnchorPoint: "HamzaBelow" 0 0 basechar 0
AnchorPoint: "HamzaAbove" 0 0 basechar 0
AnchorPoint: "DotBelow" 0 0 basechar 0
AnchorPoint: "DotAbove" 0 0 basechar 0
LayerCount: 2
Fore
SplineSet
517.146 0.866211 m 0
 498.697 6.80664 465.773 30.3809 448.553 74.5391 c 0
 443.285 88.0469 438.115 83.5393 437.126 77.624 c 0
 431 41 405.296 -3.54132 391 -11 c 0
 368 -23 293 -5 274 38 c 1
 260 16 228.009 -18.8086 170 -18 c 0
 115.852 -17.2451 94 27 86.2549 50.543 c 0
 85.4821 52.892 83.1035 52.8926 81.7373 51.3818 c 0
 56.4824 23.4355 37 8 0 0 c 0
 -27.9044 -6.03339 -27.8252 93.668 -2.06641 89.4512 c 0
 17.0166 86.3262 95 88 145.237 157.283 c 0
 153.9 169.23 171.541 160.393 166.815 152.345 c 0
 157.887 137.135 156.83 119.316 158.46 112.049 c 0
 162.158 95.5596 181 78 201.897 78.5547 c 0
 247.987 79.7781 295 110 320.243 166.693 c 0
 327.128 182.157 346.874 171.676 341.927 158.801 c 0
 338.148 148.97 332.834 134.644 331.413 126.142 c 0
 330.841 122.714 329.227 117.886 332.798 113.848 c 0
 348.179 96.458 378.548 88.751 394.604 88.9219 c 0
 404.403 89.0264 408.798 92.9216 412.33 98.6611 c 0
 423 116 432.326 144.459 441.085 163.33 c 0
 446.822 175.694 457.959 170.536 460.689 159.346 c 0
 469.013 125.249 489.311 93.3652 514.853 90.168 c 0
 548.219 85.9893 535.172 -4.93945 517.146 0.866211 c 0
EndSplineSet
MultipleSubs2: "HehMediTooth subtable" seen.medi_PreYaa baa.medi_BaaHehMedi
Substitution2: "SeenYaaFina subtable" seen.medi_PreYaa
Substitution2: "BaaSeenAltInit subtable" seen.medi_BaaSeenAltInit
Substitution2: "BaaSeenInit subtable" seen.medi_BaaSeenInit
Colour: ffff00
EndChar

StartChar: taa.fina
Encoding: 65615 -1 65
Width: 691
VWidth: 0
AnchorPoint: "HamzaBelow" 0 0 basechar 0
AnchorPoint: "HamzaAbove" 0 0 basechar 0
AnchorPoint: "DotBelow" 0 0 basechar 0
AnchorPoint: "DotAbove" 0 0 basechar 0
LayerCount: 2
Fore
SplineSet
258.553 766.192 m 0
 262.589 773.936 271.861 772.534 275.203 765.938 c 0
 287.583 741.502 291.967 715.711 319.113 687.836 c 0
 321.282 685.607 326.348 675.005 319.272 665.787 c 0
 310.749 654.683 308.171 651.437 300.155 640.674 c 0
 296.3 635.496 294.951 629.256 295.577 622.237 c 0
 299.311 580.395 319.286 383.33 315.146 306.027 c 0
 313.543 275.806 300.771 211.907 295.722 187.536 c 1
 350.819 234.282 427.68 285.451 489.266 314.122 c 0
 515.999 326.568 547.364 334.693 572.876 329.285 c 0
 597.924 323.976 627.857 288.899 642.223 257.036 c 0
 645.591 249.564 645.145 235.275 643.672 227.617 c 0
 637.642 196.242 620.583 153.742 598.011 125.526 c 0
 581.729 105.174 547.489 81.4375 509.588 61.8555 c 1
 568.43 64.3486 633.701 78.4102 690.695 89.9453 c 0
 723.089 96.502 712.665 1.38477 690.604 -0 c 0
 616.399 -4.65723 519.986 -2.86523 416.868 8.43555 c 1
 372.091 1.07227 205.053 -11.2598 97.2373 -2.39746 c 0
 92.6621 -2.02148 90.0938 -0.367188 85.8564 2.10449 c 0
 53.8232 20.792 17.2324 60.875 2.90234 91.502 c 0
 0.935547 95.707 0.510742 101.038 7.66211 99.4043 c 0
 60.7119 87.2861 195.83 91.124 207.123 95.7148 c 1
 222.471 110.134 245.654 138.363 273.892 168.658 c 1
 282.996 327.149 258.967 505.926 240.554 662.639 c 0
 239.573 670.99 238.762 678.675 237.494 685.329 c 0
 236.297 691.61 232.518 704.709 234.402 709.847 c 0
 242.992 733.266 249.405 748.645 258.553 766.192 c 0
485.249 226.171 m 0
 481.128 226.198 476.97 225.72 472.725 225.114 c 0
 386.944 212.885 319.594 150.902 260.093 100.054 c 1
 400.206 109.477 512.92 141.42 572.578 167.402 c 1
 563.336 184.92 533.871 225.857 485.249 226.171 c 0
EndSplineSet
Colour: ffff00
EndChar

StartChar: taa.init
Encoding: 65616 -1 66
Width: 534
VWidth: 0
AnchorPoint: "HamzaBelow" 0 0 basechar 0
AnchorPoint: "HamzaAbove" 0 0 basechar 0
AnchorPoint: "DotBelow" 0 0 basechar 0
AnchorPoint: "DotAbove" 0 0 basechar 0
LayerCount: 2
Fore
SplineSet
125.094 708.729 m 4
 129.868 716.422 136.858 712.758 140.215 705.209 c 4
 152.309 678.013 163.067 648.182 183.298 627.23 c 4
 187.974 622.387 186.636 612.604 182.374 607.385 c 4
 172.68 595.518 172.549 594.454 162.383 582.134 c 4
 157.47 576.179 157.141 568.435 157.65 560.581 c 4
 162.498 485.764 169.796 410.136 170.931 340.081 c 4
 171.019 286.626 168.971 230.248 157.998 179.738 c 5
 238.909 244.812 327.319 303.467 375.714 316.526 c 4
 398.565 322.693 419.214 324.242 436.169 317.835 c 4
 462.735 307.797 485.524 280.332 501.307 249.703 c 4
 504.929 242.673 504.478 229.28 502.267 221.35 c 4
 490.33 178.558 475.454 141.883 451.262 106.691 c 5
 436.118 81.5977 381.791 60.3047 352.625 53.4473 c 4
 225.238 23.918 130.453 8.48242 0 0 c 4
 -20.6143 -1.34082 -36.5488 89.4023 -0.476562 91.1221 c 4
 21.541 92.1719 48.5215 93.8467 65.998 95.7109 c 5
 88.1855 117.163 101.438 128.997 122.251 149.857 c 5
 124.977 160.942 128.635 214.347 128.16 227.57 c 4
 126.12 329.625 114.715 537.773 103.921 607.506 c 4
 102.79 616.896 100.945 628.71 99.4785 636.106 c 4
 98.46 641.238 96.8682 648.117 98.9561 653.665 c 4
 103.825 666.604 114.823 692.172 125.094 708.729 c 4
339.772 225.421 m 4
 332.705 225.51 325.685 224.595 318.777 222.542 c 4
 253.556 203.162 171.447 146.021 127.262 99.4629 c 5
 229.861 108.09 347.134 125.797 435.297 157.347 c 4
 438.438 158.471 439.869 161.252 437.885 164.21 c 4
 416.755 195.712 377.936 224.947 339.772 225.421 c 4
EndSplineSet
Colour: ffff00
EndChar

StartChar: taa.isol
Encoding: 65617 -1 67
Width: 704
VWidth: 0
AnchorPoint: "HamzaBelow" 0 0 basechar 0
AnchorPoint: "HamzaAbove" 0 0 basechar 0
AnchorPoint: "DotBelow" 0 0 basechar 0
AnchorPoint: "DotAbove" 0 0 basechar 0
LayerCount: 2
Fore
SplineSet
266.799 645.543 m 0
 271.062 651.85 278.589 650.191 282.561 644.115 c 1
 294.483 618.707 297.828 595.949 327.003 565.478 c 0
 329.363 563.6 332.661 552.122 327.362 544.931 c 0
 320.004 534.943 314.619 528.875 308.345 519.913 c 0
 304.789 514.835 302.47 509.408 303.087 502.771 c 0
 306.767 463.19 326.453 276.754 322.373 203.632 c 0
 320.747 174.226 316.484 109.62 311.84 88.21 c 1
 336.087 107.005 l 1
 475.079 216.649 537.271 235.111 578.94 240.459 c 0
 590.022 241.881 605.348 239.271 625.254 226.402 c 0
 645.16 213.535 679.748 187.901 682.91 160.747 c 0
 688.039 116.695 632.381 27.8457 616.797 11.5205 c 0
 591.978 -14.4766 392.765 -95.4961 166.804 -105.821 c 1
 84.792 -91.8125 35.8584 -44.4277 21.8633 -16.6221 c 0
 12.7783 1.42773 21.1904 2.93945 27.4346 2.03418 c 0
 80.6875 -5.67578 156.787 -4.34375 217.873 0 c 1
 239.501 21.0469 260.994 40.4268 283.706 64.3174 c 1
 292.887 214.539 266.697 389.679 248.503 538.322 c 0
 247.542 546.204 245.531 564.71 242.107 578.539 c 0
 240.947 583.224 241.832 589.308 243.823 594.109 c 0
 251.999 613.818 256.254 626.899 266.799 645.543 c 0
525.712 137.319 m 0
 429.45 135.742 349.157 69.8232 276.383 6.61621 c 1
 372.91 15.5898 513.858 44.8086 605.34 94.6621 c 1
 594.545 116.018 569.842 138.042 525.712 137.319 c 0
EndSplineSet
Substitution2: "'fina' Terminal Forms in Arabic lookup 3 subtable" taa.fina
Substitution2: "'medi' Medial Forms in Arabic lookup 2 subtable" taa.medi
Substitution2: "'init' Initial Forms in Arabic lookup 1 subtable" taa.init
Colour: ffff00
EndChar

StartChar: taa.medi
Encoding: 65618 -1 68
Width: 553
VWidth: 0
AnchorPoint: "HamzaBelow" 0 0 basechar 0
AnchorPoint: "HamzaAbove" 0 0 basechar 0
AnchorPoint: "DotBelow" 0 0 basechar 0
AnchorPoint: "DotAbove" 0 0 basechar 0
LayerCount: 2
Back
SplineSet
58.2988 675.07 m 0
 66.3174 696.3 73.249 711.181 82.5322 729.633 c 0
 86.3877 737.295 95.6182 735.979 99.2617 727.624 c 0
 111.108 700.459 115.208 679.898 140.914 653.222 c 0
 148.291 645.566 148.503 635.13 141.258 626.854 c 0
 132.264 616.578 130.843 614.135 124.059 605.043 c 0
 120.158 599.815 120.046 589.693 120.71 582.713 c 0
 124.667 541.098 145.848 372.229 141.457 295.345 c 0
 139.757 265.287 132.475 199.648 127.123 175.409 c 1
 185.54 221.902 252.289 274.881 317.586 303.396 c 0
 345.93 315.774 379.186 323.854 406.233 318.477 c 0
 432.79 313.195 464.527 278.31 479.76 246.619 c 0
 483.33 239.188 482.856 224.977 481.296 217.36 c 0
 474.903 186.155 456.815 143.886 432.884 115.823 c 0
 415.622 95.5801 390.753 76.4004 351.306 53.6045 c 1
 414.063 53.501 447.768 58.2705 551.338 77.8115 c 0
 582.533 83.6973 574.903 -11.1992 551.278 -12.7471 c 0
 479.339 -17.46 360.541 -12.0645 251.21 -0.825195 c 1
 199.836 -7.1875 51.0791 -4.31055 0 0 c 0
 -31.3184 2.64355 -45.6104 90.3428 0.0302734 90.4707 c 0
 6.55273 90.4893 38.6816 89.7188 45.1826 89.7461 c 1
 60.708 105.193 72.7959 118.146 101.368 148.287 c 1
 106.325 300.702 85.5518 456.717 66.0303 612.579 c 0
 64.9902 620.886 61.1973 651.438 59.0273 659.653 c 0
 57.7285 664.57 56.3633 669.946 58.2988 675.07 c 0
312.113 218.367 m 0
 307.743 218.394 303.311 218.06 298.834 217.316 c 0
 233.423 206.448 146.727 141.583 91.9229 89.0684 c 1
 224.828 93.2227 330.843 122.743 408.091 159.596 c 1
 398.293 177.019 363.664 218.056 312.113 218.367 c 0
EndSplineSet
Fore
SplineSet
58.2988 675.07 m 0
 66.3174 696.3 73.249 711.181 82.5322 729.633 c 0
 86.3877 737.295 95.6182 735.979 99.2617 727.624 c 0
 111.108 700.459 115.208 679.898 140.914 653.222 c 0
 148.291 645.566 148.503 635.13 141.258 626.854 c 0
 132.264 616.578 130.843 614.135 124.059 605.043 c 0
 120.158 599.815 120.046 589.693 120.71 582.713 c 0
 124.667 541.098 145.848 372.229 141.457 295.345 c 0
 139.757 265.287 127.931 202.59 123.128 178.236 c 1
 180.479 226.037 246.015 280.511 310.65 310.494 c 0
 338.707 323.509 371.772 332.338 398.934 327.574 c 0
 425.604 322.894 458.12 288.734 474.065 257.396 c 0
 477.803 250.047 477.649 235.829 476.263 228.179 c 0
 470.576 196.837 453.447 154.17 430.156 125.573 c 0
 413.356 104.946 388.927 85.209 350.005 61.5283 c 1
 412.749 62.8428 446.337 68.3721 549.439 90.248 c 0
 580.493 96.8369 575.01 1.79297 551.426 -0.289062 c 0
 479.611 -6.62598 360.722 -3.91602 251.164 4.85059 c 1
 199.947 -2.6709 51.1631 -3.15527 0 0 c 0
 -31.3701 1.93555 -47.6396 89.2891 -2.01367 90.4482 c 0
 4.50684 90.6143 36.6445 90.5703 43.1436 90.7441 c 1
 58.3154 106.538 70.1084 119.761 97.9922 150.539 c 1
 99.5039 303.027 85.5518 456.717 66.0303 612.579 c 0
 64.9902 620.886 61.1973 651.438 59.0273 659.653 c 0
 57.7285 664.57 56.3633 669.946 58.2988 675.07 c 0
307.1 225.363 m 0
 302.73 225.291 298.307 224.857 293.848 224.012 c 0
 228.699 211.669 143.491 144.862 89.8867 91.1221 c 1
 222.664 98.2783 327.985 130.187 404.381 168.775 c 1
 394.192 185.973 358.645 226.217 307.1 225.363 c 0
EndSplineSet
Colour: ffff00
EndChar

StartChar: waw.fina
Encoding: 65619 -1 69
Width: 434
VWidth: 0
AnchorPoint: "HamzaBelow" 0 0 basechar 0
AnchorPoint: "HamzaAbove" 0 0 basechar 0
AnchorPoint: "DotBelow" 0 0 basechar 0
AnchorPoint: "DotAbove" 0 0 basechar 0
LayerCount: 2
Fore
SplineSet
339.769 229.445 m 1
 339.769 229.445 l 1
 339.758 229.444 l 2
 340.771 229.471 341.766 229.432 342.753 229.369 c 0
 378.931 227.094 407.998 161.369 415.894 92.0566 c 0
 415.883 92.0303 415.863 92.0098 415.863 91.9814 c 2
 415.934 91.9814 l 2
 415.934 92.0088 415.903 92.0303 415.903 92.0566 c 0
 421.207 92.3682 426.424 91.8213 431.486 92 c 0
 463.761 93.1348 447.752 1.00977 430.956 0.396484 c 0
 422.82 0.0986328 416.366 -0.396484 411.694 -0.134766 c 1
 410.897 -3.75684 410.058 -7.24707 409.116 -10.5996 c 0
 346.895 -232.422 199.544 -281.195 146.928 -286.514 c 0
 103.694 -290.883 42.1484 -245.307 7.51172 -222.019 c 0
 -8.14746 -211.49 2.99707 -202.976 13.2744 -208.293 c 0
 138.603 -273.135 322.329 -140.735 386.207 -4.95605 c 0
 386.962 -3.32715 386.683 0.291016 383.495 -0 c 0
 346.331 0.0761719 295.358 3.03516 263.142 22.1221 c 0
 239.885 35.8984 227.943 77.9229 247.557 132.987 c 0
 266.492 186.148 308.403 228.652 339.769 229.445 c 1
360.732 103.408 m 0
 345.695 137.602 313.66 162.972 282.857 129.499 c 0
 278.646 124.926 281.689 122.539 285.283 117.859 c 0
 296.438 103.336 327.469 96.8906 355.763 95.7031 c 0
 358.074 95.6064 363.31 97.5469 360.732 103.408 c 0
EndSplineSet
Substitution2: "LamWawFina subtable" waw.fina_LamWawFina
Colour: ffff00
EndChar

StartChar: waw.isol
Encoding: 65620 -1 70
Width: 438
VWidth: 0
AnchorPoint: "HamzaBelow" 0 0 basechar 0
AnchorPoint: "HamzaAbove" 0 0 basechar 0
AnchorPoint: "DotBelow" 0 0 basechar 0
AnchorPoint: "DotAbove" 0 0 basechar 0
LayerCount: 2
Fore
SplineSet
252.517 216.936 m 0
 270.308 263.506 292.108 312.21 334.708 312.523 c 0
 373.232 312.802 410.694 249.004 419.9 180.494 c 0
 425.677 137.51 414.439 85.9346 406.935 56.127 c 0
 370.532 -88.4424 256.743 -192.281 206.415 -198.029 c 0
 156.086 -203.776 46.2998 -182.778 9.74805 -167.705 c 0
 -4.45605 -161.848 -2.14355 -147.778 13.1104 -149.704 c 0
 67.4141 -156.558 108.886 -155.651 161.623 -143.366 c 0
 214.951 -130.944 357.748 -12.3105 379.099 53.6318 c 1
 376.722 73.6182 371.965 95.959 366.65 99.0742 c 1
 343.281 63.2773 312.319 51.3584 271.111 69.6797 c 0
 225.548 89.9385 230.749 159.957 252.517 216.936 c 0
311.801 203.648 m 0
 301.991 204.041 291.601 197.872 280.523 183.666 c 1
 299.279 158.717 325.533 166.365 342.99 179.322 c 1
 333.28 194.35 322.917 203.205 311.801 203.648 c 0
EndSplineSet
Substitution2: "'fina' Terminal Forms in Arabic lookup 3 subtable" waw.fina
Colour: ffff00
EndChar

StartChar: yaa.fina
Encoding: 65622 -1 71
Width: 526
VWidth: -142
AnchorPoint: "HamzaBelow" 0 0 basechar 0
AnchorPoint: "HamzaAbove" 0 0 basechar 0
AnchorPoint: "DotBelow" 0 0 basechar 0
AnchorPoint: "DotAbove" 0 0 basechar 0
LayerCount: 2
Fore
SplineSet
2.32129 -115.69 m 0
 7.03906 -45.6641 44.9941 47.4795 72.2852 84.5781 c 0
 80.7803 96.126 99.8164 88.5938 90.4629 71.7412 c 0
 69.0947 33.2383 14.3496 -61.2812 49.207 -145.724 c 0
 70.0869 -196.306 137.466 -250.086 251.889 -246.079 c 0
 355.25 -242.46 470.579 -203.695 552.872 -130.777 c 1
 578.632 -96.4268 435.993 -103.43 380.076 -89.459 c 1
 342.825 -77.4131 350.617 -32.9941 366.956 -5.6416 c 0
 396.975 44.6113 470.994 75.6357 524.535 90.0068 c 0
 539.562 94.04 551.828 83.2979 549.061 57.4639 c 0
 546.292 31.6299 535.963 1.15039 524.477 0 c 0
 505.9 -1.86133 426.454 3.22656 425.737 -26.2168 c 1
 491.896 -28.9307 592.304 -32.874 607.329 -88.6953 c 0
 615.131 -117.68 587.12 -176.69 570.4 -196.957 c 0
 515.457 -263.561 351.596 -341.217 245.782 -340.269 c 0
 53.1094 -338.541 -6.5293 -247.087 2.32129 -115.69 c 0
EndSplineSet
Substitution2: "SeenYaaFina subtable" yaa.fina_PostTooth
Substitution2: "BaaSeenAltInit subtable" yaa.fina_PostTooth
Substitution2: "BaaYaaFina subtable" yaa.fina_BaaYaaFina
Substitution2: "KafYaaFina subtable" yaa.fina_KafYaaFina
Substitution2: "LamYaaIsol subtable" yaa.fina_LamYaaIsol
Substitution2: "AynYaaIsol subtable" yaa.fina_AynYaaIsol
Substitution2: "FaaYaaIsol subtable" yaa.fina_FaaYaaIsol
Substitution2: "AynYaaFina subtable" yaa.fina_AynYaaFina
Substitution2: "LamYaaFina subtable" yaa.fina_LamYaaFina
Substitution2: "BaaBaaYaaIsol subtable" yaa.fina_BaaBaaYaaIsol
Substitution2: "MeemYaaIsol subtable" yaa.fina_MeemYaaIsol
Substitution2: "HaaYaaIsol subtable" yaa.fina_HaaYaaIsol
Substitution2: "BaaYaaIsol subtable" yaa.fina_BaaYaaIsol
Substitution2: "FaaYaaFina subtable" yaa.fina_FaaYaaFina
Substitution2: "KafYaaIsol subtable" yaa.fina_KafYaaIsol
Colour: ffff00
EndChar

StartChar: yaa.isol
Encoding: 65623 -1 72
Width: 658
VWidth: 0
AnchorPoint: "HamzaBelow" 0 0 basechar 0
AnchorPoint: "HamzaAbove" 0 0 basechar 0
AnchorPoint: "DotBelow" 0 0 basechar 0
AnchorPoint: "DotAbove" 0 0 basechar 0
LayerCount: 2
Fore
SplineSet
608.886 287.979 m 0
 550.858 320.859 411.985 279.229 373.698 169.503 c 0
 371.035 161.869 373.091 148.201 375.299 143.082 c 0
 408.595 65.8789 599.597 109.656 615.395 44.4004 c 0
 628.171 -8.37988 590.742 -60.8047 570.169 -78.1855 c 0
 487.125 -148.348 351.538 -200.799 243.06 -200.645 c 0
 33.6426 -200.349 -17.0352 -95.9688 4.72754 37.3037 c 0
 15.415 102.749 51.8066 184.697 102.384 246.011 c 0
 113.267 259.203 127.453 243.565 117.743 229.854 c 0
 85.9121 184.901 21.1445 86.1025 53.29 4.12305 c 0
 73.7695 -48.1055 128.833 -108.896 253.908 -106.56 c 0
 345.807 -104.843 473.561 -79.7197 561.448 -9.14551 c 0
 566.84 -4.81543 568.214 0.944336 563.197 5.3584 c 0
 530.853 33.8125 360.436 5.94043 335.34 77.1719 c 0
 294.321 193.598 454.724 382.62 570.173 398.477 c 0
 600.629 402.66 634.597 387.91 637.574 360.633 c 0
 640.931 329.892 635.904 272.668 608.886 287.979 c 0
EndSplineSet
Substitution2: "'medi' Medial Forms in Arabic lookup 2 subtable" baa.medi
Substitution2: "'init' Initial Forms in Arabic lookup 1 subtable" baa.init
Substitution2: "'fina' Terminal Forms in Arabic lookup 3 subtable" yaa.fina
Colour: ffff00
EndChar

StartChar: ayn.init_AynMeemInit
Encoding: 65624 -1 109
Width: 508
VWidth: 0
AnchorPoint: "HamzaBelow" 0 0 basechar 0
AnchorPoint: "HamzaAbove" 0 0 basechar 0
AnchorPoint: "DotBelow" 0 0 basechar 0
AnchorPoint: "DotAbove" 0 0 basechar 0
AnchorPoint: "cursive" 20 212 exit 0
LayerCount: 2
Back
SplineSet
100.771 438.418 m 1
 100.772 438.418 l 1
 100.772 438.418 l 1
 119.759 485.083 198.439 576.672 282.925 574.89 c 0
 334.153 573.81 366.623 533.036 387.477 505.461 c 0
 397.461 492.262 382.597 485.109 374.789 487.732 c 0
 323.803 504.866 236.434 509.186 138.451 446.864 c 0
 135.017 443.785 133.382 439.315 135.915 435.202 c 0
 151.399 410.058 193.562 367.411 270.932 352.204 c 1
 331.691 347.414 391.417 379.654 452.682 410.442 c 0
 471.899 420.099 485.821 401.941 478.012 389.733 c 2
 447.081 341.376 l 2
 444.973 337.213 436.529 328.908 432.958 327.505 c 0
 325.77 285.381 194.426 247.614 87.7998 207.73 c 0
 72.7256 202.092 40.3613 189.151 25.5215 187.459 c 0
 9.55273 185.637 1.98242 183.555 -13.8271 194.918 c 0
 -29.8115 206.406 -30.7178 217.49 -23.4434 221.175 c 0
 41.249 253.943 113.105 275.785 152.663 292.91 c 1
 66.2568 352.893 85.2197 400.198 100.771 438.418 c 1
-23.4434 221.175 m 0
 19.5977 244.313 58.0215 237.217 87.7998 207.73 c 0
 117.889 177.936 137.401 141.894 138.997 124.241 c 0
 141.972 91.333 125.183 46.4268 99.6191 33.6973 c 0
 67.2158 17.5605 -39.9248 62.3613 -68.0322 87.0322 c 1
 -81.4658 57.0352 -120.54 6.20996 -150 0 c 1
 -169.859 0 -178.97 19.3818 -181.94 51.0332 c 0
 -184.913 82.708 -173.873 91.2002 -150.08 91.1836 c 0
 -122.131 91.1631 -88.9551 98.9453 -75.835 112.896 c 1
 -72.7676 152.768 -63.085 199.864 -23.4434 221.175 c 0
77.5322 104.662 m 1
 69.6836 131.506 44.6719 154.719 18.0479 167.062 c 0
 -2.26562 176.479 -22.5049 180.837 -42.7773 168.148 c 1
 -45.6562 165.121 -45.417 159.934 -41.498 157.036 c 0
 -11.5547 134.898 51.0186 107.654 77.5322 104.662 c 1
EndSplineSet
Fore
SplineSet
100.771 438.418 m 1
 100.772 438.418 l 1
 100.772 438.418 l 1
 119.759 485.083 198.439 576.672 282.925 574.89 c 0
 334.153 573.81 366.623 533.036 387.477 505.461 c 0
 397.461 492.262 382.597 485.109 374.789 487.732 c 0
 323.803 504.866 236.434 509.186 138.451 446.864 c 0
 135.017 443.785 133.382 439.315 135.915 435.202 c 0
 151.399 410.058 193.562 367.411 270.932 352.204 c 1
 331.691 347.414 391.417 379.654 452.682 410.442 c 0
 471.899 420.099 485.821 401.941 478.012 389.733 c 2
 447.081 341.376 l 2
 444.973 337.213 436.529 328.908 432.958 327.505 c 0
 325.77 285.381 194.426 247.614 87.7998 207.73 c 0
 72.7256 202.092 40.3613 189.151 25.5215 187.459 c 0
 9.55273 185.637 1.98242 183.555 -13.8271 194.918 c 0
 -29.8115 206.406 -30.7178 217.49 -23.4434 221.175 c 0
 41.249 253.943 113.105 275.785 152.663 292.91 c 1
 66.2568 352.893 85.2197 400.198 100.771 438.418 c 1
EndSplineSet
Colour: ff00
EndChar

StartChar: meem.medi_AynMeemInit
Encoding: 65625 -1 110
Width: 309
VWidth: 0
AnchorPoint: "HamzaBelow" 0 0 basechar 0
AnchorPoint: "HamzaAbove" 0 0 basechar 0
AnchorPoint: "DotBelow" 0 0 basechar 0
AnchorPoint: "DotAbove" 0 0 basechar 0
AnchorPoint: "cursive" 170 212 entry 0
LayerCount: 2
Back
SplineSet
250.771 438.418 m 1
 250.772 438.418 l 1
 250.772 438.418 l 1
 269.759 485.083 348.439 576.672 432.925 574.89 c 0
 484.153 573.81 516.623 533.036 537.477 505.461 c 0
 547.461 492.262 532.597 485.109 524.789 487.732 c 0
 473.803 504.866 386.434 509.186 288.451 446.864 c 0
 285.017 443.785 283.382 439.315 285.915 435.202 c 0
 301.399 410.058 343.563 367.411 420.932 352.204 c 1
 481.691 347.414 541.417 379.654 602.682 410.442 c 0
 621.899 420.099 635.821 401.941 628.012 389.733 c 2
 597.081 341.376 l 2
 594.973 337.213 586.529 328.908 582.958 327.505 c 0
 475.77 285.381 344.426 247.614 237.8 207.73 c 0
 222.726 202.092 190.361 189.151 175.521 187.459 c 0
 159.553 185.637 151.982 183.555 136.173 194.918 c 0
 120.188 206.406 119.282 217.49 126.557 221.175 c 0
 191.249 253.943 263.105 275.785 302.663 292.91 c 1
 216.257 352.893 235.22 400.198 250.771 438.418 c 1
126.557 221.175 m 0
 169.598 244.313 208.021 237.217 237.8 207.73 c 0
 267.889 177.936 287.401 141.894 288.997 124.241 c 0
 291.972 91.333 275.183 46.4268 249.619 33.6973 c 0
 217.216 17.5605 110.075 62.3613 81.9678 87.0322 c 1
 68.5342 57.0352 29.46 6.20996 0 0 c 1
 -19.8594 0 -28.9697 19.3818 -31.9404 51.0332 c 0
 -34.9131 82.708 -23.873 91.2002 -0.0800781 91.1836 c 0
 27.8691 91.1631 61.0449 98.9453 74.165 112.896 c 1
 77.2324 152.768 86.915 199.864 126.557 221.175 c 0
227.532 104.662 m 1
 219.684 131.506 194.672 154.719 168.048 167.062 c 0
 147.734 176.479 127.495 180.837 107.223 168.148 c 1
 104.344 165.121 104.583 159.934 108.502 157.036 c 0
 138.445 134.898 201.019 107.654 227.532 104.662 c 1
EndSplineSet
Fore
SplineSet
126.557 221.175 m 0
 169.598 244.313 208.021 237.217 237.8 207.73 c 0
 267.889 177.936 287.401 141.894 288.997 124.241 c 0
 291.972 91.333 275.183 46.4268 249.619 33.6973 c 0
 217.216 17.5605 110.075 62.3613 81.9678 87.0322 c 1
 68.5342 57.0352 29.46 6.20996 0 0 c 1
 -19.8594 0 -28.9697 19.3818 -31.9404 51.0332 c 0
 -34.9131 82.708 -23.873 91.2002 -0.0800781 91.1836 c 0
 27.8691 91.1631 61.0449 98.9453 74.165 112.896 c 1
 77.2324 152.768 86.915 199.864 126.557 221.175 c 0
227.532 104.662 m 1
 219.684 131.506 194.672 154.719 168.048 167.062 c 0
 147.734 176.479 127.495 180.837 107.223 168.148 c 1
 104.344 165.121 104.583 159.934 108.502 157.036 c 0
 138.445 134.898 201.019 107.654 227.532 104.662 c 1
EndSplineSet
Colour: ff00
EndChar

StartChar: kaf.init_KafHehIsol
Encoding: 65626 -1 111
Width: 258
VWidth: 0
AnchorPoint: "HamzaBelow" 0 0 basechar 0
AnchorPoint: "HamzaAbove" 0 0 basechar 0
AnchorPoint: "DotBelow" 0 0 basechar 0
AnchorPoint: "DotAbove" 0 0 basechar 0
AnchorPoint: "cursive" -14 23 exit 0
LayerCount: 2
Back
SplineSet
579.499 921.244 m 4
 589.545 925.018 601.208 917.275 597.148 900.829 c 4
 592.483 881.934 586.721 855.521 582.991 843.265 c 4
 580.208 834.117 575.099 830.546 568.831 828.458 c 4
 362.559 759.747 74.1621 658.344 -29.0801 586.729 c 5
 17.376 550.348 254.4 296.005 206.255 75.209 c 4
 175.766 -64.6162 3.00879 -51.4385 -20.7979 -34.9424 c 4
 -61.2754 -6.89453 -62.5459 120.666 0.4375 73.3066 c 4
 43.3291 41.0557 122.585 66.5605 177.163 114.796 c 5
 162.449 234.506 43.0439 385.095 -10.5059 441.789 c 4
 -12.8818 444.304 -15.3633 445.263 -20.25 440.954 c 6
 -30.5869 431.852 l 6
 -34.2324 428.637 -39.3408 429.061 -42.666 432.823 c 6
 -90.3486 486.797 l 6
 -94.9365 491.987 -90.9541 560.602 -77.9287 596.876 c 5
 -61.8711 626.02 -45.5469 656.209 -16.583 673.857 c 4
 167.438 785.983 412.771 858.615 579.499 921.244 c 4
0.4375 73.3066 m 4
 31.9404 49.627 3.56836 -50.7373 -20.7979 -34.9424 c 4
 -74.2256 -0.308594 -92.2168 109.262 -96.6914 135.722 c 5
 -106.901 94.3613 -115.833 79.1621 -120.626 70.8027 c 4
 -129.257 55.4414 -136.365 50.2832 -146.288 47.9033 c 4
 -190.366 40.6279 -260.134 46.6719 -271.705 57.2578 c 4
 -279.227 64.1377 -293.532 81.5332 -286.582 100.217 c 4
 -280.802 115.755 -262.991 157.42 -259.401 166.423 c 4
 -252.859 182.83 -241.494 194.181 -241.494 194.181 c 5
 -206.967 226.784 -168.449 251.113 -125.147 270.272 c 5
 -129.979 309.381 l 6
 -130.484 315.072 -131.399 327.845 -128.578 337.223 c 5
 -107.824 381.899 l 5
 -94.3604 395.397 -95.1172 377.235 -91.6523 368.466 c 5
 -91.6523 368.466 -75.0186 237.739 -49.2529 152.28 c 4
 -42.9941 131.521 -28.8379 95.3125 0.4375 73.3066 c 4
-113.957 219.924 m 5
 -141.236 214.354 -205.508 189.56 -229.896 145.38 c 5
 -202.995 122.895 -142.716 131.168 -119.582 139.312 c 4
 -89.6064 149.865 -112.754 200.361 -113.957 219.924 c 5
EndSplineSet
Fore
SplineSet
579.499 921.244 m 0
 589.545 925.018 601.208 917.275 597.148 900.829 c 0
 592.483 881.934 586.721 855.521 582.991 843.265 c 0
 580.208 834.117 575.099 830.546 568.831 828.458 c 0
 362.559 759.747 74.1621 658.344 -29.0801 586.729 c 1
 17.376 550.348 254.4 296.005 206.255 75.209 c 0
 175.766 -64.6162 3.00879 -51.4385 -20.7979 -34.9424 c 0
 -61.2754 -6.89453 -62.5459 120.666 0.4375 73.3066 c 0
 43.3291 41.0557 122.585 66.5605 177.163 114.796 c 1
 162.449 234.506 43.0439 385.095 -10.5059 441.789 c 0
 -12.8818 444.304 -15.3633 445.263 -20.25 440.954 c 2
 -30.5869 431.852 l 2
 -34.2324 428.637 -39.3408 429.061 -42.666 432.823 c 2
 -90.3486 486.797 l 2
 -94.9365 491.987 -90.9541 560.602 -77.9287 596.876 c 1
 -61.8711 626.02 -45.5469 656.209 -16.583 673.857 c 0
 167.438 785.983 412.771 858.615 579.499 921.244 c 0
EndSplineSet
Colour: ff00
EndChar

StartChar: heh.fina_KafHehIsol
Encoding: 65627 -1 112
Width: 322
VWidth: 0
AnchorPoint: "HamzaBelow" 0 0 basechar 0
AnchorPoint: "HamzaAbove" 0 0 basechar 0
AnchorPoint: "DotBelow" 0 0 basechar 0
AnchorPoint: "DotAbove" 0 0 basechar 0
AnchorPoint: "cursive" 307 23 entry 0
LayerCount: 2
Back
SplineSet
900.499 921.244 m 0
 910.545 925.018 922.208 917.275 918.148 900.829 c 0
 913.483 881.934 907.721 855.521 903.991 843.265 c 0
 901.208 834.117 896.099 830.546 889.831 828.458 c 0
 683.559 759.747 395.162 658.344 291.92 586.729 c 1
 338.376 550.348 575.4 296.005 527.255 75.209 c 0
 496.766 -64.6162 324.009 -51.4385 300.202 -34.9424 c 0
 259.725 -6.89453 258.454 120.666 321.438 73.3066 c 0
 364.329 41.0557 443.585 66.5605 498.163 114.796 c 1
 483.449 234.506 364.044 385.095 310.494 441.789 c 0
 308.118 444.304 305.637 445.263 300.75 440.954 c 2
 290.413 431.852 l 2
 286.768 428.637 281.659 429.061 278.334 432.823 c 2
 230.651 486.797 l 2
 226.063 491.987 230.046 560.602 243.071 596.876 c 1
 259.129 626.02 275.453 656.209 304.417 673.857 c 0
 488.438 785.983 733.771 858.615 900.499 921.244 c 0
321.438 73.3066 m 0
 352.94 49.627 324.568 -50.7373 300.202 -34.9424 c 0
 246.774 -0.308594 228.783 109.262 224.309 135.722 c 1
 214.099 94.3613 205.167 79.1621 200.374 70.8027 c 0
 191.743 55.4414 184.635 50.2832 174.712 47.9033 c 0
 130.634 40.6279 60.8662 46.6719 49.2949 57.2578 c 0
 41.7734 64.1377 27.4678 81.5332 34.418 100.217 c 0
 40.1982 115.755 58.0088 157.42 61.5986 166.423 c 0
 68.1406 182.83 79.5059 194.181 79.5059 194.181 c 1
 114.033 226.784 152.551 251.113 195.853 270.272 c 1
 191.021 309.381 l 2
 190.516 315.072 189.601 327.845 192.422 337.223 c 1
 213.176 381.899 l 1
 226.64 395.397 225.883 377.235 229.348 368.466 c 1
 229.348 368.466 245.981 237.739 271.747 152.28 c 0
 278.006 131.521 292.162 95.3125 321.438 73.3066 c 0
207.043 219.924 m 1
 179.764 214.354 115.492 189.56 91.1045 145.38 c 1
 118.005 122.895 178.284 131.168 201.418 139.312 c 0
 231.394 149.865 208.246 200.361 207.043 219.924 c 1
EndSplineSet
Fore
SplineSet
321.438 73.3066 m 0
 352.94 49.627 324.568 -50.7373 300.202 -34.9424 c 0
 246.774 -0.308594 228.783 109.262 224.309 135.722 c 1
 214.099 94.3613 205.167 79.1621 200.374 70.8027 c 0
 191.743 55.4414 184.635 50.2832 174.712 47.9033 c 0
 130.634 40.6279 60.8662 46.6719 49.2949 57.2578 c 0
 41.7734 64.1377 27.4678 81.5332 34.418 100.217 c 0
 40.1982 115.755 58.0088 157.42 61.5986 166.423 c 0
 68.1406 182.83 79.5059 194.181 79.5059 194.181 c 1
 114.033 226.784 152.551 251.113 195.853 270.272 c 1
 191.021 309.381 l 2
 190.516 315.072 189.601 327.845 192.422 337.223 c 1
 213.176 381.899 l 1
 226.64 395.397 225.883 377.235 229.348 368.466 c 1
 229.348 368.466 245.981 237.739 271.747 152.28 c 0
 278.006 131.521 292.162 95.3125 321.438 73.3066 c 0
207.043 219.924 m 1
 179.764 214.354 115.492 189.56 91.1045 145.38 c 1
 118.005 122.895 178.284 131.168 201.418 139.312 c 0
 231.394 149.865 208.246 200.361 207.043 219.924 c 1
EndSplineSet
Colour: ff00
EndChar

StartChar: lam.init_LamDalIsol
Encoding: 65628 -1 113
Width: 138
VWidth: -60
AnchorPoint: "HamzaBelow" 0 0 basechar 0
AnchorPoint: "HamzaAbove" 0 0 basechar 0
AnchorPoint: "DotBelow" 0 0 basechar 0
AnchorPoint: "DotAbove" 0 0 basechar 0
AnchorPoint: "cursive" -25 30 exit 0
LayerCount: 2
Back
SplineSet
-5.50684 714.641 m 4
 -0.677734 725.266 8.03516 722.125 10.7246 713.725 c 4
 20.0117 684.721 36.2871 665.685 53.8975 649.026 c 4
 60.748 642.546 64.5215 636.015 58.4092 626.498 c 4
 53.4668 618.803 46.5977 605.783 39.041 593.155 c 5
 47.9482 540.007 87.0146 359.159 104.885 235.124 c 4
 114.377 169.234 108.602 69.1816 107.416 68.8428 c 5
 105.067 36.8125 97.4219 5.00879 83.541 -23.8447 c 4
 59.0156 -74.8262 -4.47852 -61.0771 -25.084 -40.001 c 4
 -57.4277 -6.91895 -73.3984 124.631 -1.70898 66.5303 c 4
 23.9648 45.7227 59.1416 53.127 68.0723 54.749 c 5
 85.7246 60.3154 72.5742 150.537 70.8525 163.843 c 4
 51.1162 300.836 7.02832 500.349 -10.7725 594.718 c 4
 -15.5098 619.836 -30.7256 653.691 -24.2314 671.35 c 4
 -20.3037 682.027 -14.8604 694.058 -5.50684 714.641 c 4
-1.70898 66.5303 m 5
 37.1064 40.082 -3.45312 -59.9775 -25.084 -40.001 c 4
 -57.0752 -10.457 -87.332 57.3994 -105.928 114.78 c 5
 -118.624 75.1719 -140.924 35.7539 -158.084 23.2803 c 4
 -199.266 -6.65527 -299.274 -31.708 -350.459 -20.3447 c 4
 -400.692 -9.19336 -404.029 52.3154 -378.084 122.937 c 4
 -374.325 133.167 -366.288 135.101 -360.584 124.499 c 4
 -336.852 80.9893 -292.272 77.123 -249.209 83.249 c 4
 -162.144 95.6328 -123.431 134.898 -120.709 169.687 c 5
 -120.709 169.687 -149.834 300.457 -164.397 365.843 c 4
 -166.025 373.155 -165.66 391.169 -162.772 396.28 c 4
 -156.021 408.228 -142.522 432.124 -142.522 432.124 c 6
 -139.312 437.803 -134.582 434.913 -132.397 425.499 c 4
 -101.478 318.805 -76.0371 119.597 -1.70898 66.5303 c 5
EndSplineSet
Fore
SplineSet
-5.50684 714.641 m 4
 -0.677734 725.266 8.03516 722.125 10.7246 713.725 c 4
 20.0117 684.721 36.2871 665.685 53.8975 649.026 c 4
 60.748 642.546 64.5215 636.015 58.4092 626.498 c 4
 53.4668 618.803 46.5977 605.783 39.041 593.155 c 5
 47.9482 540.007 87.0146 359.159 104.885 235.124 c 4
 114.377 169.234 108.602 69.1816 107.416 68.8428 c 5
 105.067 36.8125 97.4219 5.00879 83.541 -23.8447 c 4
 59.0156 -74.8262 -4.47852 -61.0771 -25.084 -40.001 c 4
 -57.4277 -6.91895 -73.3984 124.631 -1.70898 66.5303 c 4
 23.9648 45.7227 59.1416 53.127 68.0723 54.749 c 5
 85.7246 60.3154 72.5742 150.537 70.8525 163.843 c 4
 51.1162 300.836 7.02832 500.349 -10.7725 594.718 c 4
 -15.5098 619.836 -30.7256 653.691 -24.2314 671.35 c 4
 -20.3037 682.027 -14.8604 694.058 -5.50684 714.641 c 4
EndSplineSet
Colour: ff00
EndChar

StartChar: dal.fina_LamDalIsol
Encoding: 65629 -1 114
Width: 396
VWidth: 0
AnchorPoint: "HamzaBelow" 0 0 basechar 0
AnchorPoint: "HamzaAbove" 0 0 basechar 0
AnchorPoint: "DotBelow" 0 0 basechar 0
AnchorPoint: "DotAbove" 0 0 basechar 0
AnchorPoint: "cursive" 370 30 entry 0
LayerCount: 2
Back
SplineSet
389.493 714.641 m 4
 394.322 725.266 403.035 722.125 405.725 713.725 c 4
 415.012 684.721 431.287 665.685 448.897 649.026 c 4
 455.748 642.546 459.521 636.015 453.409 626.498 c 4
 448.467 618.803 441.598 605.783 434.041 593.155 c 5
 442.948 540.007 482.015 359.159 499.885 235.124 c 4
 509.377 169.234 503.602 69.1816 502.416 68.8428 c 5
 500.067 36.8125 492.422 5.00879 478.541 -23.8447 c 4
 454.016 -74.8262 390.521 -61.0771 369.916 -40.001 c 4
 337.572 -6.91895 321.602 124.631 393.291 66.5303 c 4
 418.965 45.7227 454.142 53.127 463.072 54.749 c 5
 480.725 60.3154 467.574 150.537 465.853 163.843 c 4
 446.116 300.836 402.028 500.349 384.228 594.718 c 4
 379.49 619.836 364.274 653.691 370.769 671.35 c 4
 374.696 682.027 380.14 694.058 389.493 714.641 c 4
393.291 66.5303 m 5
 432.106 40.082 391.547 -59.9775 369.916 -40.001 c 4
 337.925 -10.457 307.668 57.3994 289.072 114.78 c 5
 276.376 75.1719 254.076 35.7539 236.916 23.2803 c 4
 195.734 -6.65527 95.7256 -31.708 44.541 -20.3447 c 4
 -5.69238 -9.19336 -9.0293 52.3154 16.916 122.937 c 4
 20.6748 133.167 28.7119 135.101 34.416 124.499 c 4
 58.1484 80.9893 102.728 77.123 145.791 83.249 c 4
 232.856 95.6328 271.569 134.898 274.291 169.687 c 5
 274.291 169.687 245.166 300.457 230.603 365.843 c 4
 228.975 373.155 229.34 391.169 232.228 396.28 c 4
 238.979 408.228 252.478 432.124 252.478 432.124 c 6
 255.688 437.803 260.418 434.913 262.603 425.499 c 4
 293.522 318.805 318.963 119.597 393.291 66.5303 c 5
EndSplineSet
Fore
SplineSet
393.291 66.5303 m 1
 432.106 40.082 391.547 -59.9775 369.916 -40.001 c 0
 337.925 -10.457 307.668 57.3994 289.072 114.78 c 1
 276.376 75.1719 254.076 35.7539 236.916 23.2803 c 0
 195.734 -6.65527 95.7256 -31.708 44.541 -20.3447 c 0
 -5.69238 -9.19336 -9.0293 52.3154 16.916 122.937 c 0
 20.6748 133.167 28.7119 135.101 34.416 124.499 c 0
 58.1484 80.9893 102.728 77.123 145.791 83.249 c 0
 232.856 95.6328 271.569 134.898 274.291 169.687 c 1
 274.291 169.687 245.166 300.457 230.603 365.843 c 0
 228.975 373.155 229.34 391.169 232.228 396.28 c 0
 238.979 408.228 252.478 432.124 252.478 432.124 c 2
 255.688 437.803 260.418 434.913 262.603 425.499 c 0
 293.522 318.805 318.963 119.597 393.291 66.5303 c 1
EndSplineSet
Colour: ff00
EndChar

StartChar: kaf.medi_KafLamMedi
Encoding: 65630 -1 115
Width: 489
VWidth: 0
AnchorPoint: "HamzaBelow" 0 0 basechar 0
AnchorPoint: "HamzaAbove" 0 0 basechar 0
AnchorPoint: "DotBelow" 0 0 basechar 0
AnchorPoint: "DotAbove" 0 0 basechar 0
AnchorPoint: "cursive" 2 41 exit 0
LayerCount: 2
Back
SplineSet
-1.47559 93.6768 m 0
 80.4756 64.3359 180.365 135.185 187.405 149.749 c 1
 183.304 250.155 11.9336 318.066 -81.1445 347.482 c 0
 -113.46 357.695 -103.826 397.434 -90.2627 435.172 c 0
 -37.8809 580.916 317.777 751.804 468.931 810.983 c 0
 482.564 816.321 494.066 811.206 490.395 795.5 c 2
 490.395 795.5 480.509 753.204 475.562 732.057 c 0
 473.622 723.758 470.532 717.069 460.079 713.258 c 0
 317.646 661.32 11.8096 497.249 -50.1191 432.598 c 1
 253.061 319.711 388.078 121.605 488.291 87.6426 c 0
 517.739 77.6621 508.856 -4.16016 488.468 -3.20801 c 0
 442.729 -1.06934 292.712 157.246 208.246 221.351 c 1
 211.725 174.522 213.601 17.5977 66.4961 -8.22363 c 0
 38.8623 -13.0742 16.1396 -13.0303 -2.7832 -10.3047 c 0
 -45.9932 -4.0791 -22.375 101.159 -1.47559 93.6768 c 0
-85.0664 337.149 m 0
 -82.0381 296.518 -76.5215 115.109 -1.47559 93.6768 c 0
 54.1855 77.7793 35.8467 -16.7734 -2.7832 -10.3047 c 0
 -84.9023 3.44727 -93.0918 80.8096 -105.984 127.752 c 1
 -116.729 83.876 -148.811 18.1035 -188.079 6.79297 c 0
 -212.392 -0.208984 -244.961 86.9004 -188.079 96.2109 c 0
 -171.951 98.8516 -128.25 111.052 -124.547 132.756 c 1
 -120.18 196.078 -141.143 441.097 -152.612 674.648 c 0
 -152.821 682.729 -156.072 690.627 -151.013 699.429 c 2
 -122.77 748.542 l 2
 -119.175 754.795 -113.583 754.169 -112.705 742.146 c 2
 -90.2627 435.171 l 2
 -88.2207 407.24 -86.9697 362.694 -85.0664 337.149 c 0
EndSplineSet
Fore
SplineSet
-1.47559 93.6768 m 0
 80.4756 64.3359 180.365 135.185 187.405 149.749 c 1
 183.304 250.155 11.9336 318.066 -81.1445 347.482 c 0
 -113.46 357.695 -103.826 397.434 -90.2627 435.172 c 0
 -37.8809 580.916 317.777 751.804 468.931 810.983 c 0
 482.564 816.321 494.066 811.206 490.395 795.5 c 2
 490.395 795.5 480.509 753.204 475.562 732.057 c 0
 473.622 723.758 470.532 717.069 460.079 713.258 c 0
 317.646 661.32 11.8096 497.249 -50.1191 432.598 c 1
 253.061 319.711 388.078 121.605 488.291 87.6426 c 0
 517.739 77.6621 508.856 -4.16016 488.468 -3.20801 c 0
 442.729 -1.06934 292.712 157.246 208.246 221.351 c 1
 211.725 174.522 213.601 17.5977 66.4961 -8.22363 c 0
 38.8623 -13.0742 16.1396 -13.0303 -2.7832 -10.3047 c 0
 -45.9932 -4.0791 -22.375 101.159 -1.47559 93.6768 c 0
EndSplineSet
Colour: ff00
EndChar

StartChar: lam.medi_KafLamMedi
Encoding: 65631 -1 116
Width: 194
VWidth: 0
AnchorPoint: "HamzaBelow" 0 0 basechar 0
AnchorPoint: "HamzaAbove" 0 0 basechar 0
AnchorPoint: "DotBelow" 0 0 basechar 0
AnchorPoint: "DotAbove" 0 0 basechar 0
AnchorPoint: "cursive" 197 41 entry 0
LayerCount: 2
Back
SplineSet
193.524 93.6768 m 0
 275.476 64.3359 375.365 135.185 382.405 149.749 c 1
 378.304 250.155 206.934 318.066 113.855 347.482 c 0
 81.54 357.695 91.1738 397.434 104.737 435.172 c 0
 157.119 580.916 512.777 751.804 663.931 810.983 c 0
 677.564 816.321 689.066 811.206 685.395 795.5 c 2
 685.395 795.5 675.509 753.204 670.563 732.057 c 0
 668.622 723.758 665.532 717.069 655.079 713.258 c 0
 512.646 661.32 206.81 497.249 144.881 432.598 c 1
 448.061 319.711 583.078 121.605 683.291 87.6426 c 0
 712.739 77.6621 703.856 -4.16016 683.468 -3.20801 c 0
 637.729 -1.06934 487.712 157.246 403.246 221.351 c 1
 406.725 174.522 408.601 17.5977 261.496 -8.22363 c 0
 233.862 -13.0742 211.14 -13.0303 192.217 -10.3047 c 0
 149.007 -4.0791 172.625 101.159 193.524 93.6768 c 0
109.934 337.149 m 0
 112.962 296.518 118.479 115.109 193.524 93.6768 c 0
 249.186 77.7793 230.847 -16.7734 192.217 -10.3047 c 0
 110.098 3.44727 101.908 80.8096 89.0156 127.752 c 1
 78.2715 83.876 46.1895 18.1035 6.9209 6.79297 c 0
 -17.3916 -0.208984 -49.9609 86.9004 6.9209 96.2109 c 0
 23.0488 98.8516 66.75 111.052 70.4531 132.756 c 1
 74.8203 196.078 53.8574 441.097 42.3877 674.648 c 0
 42.1787 682.729 38.9277 690.627 43.9873 699.429 c 2
 72.2305 748.542 l 2
 75.8252 754.795 81.417 754.169 82.2949 742.147 c 2
 104.737 435.171 l 2
 106.779 407.24 108.03 362.694 109.934 337.149 c 0
EndSplineSet
Fore
SplineSet
109.934 337.149 m 0
 112.962 296.518 118.479 115.109 193.524 93.6768 c 0
 249.186 77.7793 230.847 -16.7734 192.217 -10.3047 c 0
 110.098 3.44727 101.908 80.8096 89.0156 127.752 c 1
 78.2715 83.876 46.1895 18.1035 6.9209 6.79297 c 0
 -17.3916 -0.208984 -49.9609 86.9004 6.9209 96.2109 c 0
 23.0488 98.8516 66.75 111.052 70.4531 132.756 c 1
 74.8203 196.078 53.8574 441.097 42.3877 674.648 c 0
 42.1787 682.729 38.9277 690.627 43.9873 699.429 c 2
 72.2305 748.542 l 2
 75.8252 754.795 81.417 754.169 82.2949 742.147 c 2
 104.737 435.171 l 2
 106.779 407.24 108.03 362.694 109.934 337.149 c 0
EndSplineSet
Colour: ff00
EndChar

StartChar: lam.medi_LamMeemFina
Encoding: 65632 -1 117
Width: 236
VWidth: 0
AnchorPoint: "HamzaBelow" 0 0 basechar 0
AnchorPoint: "HamzaAbove" 0 0 basechar 0
AnchorPoint: "DotBelow" 0 0 basechar 0
AnchorPoint: "DotAbove" 0 0 basechar 0
AnchorPoint: "cursive" 1 50 exit 0
LayerCount: 2
Back
SplineSet
106.304 239.482 m 1
 100.203 142.211 79.3857 93.4756 40.5967 50.2041 c 0
 12.9873 19.4043 -66.1396 51.457 -30.3848 64.4238 c 0
 60.1406 97.2559 82.1318 181.862 80.0869 268.955 c 1
 76.9092 336.747 77.5371 403.426 50.5078 667.49 c 0
 49.7275 679.756 53.3467 683.541 56.3486 689.941 c 2
 80.9355 736.982 l 1
 88.7793 746.771 96.4609 742.543 97.8965 723.566 c 0
 113.16 567.635 124.354 427.899 144.95 266.473 c 0
 152.503 207.271 175.88 136.492 233.188 90.0283 c 0
 277.393 54.1875 252.048 -4.00391 233.087 0 c 0
 173.735 12.5332 125.694 100.669 106.304 239.482 c 1
-30.3848 64.4238 m 0
 -11.4609 71.6777 12.6191 64.9619 40.5967 50.2041 c 0
 97.5664 20.1533 113.3 9.80957 147.007 -14.3467 c 0
 153.547 -19.0342 162.108 -22.1162 159.287 -36.793 c 1
 159.287 -36.793 145.249 -88.7324 141.267 -102.98 c 0
 138.207 -115.065 126.29 -113.027 114.292 -112.512 c 0
 27.8291 -108.794 -70.7559 -108.37 -128.434 -177.364 c 1
 -133.605 -197.433 -125.897 -276.807 -110.692 -348.745 c 0
 -92.21 -436.185 -62.0469 -528.531 -63.0225 -629.621 c 0
 -63.5352 -682.697 -90.1807 -681.652 -93.8467 -640.358 c 1
 -113.67 -485.353 -189.364 -288.455 -162.853 -176.93 c 0
 -145.802 -105.203 -119.307 -58.6592 -43.4785 -39.1357 c 1
 -51.5146 -33.8965 -57.3379 -31.5 -64.5957 -27.46 c 1
 -65.3203 28.2832 l 2
 -65.6104 50.6641 -41.0215 60.3477 -30.3848 64.4238 c 0
EndSplineSet
Fore
SplineSet
106.304 239.482 m 1
 100.203 142.211 79.3857 93.4756 40.5967 50.2041 c 0
 12.9873 19.4043 -66.1396 51.457 -30.3848 64.4238 c 0
 60.1406 97.2559 82.1318 181.862 80.0869 268.955 c 1
 76.9092 336.747 77.5371 403.426 50.5078 667.49 c 0
 49.7275 679.756 53.3467 683.541 56.3486 689.941 c 2
 80.9355 736.982 l 1
 88.7793 746.771 96.4609 742.543 97.8965 723.566 c 0
 113.16 567.635 124.354 427.899 144.95 266.473 c 0
 152.503 207.271 175.88 136.492 233.188 90.0283 c 0
 277.393 54.1875 252.048 -4.00391 233.087 0 c 0
 173.735 12.5332 125.694 100.669 106.304 239.482 c 1
EndSplineSet
Colour: ff00
EndChar

StartChar: meem.fina_LamMeemFina
Encoding: 65633 -1 118
Width: 330
VWidth: 0
AnchorPoint: "HamzaBelow" 0 0 basechar 0
AnchorPoint: "HamzaAbove" 0 0 basechar 0
AnchorPoint: "DotBelow" 0 0 basechar 0
AnchorPoint: "DotAbove" 0 0 basechar 0
AnchorPoint: "cursive" 151 50 entry 0
LayerCount: 2
Back
SplineSet
256.304 239.482 m 1
 250.203 142.211 229.386 93.4756 190.597 50.2041 c 0
 162.987 19.4043 83.8604 51.457 119.615 64.4238 c 0
 210.141 97.2559 232.132 181.862 230.087 268.955 c 1
 226.909 336.747 227.537 403.426 200.508 667.49 c 0
 199.728 679.756 203.347 683.541 206.349 689.941 c 2
 230.936 736.982 l 1
 238.779 746.771 246.461 742.543 247.896 723.566 c 0
 263.16 567.635 274.354 427.899 294.95 266.473 c 0
 302.503 207.271 325.88 136.492 383.187 90.0283 c 0
 427.393 54.1875 402.048 -4.00391 383.087 0 c 0
 323.735 12.5332 275.694 100.669 256.304 239.482 c 1
119.615 64.4238 m 0
 138.539 71.6777 162.619 64.9619 190.597 50.2041 c 0
 247.566 20.1533 263.3 9.80957 297.007 -14.3467 c 0
 303.547 -19.0342 312.108 -22.1162 309.287 -36.793 c 1
 309.287 -36.793 295.249 -88.7324 291.267 -102.98 c 0
 288.207 -115.065 276.29 -113.027 264.292 -112.512 c 0
 177.829 -108.794 79.2441 -108.37 21.5664 -177.364 c 1
 16.3945 -197.433 24.1025 -276.807 39.3076 -348.745 c 0
 57.79 -436.185 87.9531 -528.531 86.9775 -629.621 c 0
 86.4648 -682.697 59.8193 -681.652 56.1533 -640.358 c 1
 36.3301 -485.353 -39.3643 -288.455 -12.8525 -176.93 c 0
 4.19824 -105.203 30.6934 -58.6592 106.521 -39.1357 c 1
 98.4854 -33.8965 92.6621 -31.5 85.4043 -27.46 c 1
 84.6797 28.2832 l 2
 84.3896 50.6641 108.979 60.3477 119.615 64.4238 c 0
EndSplineSet
Fore
SplineSet
119.615 64.4238 m 0
 138.539 71.6777 162.619 64.9619 190.597 50.2041 c 0
 247.566 20.1533 263.3 9.80957 297.007 -14.3467 c 0
 303.547 -19.0342 312.108 -22.1162 309.287 -36.793 c 1
 309.287 -36.793 295.249 -88.7324 291.267 -102.98 c 0
 288.207 -115.065 276.29 -113.027 264.292 -112.512 c 0
 177.829 -108.794 79.2441 -108.37 21.5664 -177.364 c 1
 16.3945 -197.433 24.1025 -276.807 39.3076 -348.745 c 0
 57.79 -436.185 87.9531 -528.531 86.9775 -629.621 c 0
 86.4648 -682.697 59.8193 -681.652 56.1533 -640.358 c 1
 36.3301 -485.353 -39.3643 -288.455 -12.8525 -176.93 c 0
 4.19824 -105.203 30.6934 -58.6592 106.521 -39.1357 c 1
 98.4854 -33.8965 92.6621 -31.5 85.4043 -27.46 c 1
 84.6797 28.2832 l 2
 84.3896 50.6641 108.979 60.3477 119.615 64.4238 c 0
EndSplineSet
Colour: ff00
EndChar

StartChar: kaf.init_KafMeemLamInit
Encoding: 65634 -1 119
Width: 219
VWidth: 0
AnchorPoint: "HamzaBelow" 0 0 basechar 0
AnchorPoint: "HamzaAbove" 0 0 basechar 0
AnchorPoint: "DotBelow" 0 0 basechar 0
AnchorPoint: "DotAbove" 0 0 basechar 0
AnchorPoint: "cursive" -21 104 exit 0
LayerCount: 2
Back
SplineSet
-139.367 394.096 m 0
 -117.646 213.662 -101.542 141.522 -42.5 89.4775 c 0
 -4.76562 56.2158 -39.9824 -24.3291 -68.6055 3.8291 c 0
 -100.287 34.9932 -127.649 77.874 -150.959 138.29 c 1
 -179.445 47.7822 -228.491 4.00684 -249 0 c 0
 -267.998 -3.71191 -290.431 83.5605 -248.965 91.167 c 0
 -217.884 96.8691 -176.405 111.104 -177.104 151.756 c 0
 -177.787 191.531 -201.758 479.744 -221.782 649.465 c 1
 -222.78 670.135 -223.468 680.054 -220.688 687.184 c 0
 -211.651 710.367 -204.024 720.35 -195.329 742.586 c 0
 -189.299 758.005 -180.303 750.061 -179.907 741.595 c 2
 -150.664 481.095 l 2
 -147.562 453.47 -143.972 432.345 -139.367 394.096 c 0
-42.5 89.4775 m 1
 -20.5635 162.186 49.3076 137.929 4.10156 101.273 c 0
 -2.22168 96.1465 -3.85547 88.918 0.945312 83.9609 c 0
 22.8613 61.3369 51.8633 34.5762 121.772 21.0146 c 0
 126.246 20.1475 128.9 15.1016 128.679 10.0459 c 2
 114.508 -72.4453 l 1
 114.135 -80.9346 108.515 -81.7539 104.195 -80.7266 c 0
 36.6855 -64.6533 -20.8594 -43.0469 -69.6543 4.87305 c 0
 -110.591 45.0742 -84.457 118.868 -42.5 89.4775 c 1
-139.367 394.096 m 0
 -174.118 400.774 -172.47 437.422 -150.664 481.095 c 0
 -97.9014 586.767 126.221 678.583 420.56 772.456 c 0
 428.363 774.938 438.049 771.199 435.997 761.456 c 2
 435.997 761.456 430.088 721.521 422.961 700.271 c 0
 416.708 681.626 407.61 680.201 399.242 678.241 c 0
 262.496 646.201 -5.80176 553.844 -92.0723 481.499 c 0
 -94.8232 479.192 -93.4014 476.452 -89.8223 475.562 c 0
 51.8818 448.146 154.92 369.873 187.758 281.492 c 0
 211.805 216.772 171.498 156.639 145.758 142.711 c 0
 86.9434 110.888 33.8076 124.286 4.10156 101.273 c 0
 -28.9912 75.6367 -55.5615 31.998 -42.5 89.4775 c 0
 -39.1504 104.214 -32.2988 130.069 -0.402344 162.348 c 0
 47.1211 210.44 132.352 178.555 169.695 222.93 c 1
 124.245 311.949 -19.0078 370.962 -139.367 394.096 c 0
EndSplineSet
Fore
SplineSet
-139.367 394.096 m 0
 -174.118 400.774 -172.47 437.422 -150.664 481.095 c 0
 -97.9014 586.767 126.221 678.583 420.56 772.456 c 0
 428.363 774.938 438.049 771.199 435.997 761.456 c 2
 435.997 761.456 430.088 721.521 422.961 700.271 c 0
 416.708 681.626 407.61 680.201 399.242 678.241 c 0
 262.496 646.201 -5.80176 553.844 -92.0723 481.499 c 0
 -94.8232 479.192 -93.4014 476.452 -89.8223 475.562 c 0
 51.8818 448.146 154.92 369.873 187.758 281.492 c 0
 211.805 216.772 171.498 156.639 145.758 142.711 c 0
 86.9434 110.888 33.8076 124.286 4.10156 101.273 c 0
 -28.9912 75.6367 -55.5615 31.998 -42.5 89.4775 c 0
 -39.1504 104.214 -32.2988 130.069 -0.402344 162.348 c 0
 47.1211 210.44 132.352 178.555 169.695 222.93 c 1
 124.245 311.949 -19.0078 370.962 -139.367 394.096 c 0
EndSplineSet
Colour: ff00
EndChar

StartChar: meem.medi_KafMeemLamInit
Encoding: 65635 -1 120
Width: 208
VWidth: 0
AnchorPoint: "HamzaBelow" 0 0 basechar 0
AnchorPoint: "HamzaAbove" 0 0 basechar 0
AnchorPoint: "DotBelow" 0 0 basechar 0
AnchorPoint: "DotAbove" 0 0 basechar 0
AnchorPoint: "cursive" 0 47 exit 0
AnchorPoint: "cursive" 38 104 entry 0
LayerCount: 2
Back
SplineSet
-80.3672 394.096 m 0
 -58.6465 213.662 -42.542 141.522 16.5 89.4775 c 0
 54.2344 56.2158 19.0176 -24.3291 -9.60547 3.8291 c 0
 -41.2871 34.9932 -68.6494 77.874 -91.959 138.29 c 1
 -120.445 47.7822 -169.491 4.00684 -190 0 c 0
 -208.998 -3.71191 -231.431 83.5605 -189.965 91.167 c 0
 -158.884 96.8691 -117.405 111.104 -118.104 151.756 c 0
 -118.787 191.531 -142.758 479.744 -162.782 649.465 c 1
 -163.78 670.135 -164.468 680.054 -161.688 687.184 c 0
 -152.651 710.367 -145.024 720.35 -136.329 742.586 c 0
 -130.299 758.005 -121.303 750.061 -120.907 741.595 c 2
 -91.6641 481.095 l 2
 -88.5615 453.47 -84.9717 432.345 -80.3672 394.096 c 0
16.5 89.4775 m 1
 38.4365 162.186 108.308 137.929 63.1016 101.273 c 0
 56.7783 96.1465 55.1445 88.918 59.9453 83.9609 c 0
 81.8613 61.3369 110.863 34.5762 180.772 21.0146 c 0
 185.246 20.1475 187.9 15.1016 187.679 10.0459 c 2
 173.508 -72.4453 l 1
 173.135 -80.9346 167.515 -81.7539 163.195 -80.7266 c 0
 95.6855 -64.6533 38.1406 -43.0469 -10.6543 4.87305 c 0
 -51.5908 45.0742 -25.457 118.868 16.5 89.4775 c 1
-80.3672 394.096 m 0
 -115.118 400.774 -113.47 437.422 -91.6641 481.095 c 0
 -38.9014 586.767 185.221 678.583 479.56 772.456 c 0
 487.363 774.938 497.049 771.199 494.997 761.456 c 2
 494.997 761.456 489.088 721.521 481.961 700.271 c 0
 475.708 681.626 466.61 680.201 458.242 678.241 c 0
 321.496 646.201 53.1982 553.844 -33.0723 481.499 c 0
 -35.8232 479.192 -34.4014 476.452 -30.8223 475.562 c 0
 110.882 448.146 213.92 369.873 246.758 281.492 c 0
 270.805 216.772 230.498 156.639 204.758 142.711 c 0
 145.943 110.888 92.8076 124.286 63.1016 101.273 c 0
 30.0088 75.6367 3.43848 31.998 16.5 89.4775 c 0
 19.8496 104.214 26.7012 130.069 58.5977 162.348 c 0
 106.121 210.44 191.352 178.555 228.695 222.93 c 1
 183.245 311.949 39.9922 370.962 -80.3672 394.096 c 0
EndSplineSet
Fore
SplineSet
16.5 89.4775 m 1
 38.4365 162.186 108.308 137.929 63.1016 101.273 c 0
 56.7783 96.1465 55.1445 88.918 59.9453 83.9609 c 0
 81.8613 61.3369 110.863 34.5762 180.772 21.0146 c 0
 185.246 20.1475 187.9 15.1016 187.679 10.0459 c 2
 173.508 -72.4453 l 1
 173.135 -80.9346 167.515 -81.7539 163.195 -80.7266 c 0
 95.6855 -64.6533 38.1406 -43.0469 -10.6543 4.87305 c 0
 -51.5908 45.0742 -25.457 118.868 16.5 89.4775 c 1
EndSplineSet
Colour: ff00
EndChar

StartChar: lam.medi_KafMeemLamInit
Encoding: 65636 -1 121
Width: 191
VWidth: 0
AnchorPoint: "HamzaBelow" 0 0 basechar 0
AnchorPoint: "HamzaAbove" 0 0 basechar 0
AnchorPoint: "DotBelow" 0 0 basechar 0
AnchorPoint: "DotAbove" 0 0 basechar 0
AnchorPoint: "cursive" 190 47 entry 0
LayerCount: 2
Back
SplineSet
109.633 394.096 m 0
 131.354 213.662 147.458 141.522 206.5 89.4775 c 0
 244.234 56.2158 209.018 -24.3291 180.395 3.8291 c 0
 148.713 34.9932 121.351 77.874 98.041 138.29 c 1
 69.5547 47.7822 20.5088 4.00684 0 0 c 0
 -18.998 -3.71191 -41.4307 83.5605 0.0351562 91.167 c 0
 31.1162 96.8691 72.5947 111.104 71.8955 151.756 c 0
 71.2129 191.531 47.2422 479.744 27.2178 649.465 c 1
 26.2197 670.135 25.5322 680.054 28.3115 687.184 c 0
 37.3486 710.367 44.9756 720.35 53.6709 742.586 c 0
 59.7012 758.005 68.6973 750.061 69.0928 741.595 c 2
 98.3359 481.095 l 2
 101.438 453.47 105.028 432.345 109.633 394.096 c 0
206.5 89.4775 m 1
 228.437 162.186 298.308 137.929 253.102 101.273 c 0
 246.778 96.1465 245.145 88.918 249.945 83.9609 c 0
 271.861 61.3369 300.863 34.5762 370.772 21.0146 c 0
 375.246 20.1475 377.9 15.1016 377.679 10.0459 c 2
 363.508 -72.4453 l 1
 363.135 -80.9346 357.515 -81.7539 353.195 -80.7266 c 0
 285.686 -64.6533 228.141 -43.0469 179.346 4.87305 c 0
 138.409 45.0742 164.543 118.868 206.5 89.4775 c 1
109.633 394.096 m 0
 74.8818 400.774 76.5303 437.422 98.3359 481.095 c 0
 151.099 586.767 375.221 678.583 669.56 772.456 c 0
 677.363 774.938 687.049 771.199 684.997 761.456 c 2
 684.997 761.456 679.088 721.521 671.961 700.272 c 0
 665.708 681.626 656.61 680.201 648.242 678.241 c 0
 511.496 646.201 243.198 553.844 156.928 481.499 c 0
 154.177 479.192 155.599 476.452 159.178 475.562 c 0
 300.882 448.146 403.92 369.873 436.758 281.492 c 0
 460.805 216.772 420.498 156.639 394.758 142.711 c 0
 335.943 110.888 282.808 124.286 253.102 101.273 c 0
 220.009 75.6367 193.438 31.998 206.5 89.4775 c 0
 209.85 104.214 216.701 130.069 248.598 162.348 c 0
 296.121 210.44 381.352 178.555 418.695 222.93 c 1
 373.245 311.949 229.992 370.962 109.633 394.096 c 0
EndSplineSet
Fore
SplineSet
109.633 394.096 m 0
 131.354 213.662 147.458 141.522 206.5 89.4775 c 0
 244.234 56.2158 209.018 -24.3291 180.395 3.8291 c 0
 148.713 34.9932 121.351 77.874 98.041 138.29 c 1
 69.5547 47.7822 20.5088 4.00684 0 0 c 0
 -18.998 -3.71191 -41.4307 83.5605 0.0351562 91.167 c 0
 31.1162 96.8691 72.5947 111.104 71.8955 151.756 c 0
 71.2129 191.531 47.2422 479.744 27.2178 649.465 c 1
 26.2197 670.135 25.5322 680.054 28.3115 687.184 c 0
 37.3486 710.367 44.9756 720.35 53.6709 742.586 c 0
 59.7012 758.005 68.6973 750.061 69.0928 741.595 c 2
 98.3359 481.095 l 2
 101.438 453.47 105.028 432.345 109.633 394.096 c 0
EndSplineSet
Colour: ff00
EndChar

StartChar: seen.init_SeenMeemInit
Encoding: 65637 -1 122
Width: 551
VWidth: 0
AnchorPoint: "HamzaBelow" 0 0 basechar 0
AnchorPoint: "HamzaAbove" 0 0 basechar 0
AnchorPoint: "DotBelow" 0 0 basechar 0
AnchorPoint: "DotAbove" 0 0 basechar 0
AnchorPoint: "cursive" 56 113 exit 0
LayerCount: 2
Back
SplineSet
467.176 387.079 m 0
 478.765 407.041 490.489 426.949 503.577 445.979 c 0
 506.129 449.69 507.876 447.056 509.342 445.303 c 0
 528.278 422.642 531.98 378.011 520.44 336.246 c 0
 512.392 307.117 500.394 275.034 485.15 258.829 c 0
 461.252 233.425 369.425 264.426 339.605 285.826 c 0
 338.194 286.839 335.763 287.361 334.174 285.073 c 0
 299.75 236.295 266.692 216.113 209.781 220.136 c 0
 171.248 222.884 158.115 249.908 140.498 280.366 c 0
 134.578 290.601 123.814 300.459 111.562 302.612 c 0
 88.8242 306.608 53.3428 298.918 33.0459 281.843 c 0
 29.7305 278.795 25.959 274.75 25.6396 270.048 c 0
 17.5303 212.545 68.1289 147.458 100.708 137.762 c 1
 124.388 44.9072 10.8467 80.1416 -0.199219 122.135 c 0
 -14.2354 175.498 -16.2871 243.239 15.7686 305.261 c 0
 43.6865 359.277 88.1816 398.132 134.565 396.365 c 0
 181.054 394.594 182.619 317.324 241.727 313.91 c 0
 308.361 310.062 341.146 374.999 377.632 424.689 c 0
 388.747 439.827 406.715 428.148 395.142 405.26 c 0
 391.787 398.625 385.078 386.949 385.029 381.649 c 0
 384.934 371.666 392.73 364.115 400.909 360.576 c 0
 427.688 348.99 471.791 341.336 485.345 346.895 c 0
 488.174 348.056 489.065 350.288 487.698 353.188 c 0
 481.92 365.44 475.237 372.412 467.683 380.73 c 0
 465.776 382.829 465.618 384.374 467.176 387.079 c 0
-0.199219 122.135 m 0
 21.2852 131.531 61.0527 148.741 100.708 137.762 c 0
 144.089 125.75 174.618 114.9 207.078 83.0146 c 0
 211.836 78.3398 211.494 75.1709 209.149 68.6348 c 0
 199.052 40.4814 183.91 13.1035 167.432 -9.20703 c 0
 164.234 -13.5361 160.778 -13.5996 155.948 -10.3604 c 0
 123.844 11.168 86.6729 37.6992 39.0127 39.7432 c 0
 -28.3945 42.6328 -40.5625 10.0918 -92 0 c 0
 -109.888 -3.50977 -123.246 87.5225 -92.5244 90.3867 c 0
 -57.2139 93.6777 -35.2598 106.801 -0.199219 122.135 c 0
EndSplineSet
Fore
SplineSet
467.176 387.079 m 0
 478.765 407.041 490.489 426.949 503.577 445.979 c 0
 506.129 449.69 507.876 447.056 509.342 445.303 c 0
 528.278 422.642 531.98 378.011 520.44 336.246 c 0
 512.392 307.117 500.394 275.034 485.15 258.829 c 0
 461.252 233.425 369.425 264.426 339.605 285.826 c 0
 338.194 286.839 335.763 287.361 334.174 285.073 c 0
 299.75 236.295 266.692 216.113 209.781 220.136 c 0
 171.248 222.884 158.115 249.908 140.498 280.366 c 0
 134.578 290.601 123.814 300.459 111.562 302.612 c 0
 88.8242 306.608 53.3428 298.918 33.0459 281.843 c 0
 29.7305 278.795 25.959 274.75 25.6396 270.048 c 0
 17.5303 212.545 68.1289 147.458 100.708 137.762 c 1
 124.388 44.9072 10.8467 80.1416 -0.199219 122.135 c 0
 -14.2354 175.498 -16.2871 243.239 15.7686 305.261 c 0
 43.6865 359.277 88.1816 398.132 134.565 396.365 c 0
 181.054 394.594 182.619 317.324 241.727 313.91 c 0
 308.361 310.062 341.146 374.999 377.632 424.689 c 0
 388.747 439.827 406.715 428.148 395.142 405.26 c 0
 391.787 398.625 385.078 386.949 385.029 381.649 c 0
 384.934 371.666 392.73 364.115 400.909 360.576 c 0
 427.688 348.99 471.791 341.336 485.345 346.895 c 0
 488.174 348.056 489.065 350.288 487.698 353.188 c 0
 481.92 365.44 475.237 372.412 467.683 380.73 c 0
 465.776 382.829 465.618 384.374 467.176 387.079 c 0
EndSplineSet
Colour: ff00
EndChar

StartChar: meem.medi_SeenMeemInit
Encoding: 65638 -1 123
Width: 322
VWidth: 0
AnchorPoint: "HamzaBelow" 0 0 basechar 0
AnchorPoint: "HamzaAbove" 0 0 basechar 0
AnchorPoint: "DotBelow" 0 0 basechar 0
AnchorPoint: "DotAbove" 0 0 basechar 0
AnchorPoint: "cursive" 148 113 entry 0
LayerCount: 2
Back
SplineSet
559.176 387.079 m 0
 570.765 407.041 582.489 426.949 595.577 445.979 c 0
 598.129 449.69 599.876 447.056 601.342 445.303 c 0
 620.278 422.642 623.98 378.011 612.44 336.246 c 0
 604.392 307.117 592.394 275.034 577.15 258.829 c 0
 553.252 233.425 461.425 264.426 431.605 285.826 c 0
 430.194 286.839 427.763 287.361 426.174 285.073 c 0
 391.75 236.295 358.692 216.113 301.781 220.136 c 0
 263.248 222.884 250.115 249.908 232.498 280.366 c 0
 226.578 290.601 215.814 300.459 203.562 302.612 c 0
 180.824 306.608 145.343 298.918 125.046 281.843 c 0
 121.73 278.795 117.959 274.75 117.64 270.048 c 0
 109.53 212.545 160.129 147.458 192.708 137.762 c 1
 216.388 44.9072 102.847 80.1416 91.8008 122.135 c 0
 77.7646 175.498 75.7129 243.239 107.769 305.261 c 0
 135.687 359.277 180.182 398.132 226.565 396.365 c 0
 273.054 394.594 274.619 317.324 333.727 313.91 c 0
 400.361 310.062 433.146 374.999 469.632 424.689 c 0
 480.747 439.827 498.715 428.148 487.142 405.26 c 0
 483.787 398.625 477.078 386.949 477.029 381.649 c 0
 476.934 371.666 484.73 364.115 492.909 360.576 c 0
 519.688 348.99 563.791 341.336 577.345 346.895 c 0
 580.174 348.056 581.065 350.288 579.698 353.188 c 0
 573.92 365.44 567.237 372.412 559.683 380.73 c 0
 557.776 382.829 557.618 384.374 559.176 387.079 c 0
91.8008 122.135 m 0
 113.285 131.531 153.053 148.741 192.708 137.762 c 0
 236.089 125.75 266.618 114.9 299.078 83.0146 c 0
 303.836 78.3398 303.494 75.1709 301.149 68.6348 c 0
 291.052 40.4814 275.91 13.1035 259.432 -9.20703 c 0
 256.234 -13.5361 252.778 -13.5996 247.948 -10.3604 c 0
 215.844 11.168 178.673 37.6992 131.013 39.7432 c 0
 63.6055 42.6328 51.4375 10.0918 0 0 c 0
 -17.8877 -3.50977 -31.2461 87.5225 -0.524414 90.3867 c 0
 34.7861 93.6777 56.7402 106.801 91.8008 122.135 c 0
EndSplineSet
Fore
SplineSet
91.8008 122.135 m 0
 113.285 131.531 153.053 148.741 192.708 137.762 c 0
 236.089 125.75 266.618 114.9 299.078 83.0146 c 0
 303.836 78.3398 303.494 75.1709 301.149 68.6348 c 0
 291.052 40.4814 275.91 13.1035 259.432 -9.20703 c 0
 256.234 -13.5361 252.778 -13.5996 247.948 -10.3604 c 0
 215.844 11.168 178.673 37.6992 131.013 39.7432 c 0
 63.6055 42.6328 51.4375 10.0918 0 0 c 0
 -17.8877 -3.50977 -31.2461 87.5225 -0.524414 90.3867 c 0
 34.7861 93.6777 56.7402 106.801 91.8008 122.135 c 0
EndSplineSet
Colour: ff00
EndChar

StartChar: kaf.medi_KafMeemMedi
Encoding: 65639 -1 124
Width: 598
VWidth: 0
AnchorPoint: "HamzaBelow" 0 0 basechar 0
AnchorPoint: "HamzaAbove" 0 0 basechar 0
AnchorPoint: "DotBelow" 0 0 basechar 0
AnchorPoint: "DotAbove" 0 0 basechar 0
AnchorPoint: "cursive" 57 207 exit 0
LayerCount: 2
Back
SplineSet
-5.25391 227.673 m 4
 10.5039 236.189 69.5264 249.513 113.484 192.11 c 4
 152.607 141.021 108.903 30.7646 74.0479 37.0723 c 4
 37.9492 43.6055 -22.0566 65.8223 -59.1172 101.906 c 5
 -79.8662 68.5762 -98.9004 1.99902 -160 0 c 4
 -189.067 -0.951172 -191.816 89.0459 -159.95 90.6182 c 4
 -133.111 91.9414 -97.3652 105.372 -78.2539 127.021 c 4
 -54.4053 154.036 -34.9971 211.599 -5.25391 227.673 c 4
22.2256 169.346 m 4
 12.9043 169.29 3.37012 167.673 -6.01855 164.12 c 4
 -10.0781 162.584 -9.48145 158.091 -7.14648 156.183 c 4
 26.0107 129.086 59.9629 118.985 92.3809 112.766 c 4
 97.1191 111.857 101.932 112.704 101.032 117.4 c 4
 96.3701 141.726 59.0908 169.588 22.2256 169.346 c 4
627.875 855.785 m 0
 627.872 855.785 l 1
 627.872 855.785 l 1
 639.704 855.86 642.983 844.857 638.878 837.135 c 2
 603.118 769.868 l 2
 599.09 762.292 595.392 762.771 591.408 761.959 c 0
 479.68 739.036 147.73 698.171 -34.8574 600.119 c 0
 -40.0654 597.483 -57.9971 584.355 -53.6426 581.933 c 0
 54.0615 535.14 182.438 437.032 290.788 340.377 c 0
 420.812 224.39 505.806 124.966 597.27 101.957 c 0
 631 94 625 13 597.736 11.3066 c 0
 498.537 9.97461 266.932 299.674 157.148 366.071 c 1
 190.422 225.838 133.413 204.158 121.948 189.994 c 1
 76.5684 159.631 -26.0303 209.535 -5.25391 227.673 c 1
 34.7549 249.423 109.126 230.662 141.711 269.735 c 1
 134.536 339.26 -22.5605 460.511 -97.1553 523.128 c 0
 -100.373 525.83 -100.712 528.83 -100.984 533.167 c 0
 -104.309 586.159 -83.4141 631.337 -69.1846 646.044 c 0
 16.3613 734.494 471.78 827.195 623.931 855.392 c 0
 625.338 855.653 626.651 855.775 627.875 855.785 c 0
EndSplineSet
Fore
SplineSet
627.875 855.785 m 0
 627.872 855.785 l 1
 627.872 855.785 l 1
 639.704 855.86 642.983 844.857 638.878 837.135 c 2
 603.118 769.868 l 2
 599.09 762.292 595.392 762.771 591.408 761.959 c 0
 479.68 739.036 147.73 698.171 -34.8574 600.119 c 0
 -40.0654 597.483 -57.9971 584.355 -53.6426 581.933 c 0
 54.0615 535.14 182.438 437.032 290.788 340.377 c 0
 420.812 224.39 505.806 124.966 597.27 101.957 c 0
 631 94 625 13 597.736 11.3066 c 0
 498.537 9.97461 266.932 299.674 157.148 366.071 c 1
 190.422 225.838 133.413 204.158 121.948 189.994 c 1
 76.5684 159.631 -26.0303 209.535 -5.25391 227.673 c 1
 34.7549 249.423 109.126 230.662 141.711 269.735 c 1
 134.536 339.26 -22.5605 460.511 -97.1553 523.128 c 0
 -100.373 525.83 -100.712 528.83 -100.984 533.167 c 0
 -104.309 586.159 -83.4141 631.337 -69.1846 646.044 c 0
 16.3613 734.494 471.78 827.195 623.931 855.392 c 0
 625.338 855.653 626.651 855.775 627.875 855.785 c 0
EndSplineSet
Colour: ff00
EndChar

StartChar: meem.medi_KafMeemMedi
Encoding: 65640 -1 125
Width: 309
VWidth: 0
AnchorPoint: "HamzaBelow" 0 0 basechar 0
AnchorPoint: "HamzaAbove" 0 0 basechar 0
AnchorPoint: "DotBelow" 0 0 basechar 0
AnchorPoint: "DotAbove" 0 0 basechar 0
AnchorPoint: "cursive" 217 207 entry 0
LayerCount: 2
Back
SplineSet
154.746 227.673 m 0
 170.504 236.189 229.526 249.513 273.484 192.11 c 0
 312.607 141.021 268.903 30.7646 234.048 37.0723 c 0
 197.949 43.6055 137.943 65.8223 100.883 101.906 c 1
 80.1338 68.5762 61.0996 1.99902 0 0 c 0
 -29.0674 -0.951172 -31.8164 89.0459 0.0498047 90.6182 c 0
 26.8887 91.9414 62.6348 105.372 81.7461 127.021 c 0
 105.595 154.036 125.003 211.599 154.746 227.673 c 0
182.226 169.346 m 0
 172.904 169.29 163.37 167.673 153.981 164.12 c 0
 149.922 162.584 150.519 158.091 152.854 156.183 c 0
 186.011 129.086 219.963 118.985 252.381 112.766 c 0
 257.119 111.857 261.932 112.704 261.032 117.4 c 0
 256.37 141.726 219.091 169.588 182.226 169.346 c 0
787.875 855.785 m 0
 787.872 855.785 l 1
 787.872 855.785 l 1
 799.704 855.86 802.983 844.857 798.878 837.135 c 2
 763.118 769.868 l 2
 759.09 762.292 755.392 762.771 751.408 761.959 c 0
 639.68 739.036 307.73 698.171 125.143 600.119 c 0
 119.935 597.483 102.003 584.355 106.357 581.933 c 0
 214.062 535.14 342.438 437.032 450.788 340.377 c 0
 580.812 224.39 665.806 124.966 757.27 101.957 c 1
 757.736 11.3066 l 1
 658.537 9.97461 426.932 299.674 317.148 366.071 c 1
 350.422 225.838 293.413 204.158 281.948 189.994 c 1
 236.568 159.631 133.97 209.535 154.746 227.673 c 1
 194.755 249.423 269.126 230.662 301.711 269.735 c 1
 294.536 339.26 137.439 460.511 62.8447 523.128 c 0
 59.627 525.83 59.2881 528.83 59.0156 533.167 c 0
 55.6914 586.159 76.5859 631.337 90.8154 646.044 c 0
 176.361 734.494 631.78 827.195 783.931 855.392 c 0
 785.338 855.653 786.651 855.775 787.875 855.785 c 0
EndSplineSet
Fore
SplineSet
154.746 227.673 m 0
 170.504 236.189 229.526 249.513 273.484 192.11 c 0
 312.607 141.021 268.903 30.7646 234.048 37.0723 c 0
 197.949 43.6055 137.943 65.8223 100.883 101.906 c 1
 80.1338 68.5762 61.0996 1.99902 0 0 c 0
 -29.0674 -0.951172 -31.8164 89.0459 0.0498047 90.6182 c 0
 26.8887 91.9414 62.6348 105.372 81.7461 127.021 c 0
 105.595 154.036 125.003 211.599 154.746 227.673 c 0
182.226 169.346 m 0
 172.904 169.29 163.37 167.673 153.981 164.12 c 0
 149.922 162.584 150.519 158.091 152.854 156.183 c 0
 186.011 129.086 219.963 118.985 252.381 112.766 c 0
 257.119 111.857 261.932 112.704 261.032 117.4 c 0
 256.37 141.726 219.091 169.588 182.226 169.346 c 0
EndSplineSet
Colour: ff00
EndChar

StartChar: faa.init_FaaMeemInit
Encoding: 65641 -1 126
Width: 250
VWidth: 0
AnchorPoint: "HamzaBelow" 0 0 basechar 0
AnchorPoint: "HamzaAbove" 0 0 basechar 0
AnchorPoint: "DotBelow" 0 0 basechar 0
AnchorPoint: "DotAbove" 0 0 basechar 0
AnchorPoint: "cursive" 112 241 exit 0
LayerCount: 2
Back
SplineSet
53.7988 257.96 m 4
 104.308 272.226 143.662 264.832 170.591 229.673 c 4
 187.438 207.677 198.375 170.651 192.395 136.914 c 4
 186.84 105.572 166.101 67.7012 150.398 51.7373 c 4
 144.114 45.3486 129.816 40.543 120.646 42.2998 c 4
 72.9941 51.4297 36.5176 71.1387 -11.4121 97.6338 c 5
 -36.3818 53.5273 -108.695 1.24023 -130 0 c 4
 -156.827 -1.56152 -168.94 88.5938 -130.34 90.1113 c 4
 -110.729 90.8828 -43.3867 112.221 -31.9102 132.709 c 4
 -15.9668 161.174 -2.5332 242.051 53.7988 257.96 c 4
103.349 191.853 m 4
 79.3564 204.603 49.9609 205.604 29.9209 187.856 c 4
 25.1436 183.488 26.4971 179.388 32.5381 174.604 c 4
 51.124 157.657 114.523 135.488 140.866 131.998 c 4
 146.967 131.189 150.99 133.562 150.196 139.121 c 4
 148.003 154.465 127.889 178.812 103.349 191.853 c 4
112.909 578.405 m 4
 140.537 579.749 172.222 541.133 187.554 513.188 c 4
 219.358 455.216 231.751 359.184 219.136 304.105 c 4
 210.681 267.191 186.79 243.065 170.591 229.673 c 4
 135.54 200.693 8.89746 242.648 53.7988 257.96 c 4
 102.713 274.641 150.341 260.206 189.985 305.374 c 4
 192.459 307.641 193.817 311.058 193.519 314.134 c 4
 190.74 342.847 173.445 377.296 158.72 379.172 c 5
 134.233 315.519 91.4648 320.266 65.6494 323.401 c 4
 -1.68164 331.58 2.83789 420.956 19.3447 468.137 c 4
 35.6943 514.866 72.665 576.447 112.909 578.405 c 4
84.167 471.639 m 4
 73.458 471.663 62.6777 465.804 53.2939 452.607 c 4
 49.8232 447.727 50.9854 441.956 55.4688 437.775 c 4
 73.9531 420.539 98.6152 421.238 119.51 434.06 c 4
 124.223 436.951 125.127 440.603 122.017 445.479 c 4
 111.582 461.843 97.9355 471.606 84.167 471.639 c 4
EndSplineSet
Fore
SplineSet
112.909 578.405 m 0
 140.537 579.749 172.222 541.133 187.554 513.188 c 0
 219.358 455.216 231.751 359.184 219.136 304.105 c 0
 210.681 267.191 186.79 243.065 170.591 229.673 c 0
 135.54 200.693 8.89746 242.648 53.7988 257.96 c 0
 102.713 274.641 150.341 260.206 189.985 305.374 c 0
 192.459 307.641 193.817 311.058 193.519 314.134 c 0
 190.74 342.847 173.445 377.296 158.72 379.172 c 1
 134.233 315.519 91.4648 320.266 65.6494 323.401 c 0
 -1.68164 331.58 2.83789 420.956 19.3447 468.137 c 0
 35.6943 514.866 72.665 576.447 112.909 578.405 c 0
84.167 471.639 m 0
 73.458 471.663 62.6777 465.804 53.2939 452.607 c 0
 49.8232 447.727 50.9854 441.956 55.4688 437.775 c 0
 73.9531 420.539 98.6152 421.238 119.51 434.06 c 0
 124.223 436.951 125.127 440.603 122.017 445.479 c 0
 111.582 461.843 97.9355 471.606 84.167 471.639 c 0
EndSplineSet
Colour: ff00
EndChar

StartChar: meem.medi_FaaMeemInit
Encoding: 65642 -1 127
Width: 346
VWidth: 0
AnchorPoint: "HamzaBelow" 0 0 basechar 0
AnchorPoint: "HamzaAbove" 0 0 basechar 0
AnchorPoint: "DotBelow" 0 0 basechar 0
AnchorPoint: "DotAbove" 0 0 basechar 0
AnchorPoint: "cursive" 242 241 entry 0
LayerCount: 2
Back
SplineSet
183.799 257.96 m 0
 234.308 272.226 273.662 264.832 300.591 229.673 c 0
 317.438 207.677 328.375 170.651 322.395 136.914 c 0
 316.84 105.572 296.101 67.7012 280.398 51.7373 c 0
 274.114 45.3486 259.816 40.543 250.646 42.2998 c 0
 202.994 51.4297 166.518 71.1387 118.588 97.6338 c 1
 93.6182 53.5273 21.3047 1.24023 0 0 c 0
 -26.8271 -1.56152 -38.9404 88.5938 -0.339844 90.1113 c 0
 19.2715 90.8828 86.6133 112.221 98.0898 132.709 c 0
 114.033 161.174 127.467 242.051 183.799 257.96 c 0
233.349 191.853 m 0
 209.356 204.603 179.961 205.604 159.921 187.856 c 0
 155.144 183.488 156.497 179.388 162.538 174.604 c 0
 181.124 157.657 244.523 135.488 270.866 131.998 c 0
 276.967 131.189 280.99 133.562 280.196 139.121 c 0
 278.003 154.465 257.889 178.812 233.349 191.853 c 0
242.909 578.405 m 0
 270.537 579.749 302.222 541.133 317.554 513.187 c 0
 349.358 455.216 361.751 359.184 349.136 304.105 c 0
 340.681 267.191 316.79 243.065 300.591 229.673 c 0
 265.54 200.693 138.897 242.648 183.799 257.96 c 0
 232.713 274.641 280.341 260.206 319.985 305.374 c 0
 322.459 307.641 323.817 311.058 323.519 314.134 c 0
 320.74 342.847 303.445 377.296 288.72 379.172 c 1
 264.233 315.519 221.465 320.266 195.649 323.401 c 0
 128.318 331.58 132.838 420.956 149.345 468.137 c 0
 165.694 514.866 202.665 576.447 242.909 578.405 c 0
214.167 471.639 m 0
 203.458 471.663 192.678 465.804 183.294 452.607 c 0
 179.823 447.727 180.985 441.956 185.469 437.775 c 0
 203.953 420.539 228.615 421.238 249.51 434.06 c 0
 254.223 436.951 255.127 440.603 252.017 445.479 c 0
 241.582 461.843 227.936 471.606 214.167 471.639 c 0
EndSplineSet
Fore
SplineSet
183.799 257.96 m 0
 234.308 272.226 273.662 264.832 300.591 229.673 c 0
 317.438 207.677 328.375 170.651 322.395 136.914 c 0
 316.84 105.572 296.101 67.7012 280.398 51.7373 c 0
 274.114 45.3486 259.816 40.543 250.646 42.2998 c 0
 202.994 51.4297 166.518 71.1387 118.588 97.6338 c 1
 93.6182 53.5273 21.3047 1.24023 0 0 c 0
 -26.8271 -1.56152 -38.9404 88.5938 -0.339844 90.1113 c 0
 19.2715 90.8828 86.6133 112.221 98.0898 132.709 c 0
 114.033 161.174 127.467 242.051 183.799 257.96 c 0
233.349 191.853 m 0
 209.356 204.603 179.961 205.604 159.921 187.856 c 0
 155.144 183.488 156.497 179.388 162.538 174.604 c 0
 181.124 157.657 244.523 135.488 270.866 131.998 c 0
 276.967 131.189 280.99 133.562 280.196 139.121 c 0
 278.003 154.465 257.889 178.812 233.349 191.853 c 0
EndSplineSet
Colour: ff00
EndChar

StartChar: baa.medi_BaaMeemAlefFina
Encoding: 65643 -1 128
Width: 265
VWidth: 0
AnchorPoint: "HamzaBelow" 0 0 basechar 0
AnchorPoint: "HamzaAbove" 0 0 basechar 0
AnchorPoint: "DotBelow" 0 0 basechar 0
AnchorPoint: "DotAbove" 0 0 basechar 0
AnchorPoint: "cursive" -4 28 exit 0
LayerCount: 2
Back
SplineSet
140.42 -85.0469 m 0
 155.119 -87.9785 158.901 -96.1934 156.665 -104.596 c 2
 135.115 -185.567 l 2
 131.381 -199.598 118.319 -196.544 109.51 -195.754 c 0
 48.5078 -190.279 -52.6328 -149.969 -92.5088 -63.7119 c 0
 -125.03 6.63379 -130.32 150.038 -141.356 256.547 c 0
 -156.553 403.214 -158.133 463.96 -195.383 626.056 c 0
 -196.87 632.527 -197.861 640.827 -195.934 645.054 c 0
 -185.976 666.881 -179.249 678.153 -167.85 698.468 c 0
 -162.915 707.261 -157.902 703.253 -155.735 697.642 c 0
 -123.51 614.197 -116.244 492.967 -104.533 366.911 c 0
 -91.3057 224.525 -87.0244 20.498 -33.249 -9.03613 c 0
 13.7041 -34.8223 24.2471 -61.8809 140.42 -85.0469 c 0
4.43262 38.21 m 0
 4.94727 -48.2812 79.7012 -74.5869 140.42 -85.0469 c 1
 154.969 -88.6592 158.901 -96.1934 156.665 -104.596 c 2
 135.115 -185.567 l 2
 131.381 -199.598 118.132 -197.706 109.51 -195.754 c 0
 -24.1768 -165.486 -163.859 65.2588 -33.249 -9.03613 c 0
 -17.7256 -17.8662 -19.8428 -10.9258 -19.6523 -7.30176 c 0
 -18.5039 14.5537 -15.9902 35.0732 -2.23047 76.4922 c 0
 4.1543 95.7129 4.29297 61.5947 4.43262 38.21 c 0
132.266 87.166 m 0
 85.6924 92.9697 16.959 62.1904 4.43262 38.21 c 1
 4.75488 12.9316 10.502 -7.7832 21.9629 -23.3096 c 0
 74.5605 -94.5615 -27.6465 -124.672 -19.6523 -7.30176 c 0
 -18.166 14.5332 -16.0176 35.082 -2.23047 76.4922 c 0
 10.6289 115.118 86 178.387 159.916 177.318 c 0
 194.614 176.816 190.135 123.94 263.556 90.5947 c 0
 331.782 59.6094 287.126 -7.26855 263.234 0 c 0
 171.499 27.9072 162.579 83.3887 132.266 87.166 c 0
EndSplineSet
Fore
SplineSet
132.266 87.166 m 0
 85.6924 92.9697 16.959 62.1904 4.43262 38.21 c 1
 4.75488 12.9316 10.502 -7.7832 21.9629 -23.3096 c 0
 74.5605 -94.5615 -27.6465 -124.672 -19.6523 -7.30176 c 0
 -18.166 14.5332 -16.0176 35.082 -2.23047 76.4922 c 0
 10.6289 115.118 86 178.387 159.916 177.318 c 0
 194.614 176.816 190.135 123.94 263.556 90.5947 c 0
 331.782 59.6094 287.126 -7.26855 263.234 0 c 0
 171.499 27.9072 162.579 83.3887 132.266 87.166 c 0
EndSplineSet
Colour: ff00
EndChar

StartChar: meem.medi_BaaMeemAlefFina
Encoding: 65644 -1 129
Width: 233
VWidth: 0
AnchorPoint: "HamzaBelow" 0 0 basechar 0
AnchorPoint: "HamzaAbove" 0 0 basechar 0
AnchorPoint: "DotBelow" 0 0 basechar 0
AnchorPoint: "DotAbove" 0 0 basechar 0
AnchorPoint: "cursive" 0 -40 exit 0
AnchorPoint: "cursive" 55 28 entry 0
LayerCount: 2
Back
SplineSet
199.42 -85.0469 m 0
 214.119 -87.9785 217.901 -96.1934 215.665 -104.596 c 2
 194.115 -185.567 l 2
 190.381 -199.598 177.319 -196.544 168.51 -195.754 c 0
 107.508 -190.279 6.36719 -149.969 -33.5088 -63.7119 c 0
 -66.0303 6.63379 -71.3203 150.038 -82.3564 256.547 c 0
 -97.5527 403.214 -99.1328 463.96 -136.383 626.056 c 0
 -137.87 632.527 -138.861 640.827 -136.934 645.054 c 0
 -126.976 666.881 -120.249 678.153 -108.85 698.468 c 0
 -103.915 707.261 -98.9023 703.253 -96.7354 697.642 c 0
 -64.5098 614.197 -57.2441 492.967 -45.5332 366.911 c 0
 -32.3057 224.525 -28.0244 20.498 25.751 -9.03613 c 0
 72.7041 -34.8223 83.2471 -61.8809 199.42 -85.0469 c 0
63.4326 38.21 m 0
 63.9473 -48.2812 138.701 -74.5869 199.42 -85.0469 c 1
 213.969 -88.6592 217.901 -96.1934 215.665 -104.596 c 2
 194.115 -185.567 l 2
 190.381 -199.598 177.132 -197.706 168.51 -195.754 c 0
 34.8232 -165.486 -104.859 65.2588 25.751 -9.03613 c 0
 41.2744 -17.8662 39.1572 -10.9258 39.3477 -7.30176 c 0
 40.4961 14.5537 43.0098 35.0732 56.7695 76.4922 c 0
 63.1543 95.7129 63.293 61.5947 63.4326 38.21 c 0
191.266 87.166 m 0
 144.692 92.9697 75.959 62.1904 63.4326 38.21 c 1
 63.7549 12.9316 69.502 -7.7832 80.9629 -23.3096 c 0
 133.561 -94.5615 31.3535 -124.672 39.3477 -7.30176 c 0
 40.834 14.5332 42.9824 35.082 56.7695 76.4922 c 0
 69.6289 115.118 145 178.387 218.916 177.318 c 0
 253.614 176.816 249.135 123.94 322.556 90.5947 c 0
 390.782 59.6094 346.126 -7.26855 322.234 0 c 0
 230.499 27.9072 221.579 83.3887 191.266 87.166 c 0
EndSplineSet
Fore
SplineSet
63.4326 38.21 m 0
 63.9473 -48.2812 138.701 -74.5869 199.42 -85.0469 c 1
 213.969 -88.6592 217.901 -96.1934 215.665 -104.596 c 2
 194.115 -185.567 l 2
 190.381 -199.598 177.132 -197.706 168.51 -195.754 c 0
 34.8232 -165.486 -104.859 65.2588 25.751 -9.03613 c 0
 41.2744 -17.8662 39.1572 -10.9258 39.3477 -7.30176 c 0
 40.4961 14.5537 43.0098 35.0732 56.7695 76.4922 c 0
 63.1543 95.7129 63.293 61.5947 63.4326 38.21 c 0
EndSplineSet
Colour: ff00
EndChar

StartChar: alef.fina_BaaMeemAlefFina
Encoding: 65645 -1 130
Width: 368
VWidth: 0
AnchorPoint: "HamzaBelow" 0 0 basechar 0
AnchorPoint: "HamzaAbove" 0 0 basechar 0
AnchorPoint: "DotBelow" 0 0 basechar 0
AnchorPoint: "DotAbove" 0 0 basechar 0
AnchorPoint: "cursive" 139 -40 entry 0
LayerCount: 2
Back
SplineSet
338.42 -85.0469 m 0
 353.119 -87.9785 356.901 -96.1934 354.665 -104.596 c 2
 333.115 -185.567 l 2
 329.381 -199.598 316.319 -196.544 307.51 -195.754 c 0
 246.508 -190.279 145.367 -149.969 105.491 -63.7119 c 0
 72.9697 6.63379 67.6797 150.038 56.6436 256.547 c 0
 41.4473 403.214 39.8672 463.96 2.61719 626.056 c 0
 1.12988 632.527 0.138672 640.827 2.06641 645.054 c 0
 12.0244 666.881 18.751 678.153 30.1504 698.468 c 0
 35.085 707.261 40.0977 703.253 42.2646 697.642 c 0
 74.4902 614.197 81.7559 492.967 93.4668 366.911 c 0
 106.694 224.525 110.976 20.498 164.751 -9.03613 c 0
 211.704 -34.8223 222.247 -61.8809 338.42 -85.0469 c 0
202.433 38.21 m 0
 202.947 -48.2812 277.701 -74.5869 338.42 -85.0469 c 1
 352.969 -88.6592 356.901 -96.1934 354.665 -104.596 c 2
 333.115 -185.567 l 2
 329.381 -199.598 316.132 -197.706 307.51 -195.754 c 0
 173.823 -165.486 34.1406 65.2588 164.751 -9.03613 c 0
 180.274 -17.8662 178.157 -10.9258 178.348 -7.30176 c 0
 179.496 14.5537 182.01 35.0732 195.77 76.4922 c 0
 202.154 95.7129 202.293 61.5947 202.433 38.21 c 0
330.266 87.166 m 0
 283.692 92.9697 214.959 62.1904 202.433 38.21 c 1
 202.755 12.9316 208.502 -7.7832 219.963 -23.3096 c 0
 272.561 -94.5615 170.354 -124.672 178.348 -7.30176 c 0
 179.834 14.5332 181.982 35.082 195.77 76.4922 c 0
 208.629 115.118 284 178.387 357.916 177.318 c 0
 392.614 176.816 388.135 123.94 461.556 90.5947 c 0
 529.782 59.6094 485.126 -7.26855 461.234 0 c 0
 369.499 27.9072 360.579 83.3887 330.266 87.166 c 0
EndSplineSet
Fore
SplineSet
338.42 -85.0469 m 0
 353.119 -87.9785 356.901 -96.1934 354.665 -104.596 c 2
 333.115 -185.567 l 2
 329.381 -199.598 316.319 -196.544 307.51 -195.754 c 0
 246.508 -190.279 145.367 -149.969 105.491 -63.7119 c 0
 72.9697 6.63379 67.6797 150.038 56.6436 256.547 c 0
 41.4473 403.214 39.8672 463.96 2.61719 626.056 c 0
 1.12988 632.527 0.138672 640.827 2.06641 645.054 c 0
 12.0244 666.881 18.751 678.153 30.1504 698.468 c 0
 35.085 707.261 40.0977 703.253 42.2646 697.642 c 0
 74.4902 614.197 81.7559 492.967 93.4668 366.911 c 0
 106.694 224.525 110.976 20.498 164.751 -9.03613 c 0
 211.704 -34.8223 222.247 -61.8809 338.42 -85.0469 c 0
EndSplineSet
Colour: ff00
EndChar

StartChar: kaf.init_KafMeemInit
Encoding: 65646 -1 131
Width: 198
VWidth: 0
AnchorPoint: "HamzaBelow" 0 0 basechar 0
AnchorPoint: "HamzaAbove" 0 0 basechar 0
AnchorPoint: "DotBelow" 0 0 basechar 0
AnchorPoint: "DotAbove" 0 0 basechar 0
AnchorPoint: "cursive" 60 213 exit 0
LayerCount: 2
Back
SplineSet
-3.15625 227.908 m 4
 12.6016 236.424 71.624 249.748 115.582 192.345 c 4
 154.704 141.256 111 31 76.1465 37.3076 c 4
 40.0459 43.8408 -19.959 66.0566 -57.0195 102.141 c 5
 -77.7686 68.8105 -96.8027 2.23438 -157.902 0.235352 c 4
 -186.971 -0.71582 -189.719 89.2812 -157.853 90.8525 c 4
 -131.015 92.1768 -95.2676 105.607 -76.1562 127.257 c 4
 -52.3076 154.271 -32.8994 211.834 -3.15625 227.908 c 4
24.3232 169.581 m 4
 15.001 169.525 5.46777 167.908 -3.92188 164.355 c 4
 -7.98047 162.819 -7.38379 158.326 -5.04883 156.418 c 4
 28.1084 129.321 62.0605 119.22 94.4785 113.001 c 4
 99.2168 112.092 104.029 112.939 103.129 117.635 c 4
 98.4678 141.961 61.1885 169.823 24.3232 169.581 c 4
527.176 785.033 m 4
 538.207 785.494 543.05 771.299 535.828 763.627 c 5
 499.739 712.521 l 5
 493.065 705.431 481.965 703.945 475.68 703.508 c 4
 347.606 696.273 65.4072 664.093 -31.7031 594.445 c 4
 -35.3252 591.494 -31.1465 588.722 -28.9893 586.998 c 4
 32.5117 537.858 152.482 401.459 164.361 313.851 c 4
 167.738 288.947 171.948 210.244 115.64 183.644 c 4
 92.6426 172.779 -30.2314 211.276 -4.06641 227.174 c 4
 27.04 246.073 95.3379 224.78 133.72 238.174 c 4
 137.14 239.367 139.96 242.891 139.75 247.34 c 4
 137.235 300.622 68.3926 391.577 7.0166 439.688 c 4
 4.06543 442.518 -0.896484 443.541 -4.01855 441.104 c 4
 -9.01465 437.168 -10.7988 432.486 -16.8389 425.241 c 4
 -19.2188 422.387 -26.4307 421.232 -31.4609 425.482 c 4
 -55.6553 446.354 -69.6973 460.55 -89.7617 481.815 c 4
 -94.0029 486.311 -99.3877 491.577 -99.4697 499.423 c 4
 -99.6689 518.475 -84.6289 588.227 -53.4004 621.62 c 4
 61.5996 744.599 406.245 779.979 527.176 785.033 c 4
EndSplineSet
Fore
SplineSet
527.176 785.033 m 0
 538.207 785.494 543.05 771.299 535.828 763.627 c 1
 499.739 712.521 l 1
 493.065 705.431 481.965 703.945 475.68 703.508 c 0
 347.606 696.273 65.4072 664.093 -31.7031 594.445 c 0
 -35.3252 591.494 -31.1465 588.722 -28.9893 586.998 c 0
 32.5117 537.858 152.482 401.459 164.361 313.851 c 0
 167.738 288.947 171.948 210.244 115.64 183.644 c 0
 92.6426 172.779 -30.2314 211.276 -4.06641 227.174 c 0
 27.04 246.073 95.3379 224.78 133.72 238.174 c 0
 137.14 239.367 139.96 242.891 139.75 247.34 c 0
 137.235 300.622 68.3926 391.577 7.0166 439.688 c 0
 4.06543 442.518 -0.896484 443.541 -4.01855 441.104 c 0
 -9.01465 437.168 -10.7988 432.486 -16.8389 425.241 c 0
 -19.2188 422.387 -26.4307 421.232 -31.4609 425.482 c 0
 -55.6553 446.354 -69.6973 460.55 -89.7617 481.815 c 0
 -94.0029 486.311 -99.3877 491.577 -99.4697 499.423 c 0
 -99.6689 518.475 -84.6289 588.227 -53.4004 621.62 c 0
 61.5996 744.599 406.245 779.979 527.176 785.033 c 0
EndSplineSet
Colour: ff00
EndChar

StartChar: meem.medi_KafMeemInit
Encoding: 65647 -1 132
Width: 294
VWidth: 0
AnchorPoint: "HamzaBelow" 0 0 basechar 0
AnchorPoint: "HamzaAbove" 0 0 basechar 0
AnchorPoint: "DotBelow" 0 0 basechar 0
AnchorPoint: "DotAbove" 0 0 basechar 0
AnchorPoint: "cursive" 218 213 entry 0
LayerCount: 2
Back
SplineSet
154.844 227.908 m 0
 170.602 236.424 229.624 249.748 273.582 192.345 c 0
 312.704 141.256 269 31 234.146 37.3076 c 0
 198.046 43.8408 138.041 66.0566 100.98 102.141 c 1
 80.2314 68.8105 61.1973 2.23438 0.0976562 0.235352 c 0
 -28.9707 -0.71582 -31.7188 89.2812 0.147461 90.8525 c 0
 26.9854 92.1768 62.7324 105.607 81.8438 127.257 c 0
 105.692 154.271 125.101 211.834 154.844 227.908 c 0
182.323 169.581 m 0
 173.001 169.525 163.468 167.908 154.078 164.355 c 0
 150.02 162.819 150.616 158.326 152.951 156.418 c 0
 186.108 129.321 220.061 119.22 252.479 113.001 c 0
 257.217 112.092 262.029 112.939 261.129 117.635 c 0
 256.468 141.961 219.188 169.823 182.323 169.581 c 0
685.176 785.033 m 0
 696.207 785.494 701.05 771.299 693.828 763.627 c 1
 657.739 712.522 l 1
 651.065 705.431 639.965 703.945 633.68 703.508 c 0
 505.606 696.273 223.407 664.093 126.297 594.445 c 0
 122.675 591.494 126.854 588.722 129.011 586.998 c 0
 190.512 537.858 310.482 401.459 322.361 313.851 c 0
 325.738 288.947 329.948 210.244 273.64 183.644 c 0
 250.643 172.779 127.769 211.276 153.934 227.174 c 0
 185.04 246.073 253.338 224.78 291.72 238.174 c 0
 295.14 239.367 297.96 242.891 297.75 247.34 c 0
 295.235 300.622 226.393 391.577 165.017 439.687 c 0
 162.065 442.518 157.104 443.541 153.981 441.104 c 0
 148.985 437.168 147.201 432.486 141.161 425.241 c 0
 138.781 422.387 131.569 421.232 126.539 425.482 c 0
 102.345 446.354 88.3027 460.55 68.2383 481.815 c 0
 63.9971 486.311 58.6123 491.577 58.5303 499.423 c 0
 58.3311 518.475 73.3711 588.227 104.6 621.62 c 0
 219.6 744.599 564.245 779.978 685.176 785.033 c 0
EndSplineSet
Fore
SplineSet
154.844 227.908 m 0
 170.602 236.424 229.624 249.748 273.582 192.345 c 0
 312.704 141.256 269 31 234.146 37.3076 c 0
 198.046 43.8408 138.041 66.0566 100.98 102.141 c 1
 80.2314 68.8105 61.1973 2.23438 0.0976562 0.235352 c 0
 -28.9707 -0.71582 -31.7188 89.2812 0.147461 90.8525 c 0
 26.9854 92.1768 62.7324 105.607 81.8438 127.257 c 0
 105.692 154.271 125.101 211.834 154.844 227.908 c 0
182.323 169.581 m 0
 173.001 169.525 163.468 167.908 154.078 164.355 c 0
 150.02 162.819 150.616 158.326 152.951 156.418 c 0
 186.108 129.321 220.061 119.22 252.479 113.001 c 0
 257.217 112.092 262.029 112.939 261.129 117.635 c 0
 256.468 141.961 219.188 169.823 182.323 169.581 c 0
EndSplineSet
Colour: ff00
EndChar

StartChar: kaf.init_KafYaaIsol
Encoding: 65648 -1 133
Width: 177
VWidth: 0
AnchorPoint: "HamzaBelow" 0 0 basechar 0
AnchorPoint: "HamzaAbove" 0 0 basechar 0
AnchorPoint: "DotBelow" 0 0 basechar 0
AnchorPoint: "DotAbove" 0 0 basechar 0
AnchorPoint: "cursive" 23 125 exit 0
LayerCount: 2
Back
SplineSet
-1.61035 145.251 m 5
 41.0342 149.551 83.2422 147.897 117.177 143.815 c 4
 146.678 140.267 187.334 132.512 212.264 110.762 c 5
 242.213 81.0811 203.62 -12.3789 192.413 -27.9746 c 4
 164.729 -66.5039 -26.2676 -213.61 -206.16 -200.188 c 4
 -319.208 -191.768 -376.188 -128.914 -389.535 -64.0137 c 4
 -409.383 32.4883 -370.018 159.404 -312.908 234.13 c 4
 -304.003 245.781 -287.154 233.65 -297.293 218.336 c 4
 -342.673 149.795 -355.218 99.0732 -354.272 53.9111 c 4
 -352.054 -52.2012 -284.628 -103.886 -167.589 -105.61 c 4
 -58.5674 -107.217 107.565 -22.3896 174.188 42.9863 c 4
 176.343 45.1016 175.793 47.3896 173.408 49.3779 c 4
 131.814 84.0547 45.7354 78.0576 -21.2109 83.2812 c 4
 -27.3818 83.7627 -26.3662 88.709 -25.0742 91.3447 c 6
 -1.61035 145.251 l 5
448.096 927.158 m 4
 460.714 932.146 466.666 925.415 464.88 912.002 c 6
 464.88 912.002 459.61 872.434 456.976 852.649 c 4
 455.682 842.933 448.746 840.024 442.678 838.033 c 4
 303.299 792.307 -39.3633 659.61 -96.1416 602.179 c 4
 -98.7012 599.821 -102.477 594.688 -94.7461 589.024 c 4
 -30.8994 542.253 45.5947 487.239 93.5088 424.606 c 4
 137.471 367.141 159.457 299.778 151.664 218.629 c 4
 149.796 199.18 132.012 166.419 119.805 155.357 c 4
 81.3066 120.471 42.0029 98.625 -21.2109 83.2812 c 4
 -27.2119 81.8252 -26.2451 88.6533 -25.0732 91.3447 c 6
 -1.60938 145.251 l 5
 51.8457 164.752 88.0742 179.603 121.974 201.238 c 4
 123.797 202.402 125.138 204.848 124.691 207.127 c 4
 109.258 324.196 22.9277 394.805 -53.0547 446.072 c 4
 -55.1182 447.464 -58.9111 448.444 -60.7109 445.414 c 6
 -78.3047 407.788 l 6
 -80.0488 404.851 -82.4473 405.194 -84.9648 406.868 c 4
 -125.591 433.89 -153.573 453.757 -164.357 481.738 c 4
 -183.565 531.574 -146.069 625.632 -119.224 654.243 c 5
 3.42969 762.902 337.496 883.429 448.096 927.158 c 4
EndSplineSet
Fore
SplineSet
448.096 927.158 m 0
 460.714 932.146 466.666 925.415 464.88 912.002 c 2
 464.88 912.002 459.61 872.434 456.976 852.649 c 0
 455.682 842.933 448.746 840.024 442.678 838.033 c 0
 303.299 792.307 -39.3633 659.61 -96.1416 602.179 c 0
 -98.7012 599.821 -102.477 594.688 -94.7461 589.024 c 0
 -30.8994 542.253 45.5947 487.239 93.5088 424.606 c 0
 137.471 367.141 159.457 299.778 151.664 218.629 c 0
 149.796 199.18 132.012 166.419 119.805 155.357 c 0
 81.3066 120.471 42.0029 98.625 -21.2109 83.2812 c 0
 -27.2119 81.8252 -26.2451 88.6533 -25.0732 91.3447 c 2
 -1.60938 145.251 l 1
 51.8457 164.752 88.0742 179.603 121.974 201.238 c 0
 123.797 202.402 125.138 204.848 124.691 207.127 c 0
 109.258 324.196 22.9277 394.805 -53.0547 446.072 c 0
 -55.1182 447.464 -58.9111 448.444 -60.7109 445.414 c 2
 -78.3047 407.788 l 2
 -80.0488 404.851 -82.4473 405.194 -84.9648 406.868 c 0
 -125.591 433.89 -153.573 453.757 -164.357 481.738 c 0
 -183.565 531.574 -146.069 625.632 -119.224 654.243 c 1
 3.42969 762.902 337.496 883.429 448.096 927.158 c 0
EndSplineSet
Colour: ff00
EndChar

StartChar: yaa.fina_KafYaaIsol
Encoding: 65649 -1 134
Width: 640
VWidth: 0
AnchorPoint: "HamzaBelow" 0 0 basechar 0
AnchorPoint: "HamzaAbove" 0 0 basechar 0
AnchorPoint: "DotBelow" 0 0 basechar 0
AnchorPoint: "DotAbove" 0 0 basechar 0
AnchorPoint: "cursive" 413 125 entry 0
LayerCount: 2
Back
SplineSet
388.39 145.251 m 1
 431.034 149.551 473.242 147.897 507.177 143.815 c 0
 536.678 140.267 577.334 132.512 602.264 110.762 c 1
 632.213 81.0811 593.62 -12.3789 582.413 -27.9746 c 0
 554.728 -66.5039 363.732 -213.61 183.84 -200.188 c 0
 70.792 -191.768 13.8125 -128.914 0.464844 -64.0137 c 0
 -19.3828 32.4883 19.9824 159.404 77.0918 234.13 c 0
 85.9971 245.781 102.846 233.65 92.707 218.336 c 0
 47.3271 149.795 34.7822 99.0732 35.7275 53.9111 c 0
 37.9463 -52.2012 105.372 -103.886 222.411 -105.61 c 0
 331.433 -107.217 497.565 -22.3896 564.188 42.9863 c 0
 566.343 45.1016 565.793 47.3896 563.408 49.3779 c 0
 521.814 84.0547 435.735 78.0576 368.789 83.2812 c 0
 362.618 83.7627 363.634 88.709 364.926 91.3447 c 2
 388.39 145.251 l 1
838.096 927.158 m 0
 850.714 932.147 856.666 925.415 854.88 912.002 c 2
 854.88 912.002 849.61 872.434 846.976 852.649 c 0
 845.682 842.933 838.746 840.024 832.678 838.033 c 0
 693.299 792.307 350.637 659.61 293.858 602.179 c 0
 291.299 599.821 287.523 594.688 295.254 589.024 c 0
 359.101 542.253 435.595 487.239 483.509 424.606 c 0
 527.471 367.141 549.457 299.778 541.664 218.629 c 0
 539.796 199.18 522.012 166.419 509.805 155.357 c 0
 471.307 120.471 432.003 98.625 368.789 83.2812 c 0
 362.788 81.8252 363.755 88.6533 364.927 91.3447 c 2
 388.391 145.251 l 1
 441.846 164.752 478.074 179.603 511.974 201.238 c 0
 513.797 202.402 515.138 204.848 514.691 207.127 c 0
 499.258 324.196 412.928 394.805 336.945 446.072 c 0
 334.882 447.464 331.089 448.444 329.289 445.414 c 2
 311.695 407.788 l 2
 309.951 404.851 307.553 405.194 305.035 406.868 c 0
 264.409 433.89 236.427 453.757 225.643 481.738 c 0
 206.435 531.574 243.931 625.632 270.776 654.243 c 1
 393.43 762.902 727.496 883.429 838.096 927.158 c 0
EndSplineSet
Fore
SplineSet
388.39 145.251 m 1
 431.034 149.551 473.242 147.897 507.177 143.815 c 0
 536.678 140.267 577.334 132.512 602.264 110.762 c 1
 632.213 81.0811 593.62 -12.3789 582.413 -27.9746 c 0
 554.728 -66.5039 363.732 -213.61 183.84 -200.188 c 0
 70.792 -191.768 13.8125 -128.914 0.464844 -64.0137 c 0
 -19.3828 32.4883 19.9824 159.404 77.0918 234.13 c 0
 85.9971 245.781 102.846 233.65 92.707 218.336 c 0
 47.3271 149.795 34.7822 99.0732 35.7275 53.9111 c 0
 37.9463 -52.2012 105.372 -103.886 222.411 -105.61 c 0
 331.433 -107.217 497.565 -22.3896 564.188 42.9863 c 0
 566.343 45.1016 565.793 47.3896 563.408 49.3779 c 0
 521.814 84.0547 435.735 78.0576 368.789 83.2812 c 0
 362.618 83.7627 363.634 88.709 364.926 91.3447 c 2
 388.39 145.251 l 1
EndSplineSet
Colour: ff00
EndChar

StartChar: baa.init_BaaRaaIsol
Encoding: 65650 -1 135
Width: 214
VWidth: 0
AnchorPoint: "HamzaBelow" 0 0 basechar 0
AnchorPoint: "HamzaAbove" 0 0 basechar 0
AnchorPoint: "DotBelow" 0 0 basechar 0
AnchorPoint: "DotAbove" 0 0 basechar 0
AnchorPoint: "cursive" 52 135 exit 0
LayerCount: 2
Back
SplineSet
172.108 262.77 m 4
 177.578 262.939 183.252 258.365 184.015 251.176 c 4
 193.89 158.189 168.168 87.5889 88.8584 74.582 c 4
 63.457 70.416 40.6689 71.8438 20.4053 82.1572 c 4
 7.08398 88.9375 11.2764 106.071 12.6602 113.854 c 4
 16.5264 135.598 22.0391 159.84 27.7881 189.782 c 4
 29.8779 200.669 42.1787 200.524 45.9463 195.928 c 4
 77.2373 157.745 164.666 165.068 161.983 249.895 c 4
 161.702 258.812 167.282 262.62 172.108 262.77 c 4
45.9463 195.928 m 4
 79.1973 155.36 85.5049 128.295 78.6709 57.3008 c 4
 72.1162 -10.7979 42.6787 -66.4248 -5.29785 -120.137 c 4
 -46.1943 -165.922 -90.2109 -196.613 -133.642 -198.293 c 4
 -205.259 -201.062 -262.096 -185.108 -322.323 -145.953 c 4
 -336.732 -137.548 -330.217 -122.806 -317.261 -127.734 c 4
 -235.046 -154.809 -165.676 -144.382 -89.7041 -101.637 c 5
 -36.2227 -70.2881 28.6973 -12.9873 45.3584 40.3008 c 5
 47.6689 59.4277 50.2285 66.3486 20.4053 82.1572 c 4
 7.19824 89.1582 11.2764 106.071 12.6602 113.854 c 4
 16.5264 135.598 22.0391 159.84 27.7881 189.782 c 4
 29.8779 200.669 42.1777 200.525 45.9463 195.928 c 4
EndSplineSet
Fore
SplineSet
172.108 262.77 m 0
 177.578 262.939 183.252 258.365 184.015 251.176 c 0
 193.89 158.189 168.168 87.5889 88.8584 74.582 c 0
 63.457 70.416 40.6689 71.8438 20.4053 82.1572 c 0
 7.08398 88.9375 11.2764 106.071 12.6602 113.854 c 0
 16.5264 135.598 22.0391 159.84 27.7881 189.782 c 0
 29.8779 200.669 42.1787 200.524 45.9463 195.928 c 0
 77.2373 157.745 164.666 165.068 161.983 249.895 c 0
 161.702 258.812 167.282 262.62 172.108 262.77 c 0
EndSplineSet
Colour: ff00
EndChar

StartChar: raa.fina_BaaRaaIsol
Encoding: 65651 -1 136
Width: 360
VWidth: 0
AnchorPoint: "HamzaBelow" 0 0 basechar 0
AnchorPoint: "HamzaAbove" 0 0 basechar 0
AnchorPoint: "DotBelow" 0 0 basechar 0
AnchorPoint: "DotAbove" 0 0 basechar 0
AnchorPoint: "cursive" 312 135 entry 0
LayerCount: 2
Back
SplineSet
432.108 262.77 m 0
 437.578 262.939 443.252 258.365 444.015 251.176 c 0
 453.89 158.189 428.168 87.5889 348.858 74.582 c 0
 323.457 70.416 300.669 71.8438 280.405 82.1572 c 0
 267.084 88.9375 271.276 106.071 272.66 113.854 c 0
 276.526 135.598 282.039 159.84 287.788 189.782 c 0
 289.878 200.669 302.179 200.524 305.946 195.928 c 0
 337.237 157.745 424.666 165.068 421.983 249.895 c 0
 421.702 258.812 427.282 262.62 432.108 262.77 c 0
305.946 195.928 m 0
 339.197 155.36 345.505 128.295 338.671 57.3008 c 0
 332.116 -10.7979 302.679 -66.4248 254.702 -120.137 c 0
 213.806 -165.922 169.789 -196.613 126.358 -198.293 c 0
 54.7412 -201.062 -2.0957 -185.108 -62.3232 -145.953 c 0
 -76.7324 -137.548 -70.2168 -122.806 -57.2607 -127.734 c 0
 24.9541 -154.809 94.3242 -144.382 170.296 -101.637 c 1
 223.777 -70.2881 288.697 -12.9873 305.358 40.3008 c 1
 307.669 59.4277 310.229 66.3486 280.405 82.1572 c 0
 267.198 89.1582 271.276 106.071 272.66 113.854 c 0
 276.526 135.598 282.039 159.84 287.788 189.782 c 0
 289.878 200.669 302.178 200.525 305.946 195.928 c 0
EndSplineSet
Fore
SplineSet
305.946 195.928 m 0
 339.197 155.36 345.505 128.295 338.671 57.3008 c 0
 332.116 -10.7979 302.679 -66.4248 254.702 -120.137 c 0
 213.806 -165.922 169.789 -196.613 126.358 -198.293 c 0
 54.7412 -201.062 -2.0957 -185.108 -62.3232 -145.953 c 0
 -76.7324 -137.548 -70.2168 -122.806 -57.2607 -127.734 c 0
 24.9541 -154.809 94.3242 -144.382 170.296 -101.637 c 1
 223.777 -70.2881 288.697 -12.9873 305.358 40.3008 c 1
 307.669 59.4277 310.229 66.3486 280.405 82.1572 c 0
 267.198 89.1582 271.276 106.071 272.66 113.854 c 0
 276.526 135.598 282.039 159.84 287.788 189.782 c 0
 289.878 200.669 302.178 200.525 305.946 195.928 c 0
EndSplineSet
Colour: ff00
EndChar

StartChar: baa.medi_BaaHehMedi
Encoding: 65652 -1 137
Width: 314
VWidth: 0
AnchorPoint: "HamzaBelow" 0 0 basechar 0
AnchorPoint: "HamzaAbove" 0 0 basechar 0
AnchorPoint: "DotBelow" 0 0 basechar 0
AnchorPoint: "DotAbove" 0 0 basechar 0
AnchorPoint: "cursive" 2 11 exit 0
LayerCount: 2
Back
SplineSet
14.5557 11.3975 m 4
 -24.7324 -67.6182 -5.85352 -154.606 13.2617 -210.926 c 4
 14.8887 -215.719 16.332 -219.469 13.2617 -224.033 c 6
 -21.3779 -275.524 l 6
 -24.0742 -279.532 -26.1562 -287.091 -31.6768 -280.674 c 4
 -97.4863 -204.169 -99.3467 -86.2578 -71.4658 33.8936 c 5
 -102.107 11.3184 -127.041 3.44727 -143.925 0.657227 c 4
 -156.835 -1.47559 -166.604 41.7344 -168.668 64.4609 c 4
 -170.735 87.2129 -163.207 87.5967 -143.925 90.5352 c 4
 -71.9805 101.497 -36.1162 147.963 0.155273 208.966 c 5
 14.4512 228.024 30.0371 215.113 23.0918 202.881 c 4
 5.0459 171.092 -19.293 121.847 -36.2988 70.5596 c 4
 -55.5088 12.6328 -65.7285 -47.5322 -53.7939 -81.2598 c 4
 -53.2988 -82.6582 -51.71 -82.4668 -51.0156 -80.7266 c 4
 -34.125 -38.3525 -16.9619 -2.91797 0.810547 26.7725 c 4
 29.2783 74.3291 36.2627 55.0537 14.5557 11.3975 c 4
125.491 78.7295 m 4
 85.2998 70.2969 41.7656 49.1982 18.7051 16.1895 c 4
 10.5732 4.55078 4.43359 -9.00977 0.207031 -23.7988 c 4
 -5.83203 -44.9258 -30.9639 -33.2061 -19.1299 -8.64453 c 4
 7.77148 47.1914 46.3047 100.396 92.3555 134.067 c 4
 126.701 159.181 166.611 173.159 212.861 166.861 c 4
 252.66 161.44 257.583 106.394 311.413 100.76 c 4
 336.396 98.1445 325.771 9.18848 311.543 9.72461 c 4
 269.682 11.3037 244.199 33.458 223.558 53.1514 c 4
 189.045 86.0781 170.744 88.2236 125.491 78.7295 c 4
EndSplineSet
Fore
SplineSet
125.491 78.7295 m 0
 85.2998 70.2969 41.7656 49.1982 18.7051 16.1895 c 0
 10.5732 4.55078 4.43359 -9.00977 0.207031 -23.7988 c 0
 -5.83203 -44.9258 -30.9639 -33.2061 -19.1299 -8.64453 c 0
 7.77148 47.1914 46.3047 100.396 92.3555 134.067 c 0
 126.701 159.181 166.611 173.159 212.861 166.861 c 0
 252.66 161.44 257.583 106.394 311.413 100.76 c 0
 336.396 98.1445 325.771 9.18848 311.543 9.72461 c 0
 269.682 11.3037 244.199 33.458 223.558 53.1514 c 0
 189.045 86.0781 170.744 88.2236 125.491 78.7295 c 0
EndSplineSet
Colour: ff00
EndChar

StartChar: heh.medi_BaaHehMedi
Encoding: 65653 -1 138
Width: 204
VWidth: 0
AnchorPoint: "HamzaBelow" 0 0 basechar 0
AnchorPoint: "HamzaAbove" 0 0 basechar 0
AnchorPoint: "DotBelow" 0 0 basechar 0
AnchorPoint: "DotAbove" 0 0 basechar 0
AnchorPoint: "cursive" 166 11 entry 0
LayerCount: 2
Back
SplineSet
178.556 11.3975 m 0
 139.268 -67.6182 158.146 -154.606 177.262 -210.926 c 0
 178.889 -215.719 180.332 -219.469 177.262 -224.033 c 2
 142.622 -275.524 l 2
 139.926 -279.532 137.844 -287.091 132.323 -280.674 c 0
 66.5137 -204.169 64.6533 -86.2578 92.5342 33.8936 c 1
 61.8926 11.3184 36.959 3.44727 20.0752 0.657227 c 0
 7.16504 -1.47559 -2.60352 41.7344 -4.66797 64.4609 c 0
 -6.73535 87.2129 0.792969 87.5967 20.0752 90.5352 c 0
 92.0195 101.497 127.884 147.963 164.155 208.966 c 1
 178.451 228.024 194.037 215.113 187.092 202.881 c 0
 169.046 171.092 144.707 121.847 127.701 70.5596 c 0
 108.491 12.6328 98.2715 -47.5322 110.206 -81.2598 c 0
 110.701 -82.6582 112.29 -82.4668 112.984 -80.7266 c 0
 129.875 -38.3525 147.038 -2.91797 164.811 26.7725 c 0
 193.278 74.3291 200.263 55.0537 178.556 11.3975 c 0
289.491 78.7295 m 0
 249.3 70.2969 205.766 49.1982 182.705 16.1895 c 0
 174.573 4.55078 168.434 -9.00977 164.207 -23.7988 c 0
 158.168 -44.9258 133.036 -33.2061 144.87 -8.64453 c 0
 171.771 47.1914 210.305 100.396 256.355 134.067 c 0
 290.701 159.181 330.611 173.159 376.861 166.861 c 0
 416.66 161.44 421.583 106.394 475.413 100.76 c 0
 500.396 98.1445 489.771 9.18848 475.543 9.72461 c 0
 433.682 11.3037 408.199 33.458 387.558 53.1514 c 0
 353.045 86.0781 334.744 88.2236 289.491 78.7295 c 0
EndSplineSet
Fore
SplineSet
178.556 11.3975 m 0
 139.268 -67.6182 158.146 -154.606 177.262 -210.926 c 0
 178.889 -215.719 180.332 -219.469 177.262 -224.033 c 2
 142.622 -275.524 l 2
 139.926 -279.532 137.844 -287.091 132.323 -280.674 c 0
 66.5137 -204.169 64.6533 -86.2578 92.5342 33.8936 c 1
 61.8926 11.3184 36.959 3.44727 20.0752 0.657227 c 0
 7.16504 -1.47559 -2.60352 41.7344 -4.66797 64.4609 c 0
 -6.73535 87.2129 0.792969 87.5967 20.0752 90.5352 c 0
 92.0195 101.497 127.884 147.963 164.155 208.966 c 1
 178.451 228.024 194.037 215.113 187.092 202.881 c 0
 169.046 171.092 144.707 121.847 127.701 70.5596 c 0
 108.491 12.6328 98.2715 -47.5322 110.206 -81.2598 c 0
 110.701 -82.6582 112.29 -82.4668 112.984 -80.7266 c 0
 129.875 -38.3525 147.038 -2.91797 164.811 26.7725 c 0
 193.278 74.3291 200.263 55.0537 178.556 11.3975 c 0
EndSplineSet
Colour: ff00
EndChar

StartChar: lam.init_LamHehIsol
Encoding: 65654 -1 139
Width: 99
VWidth: -60
AnchorPoint: "HamzaBelow" 0 0 basechar 0
AnchorPoint: "HamzaAbove" 0 0 basechar 0
AnchorPoint: "DotBelow" 0 0 basechar 0
AnchorPoint: "DotAbove" 0 0 basechar 0
AnchorPoint: "cursive" -6 -1 exit 0
LayerCount: 2
Back
SplineSet
-46.709 719.594 m 4
 -43.4238 730.604 -30.4785 730.452 -25.3838 717.622 c 4
 -15.4883 692.708 0.748047 667.154 20.3809 651.1 c 4
 27.6816 645.13 29.9834 638.029 24.1094 628.363 c 4
 19.0459 620.029 14.959 612.639 0.613281 591.768 c 5
 9.52148 538.62 48.5752 357.751 66.4453 233.716 c 4
 75.9375 167.826 70.1621 67.7734 68.9766 67.4346 c 5
 68.9766 67.4346 66.8516 19.6787 45.6953 -24.8467 c 4
 35.0215 -47.3125 17.791 -56.7207 -0.373047 -58.6797 c 5
 -57.1406 -67.999 -43.1094 56.8643 -1.79688 53.5303 c 4
 17.5371 50.9717 32.2715 53.5137 32.6328 54.2158 c 4
 40.4688 69.417 41.0928 102.204 32.4141 162.435 c 4
 12.6777 299.428 -30.8125 499.322 -49.2109 593.303 c 4
 -54.5742 620.7 -57.4463 633.836 -57.4521 633.868 c 4
 -59.7041 645.349 -66.8633 658.406 -62.0859 672.271 c 4
 -56.7764 687.682 -52.3154 700.803 -46.709 719.594 c 4
-1.79688 53.5303 m 4
 35.4199 49.8271 22.3301 -56.3896 -0.373047 -58.6797 c 4
 -23.71 -61.0332 -48.5537 -51.4277 -63.0547 -41.2529 c 4
 -102.206 -13.7803 -141.451 76.7715 -155.11 145.754 c 5
 -164.394 103.188 -173.449 87.082 -178.116 78.4033 c 4
 -186.511 62.459 -193.634 56.9883 -203.711 54.2783 c 4
 -248.566 45.6104 -320.023 49.874 -332.148 60.3721 c 4
 -340.028 67.1953 -355.138 84.5479 -348.555 103.841 c 4
 -343.08 119.886 -326.066 162.975 -322.648 172.278 c 4
 -316.419 189.233 -305.086 201.153 -305.086 201.153 c 5
 -270.699 235.446 -232.004 261.391 -188.273 282.185 c 5
 -194.305 322.028 l 6
 -194.979 327.832 -196.302 340.864 -193.68 350.528 c 5
 -173.711 396.81 l 5
 -160.323 410.983 -160.591 392.365 -156.805 383.497 c 5
 -156.805 383.497 -136.313 248.229 -96.8359 143.435 c 4
 -84.8428 111.6 -67.2803 79.8271 -39.7109 65.2783 c 4
 -26.8301 58.4814 -13.5166 54.6963 -1.79688 53.5303 c 4
-177.805 230.247 m 5
 -205.535 223.791 -268.201 197.434 -291.898 151.591 c 5
 -263.772 129.355 -202.029 138.621 -178.961 148.466 c 4
 -155.336 158.549 -172.011 206.949 -177.805 230.247 c 5
EndSplineSet
Fore
SplineSet
-46.709 719.594 m 0
 -43.4238 730.604 -30.4785 730.452 -25.3838 717.622 c 0
 -15.4883 692.708 0.748047 667.154 20.3809 651.1 c 0
 27.6816 645.13 29.9834 638.029 24.1094 628.363 c 0
 19.0459 620.029 14.959 612.639 0.613281 591.768 c 1
 9.52148 538.62 48.5752 357.751 66.4453 233.716 c 0
 75.9375 167.826 70.1621 67.7734 68.9766 67.4346 c 1
 68.9766 67.4346 66.8516 19.6787 45.6953 -24.8467 c 0
 35.0215 -47.3125 17.791 -56.7207 -0.373047 -58.6797 c 1
 -57.1406 -67.999 -43.1094 56.8643 -1.79688 53.5303 c 0
 17.5371 50.9717 32.2715 53.5137 32.6328 54.2158 c 0
 40.4688 69.417 41.0928 102.204 32.4141 162.435 c 0
 12.6777 299.428 -30.8125 499.322 -49.2109 593.303 c 0
 -54.5742 620.7 -57.4463 633.836 -57.4521 633.868 c 0
 -59.7041 645.349 -66.8633 658.406 -62.0859 672.271 c 0
 -56.7764 687.682 -52.3154 700.803 -46.709 719.594 c 0
EndSplineSet
Colour: ff00
EndChar

StartChar: heh.fina_LamHehIsol
Encoding: 65655 -1 140
Width: 350
VWidth: -60
AnchorPoint: "HamzaBelow" 0 0 basechar 0
AnchorPoint: "HamzaAbove" 0 0 basechar 0
AnchorPoint: "DotBelow" 0 0 basechar 0
AnchorPoint: "DotAbove" 0 0 basechar 0
AnchorPoint: "cursive" 344 -1 entry 0
LayerCount: 2
Back
SplineSet
303.291 719.594 m 4
 306.576 730.604 319.521 730.452 324.616 717.622 c 4
 334.512 692.708 350.748 667.154 370.381 651.1 c 4
 377.682 645.13 379.983 638.029 374.109 628.363 c 4
 369.046 620.029 364.959 612.639 350.613 591.768 c 5
 359.521 538.62 398.575 357.751 416.445 233.716 c 4
 425.938 167.826 420.162 67.7734 418.977 67.4346 c 5
 418.977 67.4346 416.852 19.6787 395.695 -24.8467 c 4
 385.021 -47.3125 367.791 -56.7207 349.627 -58.6797 c 5
 292.859 -67.999 306.891 56.8643 348.203 53.5303 c 4
 367.537 50.9717 382.271 53.5137 382.633 54.2158 c 4
 390.469 69.417 391.093 102.204 382.414 162.435 c 4
 362.678 299.428 319.188 499.322 300.789 593.303 c 4
 295.426 620.7 292.554 633.836 292.548 633.868 c 4
 290.296 645.349 283.137 658.406 287.914 672.271 c 4
 293.224 687.682 297.685 700.803 303.291 719.594 c 4
348.203 53.5303 m 4
 385.42 49.8271 372.33 -56.3896 349.627 -58.6797 c 4
 326.29 -61.0332 301.446 -51.4277 286.945 -41.2529 c 4
 247.794 -13.7803 208.549 76.7715 194.89 145.754 c 5
 185.606 103.188 176.551 87.082 171.884 78.4033 c 4
 163.489 62.459 156.366 56.9883 146.289 54.2783 c 4
 101.434 45.6104 29.9766 49.874 17.8516 60.3721 c 4
 9.97168 67.1953 -5.1377 84.5479 1.44531 103.841 c 4
 6.91992 119.886 23.9336 162.975 27.3516 172.278 c 4
 33.5811 189.233 44.9141 201.153 44.9141 201.153 c 5
 79.3008 235.446 117.996 261.391 161.727 282.185 c 5
 155.695 322.028 l 6
 155.021 327.832 153.698 340.864 156.32 350.528 c 5
 176.289 396.81 l 5
 189.677 410.983 189.409 392.365 193.195 383.497 c 5
 193.195 383.497 213.687 248.229 253.164 143.435 c 4
 265.157 111.6 282.72 79.8271 310.289 65.2783 c 4
 323.17 58.4814 336.483 54.6963 348.203 53.5303 c 4
172.195 230.247 m 5
 144.465 223.791 81.7988 197.434 58.1016 151.591 c 5
 86.2275 129.355 147.971 138.621 171.039 148.466 c 4
 194.664 158.549 177.989 206.949 172.195 230.247 c 5
EndSplineSet
Fore
SplineSet
348.203 53.5303 m 0
 385.42 49.8271 372.33 -56.3896 349.627 -58.6797 c 0
 326.29 -61.0332 301.446 -51.4277 286.945 -41.2529 c 0
 247.794 -13.7803 208.549 76.7715 194.89 145.754 c 1
 185.606 103.188 176.551 87.082 171.884 78.4033 c 0
 163.489 62.459 156.366 56.9883 146.289 54.2783 c 0
 101.434 45.6104 29.9766 49.874 17.8516 60.3721 c 0
 9.97168 67.1953 -5.1377 84.5479 1.44531 103.841 c 0
 6.91992 119.886 23.9336 162.975 27.3516 172.278 c 0
 33.5811 189.233 44.9141 201.153 44.9141 201.153 c 1
 79.3008 235.446 117.996 261.391 161.727 282.185 c 1
 155.695 322.028 l 2
 155.021 327.832 153.698 340.864 156.32 350.528 c 1
 176.289 396.81 l 1
 189.677 410.983 189.409 392.365 193.195 383.497 c 1
 193.195 383.497 213.687 248.229 253.164 143.435 c 0
 265.157 111.6 282.72 79.8271 310.289 65.2783 c 0
 323.17 58.4814 336.483 54.6963 348.203 53.5303 c 0
172.195 230.247 m 1
 144.465 223.791 81.7988 197.434 58.1016 151.591 c 1
 86.2275 129.355 147.971 138.621 171.039 148.466 c 0
 194.664 158.549 177.989 206.949 172.195 230.247 c 1
EndSplineSet
Colour: ff00
EndChar

